ISO-10303-21;
HEADER;
FILE_DESCRIPTION (( 'STEP AP203' ),
    '1' );
FILE_NAME ('Áã¼þ2.ST',
    '2026-08-17T06:17:28',
    ( '2938476671@qq.com' ),
    ( '' ),
    'SwSTEP 2.0',
    'SolidWorks 2022',
    '' );
FILE_SCHEMA (( 'CONFIG_CONTROL_DESIGN' ));
ENDSEC;

DATA;
#1 = CARTESIAN_POINT ( 'NONE',  ( -1.359513603553773432E-15, -2.677721131907036772E-15, 7.074242989058401321 ) ) ;
#2 = AXIS2_PLACEMENT_3D ( 'NONE', #268, #671, #1277 ) ;
#3 = ORIENTED_EDGE ( 'NONE', *, *, #940, .T. ) ;
#4 = CARTESIAN_POINT ( 'NONE',  ( 3.335262747169070467E-15, 20.00000000000001776, 4.074242989058400433 ) ) ;
#5 = ORIENTED_EDGE ( 'NONE', *, *, #605, .T. ) ;
#6 = CIRCLE ( 'NONE', #67, 6.000000000000001776 ) ;
#7 = DIRECTION ( 'NONE',  ( -0.8660254037844278274, 0.5000000000000185407, 0.000000000000000000 ) ) ;
#8 = CIRCLE ( 'NONE', #173, 6.000000000000001776 ) ;
#9 = ADVANCED_FACE ( 'NONE', ( #457 ), #865, .F. ) ;
#10 = ORIENTED_EDGE ( 'NONE', *, *, #218, .T. ) ;
#11 = APPROVAL_ROLE ( '' ) ;
#12 = CARTESIAN_POINT ( 'NONE',  ( -17.32050807568877815, -10.00000000000000533, 7.074242989058401321 ) ) ;
#13 = ORIENTED_EDGE ( 'NONE', *, *, #797, .F. ) ;
#14 = COORDINATED_UNIVERSAL_TIME_OFFSET ( 8, 0, .AHEAD. ) ;
#15 = DIRECTION ( 'NONE',  ( -1.000000000000000000, 1.001543065824780494E-16, 0.000000000000000000 ) ) ;
#16 = VERTEX_POINT ( 'NONE', #574 ) ;
#17 = EDGE_CURVE ( 'NONE', #366, #784, #1084, .T. ) ;
#18 = ORIENTED_EDGE ( 'NONE', *, *, #31, .F. ) ;
#19 = PERSON_AND_ORGANIZATION ( #798, #724 ) ;
#20 = DIRECTION ( 'NONE',  ( 0.8660254037844387076, -0.4999999999999998890, 0.000000000000000000 ) ) ;
#21 = DIRECTION ( 'NONE',  ( -0.000000000000000000, -0.000000000000000000, -1.000000000000000000 ) ) ;
#22 = EDGE_LOOP ( 'NONE', ( #314, #249, #603, #522 ) ) ;
#23 = APPROVAL_ROLE ( '' ) ;
#24 = ORIENTED_EDGE ( 'NONE', *, *, #586, .F. ) ;
#25 = AXIS2_PLACEMENT_3D ( 'NONE', #501, #1005, #7 ) ;
#26 = LOCAL_TIME ( 14, 17, 28.00000000000000000, #732 ) ;
#27 = VECTOR ( 'NONE', #194, 1000.000000000000114 ) ;
#28 = DIRECTION ( 'NONE',  ( 0.000000000000000000, 0.000000000000000000, 1.000000000000000000 ) ) ;
#29 = EDGE_LOOP ( 'NONE', ( #496, #291, #201, #701 ) ) ;
#30 = EDGE_LOOP ( 'NONE', ( #482, #432, #106, #878 ) ) ;
#31 = EDGE_CURVE ( 'NONE', #692, #122, #1189, .T. ) ;
#32 = CARTESIAN_POINT ( 'NONE',  ( 23.32050807568877815, -10.00000000000000000, 3.074242989058400877 ) ) ;
#33 = ORIENTED_EDGE ( 'NONE', *, *, #1271, .F. ) ;
#34 = APPROVAL_DATE_TIME ( #729, #711 ) ;
#35 = ORIENTED_EDGE ( 'NONE', *, *, #614, .F. ) ;
#36 = ADVANCED_FACE ( 'NONE', ( #943 ), #363, .T. ) ;
#37 = PERSON_AND_ORGANIZATION_ROLE ( 'creator' ) ;
#38 = FACE_OUTER_BOUND ( 'NONE', #1148, .T. ) ;
#39 = CARTESIAN_POINT ( 'NONE',  ( -25.98076211353309262, -4.999999999999891642, 2.074242989058400877 ) ) ;
#40 = CARTESIAN_POINT ( 'NONE',  ( 1.732050807568901618, 20.99999999999997868, 7.074242989058401321 ) ) ;
#41 = DIRECTION ( 'NONE',  ( -0.000000000000000000, -0.000000000000000000, -1.000000000000000000 ) ) ;
#42 = AXIS2_PLACEMENT_3D ( 'NONE', #1300, #817, #593 ) ;
#43 = ORIENTED_EDGE ( 'NONE', *, *, #667, .F. ) ;
#44 = CIRCLE ( 'NONE', #925, 4.000000000000000888 ) ;
#45 = VECTOR ( 'NONE', #264, 1000.000000000000114 ) ;
#46 = EDGE_CURVE ( 'NONE', #923, #494, #1289, .T. ) ;
#47 = TOROIDAL_SURFACE ( 'NONE', #111, 2.000000000000001776, 4.000000000000000000 ) ;
#48 = APPLICATION_CONTEXT ( 'configuration controlled 3d designs of mechanical parts and assemblies' ) ;
#49 = CYLINDRICAL_SURFACE ( 'NONE', #1167, 7.000000000000000000 ) ;
#50 = DIRECTION ( 'NONE',  ( -1.000000000000000000, 0.000000000000000000, 0.000000000000000000 ) ) ;
#51 = DIRECTION ( 'NONE',  ( -0.4999999999999997780, 0.8660254037844387076, 0.000000000000000000 ) ) ;
#52 = DIRECTION ( 'NONE',  ( -0.8660254037844505870, -0.4999999999999796274, 0.000000000000000000 ) ) ;
#53 = CARTESIAN_POINT ( 'NONE',  ( 4.999999999999998224, -2.065397732333360243E-15, 3.074242989058400877 ) ) ;
#54 = MECHANICAL_CONTEXT ( 'NONE', #1091, 'mechanical' ) ;
#55 = DIRECTION ( 'NONE',  ( 1.000000000000000000, 0.000000000000000000, 0.000000000000000000 ) ) ;
#56 = DIRECTION ( 'NONE',  ( -0.000000000000000000, 0.000000000000000000, -1.000000000000000000 ) ) ;
#57 = ADVANCED_FACE ( 'NONE', ( #1164 ), #1184, .T. ) ;
#58 = ORIENTED_EDGE ( 'NONE', *, *, #623, .F. ) ;
#59 = CARTESIAN_POINT ( 'NONE',  ( 1.732050807568903839, 20.99999999999997868, 3.074242989058400877 ) ) ;
#60 = CARTESIAN_POINT ( 'NONE',  ( -8.660254037844451247, 24.99999999999989697, 8.074242989058399544 ) ) ;
#61 = CYLINDRICAL_SURFACE ( 'NONE', #1217, 6.000000000000001776 ) ;
#62 = CARTESIAN_POINT ( 'NONE',  ( -1.359513603553773432E-15, -2.677721131907036772E-15, 7.074242989058401321 ) ) ;
#63 = EDGE_CURVE ( 'NONE', #531, #95, #1144, .T. ) ;
#64 = DIRECTION ( 'NONE',  ( -0.000000000000000000, -0.000000000000000000, -1.000000000000000000 ) ) ;
#65 = DIRECTION ( 'NONE',  ( 0.8660254037844387076, -0.4999999999999998890, 0.000000000000000000 ) ) ;
#66 = AXIS2_PLACEMENT_3D ( 'NONE', #855, #1069, #153 ) ;
#67 = AXIS2_PLACEMENT_3D ( 'NONE', #98, #796, #1061 ) ;
#68 = APPROVAL_PERSON_ORGANIZATION ( #19, #711, #23 ) ;
#69 = AXIS2_PLACEMENT_3D ( 'NONE', #1018, #1025, #423 ) ;
#70 = DIRECTION ( 'NONE',  ( 1.000000000000000000, 0.000000000000000000, 0.000000000000000000 ) ) ;
#71 = DIRECTION ( 'NONE',  ( -0.000000000000000000, -0.000000000000000000, 1.000000000000000000 ) ) ;
#72 = CARTESIAN_POINT ( 'NONE',  ( -1.359513603553773432E-15, -2.677721131907036772E-15, 8.074242989058399544 ) ) ;
#73 = DIRECTION ( 'NONE',  ( -1.000000000000000000, 0.000000000000000000, 0.000000000000000000 ) ) ;
#74 = ORIENTED_EDGE ( 'NONE', *, *, #427, .F. ) ;
#75 = ORIENTED_EDGE ( 'NONE', *, *, #362, .T. ) ;
#76 = LINE ( 'NONE', #1207, #1042 ) ;
#77 = EDGE_CURVE ( 'NONE', #232, #462, #723, .T. ) ;
#78 = DIRECTION ( 'NONE',  ( 0.000000000000000000, 0.000000000000000000, 1.000000000000000000 ) ) ;
#79 = EDGE_LOOP ( 'NONE', ( #1198, #938, #1177, #256 ) ) ;
#80 = ORIENTED_EDGE ( 'NONE', *, *, #125, .F. ) ;
#81 = DIRECTION ( 'NONE',  ( 0.000000000000000000, 0.000000000000000000, 1.000000000000000000 ) ) ;
#82 = DIRECTION ( 'NONE',  ( -0.8660254037844387076, -0.5000000000000001110, 0.000000000000000000 ) ) ;
#83 = CC_DESIGN_PERSON_AND_ORGANIZATION_ASSIGNMENT ( #260, #673, ( #393 ) ) ;
#84 = EDGE_LOOP ( 'NONE', ( #1007, #679, #147, #819 ) ) ;
#85 = VECTOR ( 'NONE', #748, 1000.000000000000000 ) ;
#86 = EDGE_CURVE ( 'NONE', #389, #919, #161, .T. ) ;
#87 = CIRCLE ( 'NONE', #766, 4.000000000000000000 ) ;
#88 = CARTESIAN_POINT ( 'NONE',  ( -17.32050807568869288, -16.00000000000000000, 2.074242989058400877 ) ) ;
#89 = ORIENTED_EDGE ( 'NONE', *, *, #1235, .F. ) ;
#90 = CARTESIAN_POINT ( 'NONE',  ( 22.51666049839537109, -6.999999999999931610, 7.074242989058401321 ) ) ;
#91 = CC_DESIGN_APPROVAL ( #711, ( #951 ) ) ;
#92 = CIRCLE ( 'NONE', #870, 3.999999999999999112 ) ;
#93 = LINE ( 'NONE', #896, #110 ) ;
#94 = CARTESIAN_POINT ( 'NONE',  ( -17.32050807568877815, -10.00000000000000533, 2.074242989058400877 ) ) ;
#95 = VERTEX_POINT ( 'NONE', #1075 ) ;
#96 = ADVANCED_FACE ( 'NONE', ( #1179 ), #760, .T. ) ;
#97 = DIRECTION ( 'NONE',  ( -0.4999999999999997780, 0.8660254037844387076, 0.000000000000000000 ) ) ;
#98 = CARTESIAN_POINT ( 'NONE',  ( 17.32050807568877815, -10.00000000000000000, -1.925757010941599567 ) ) ;
#99 = DIRECTION ( 'NONE',  ( 0.000000000000000000, 0.000000000000000000, 1.000000000000000000 ) ) ;
#100 = ORIENTED_EDGE ( 'NONE', *, *, #1111, .T. ) ;
#101 = ORIENTED_EDGE ( 'NONE', *, *, #1226, .T. ) ;
#102 = CARTESIAN_POINT ( 'NONE',  ( -17.32050807568877815, -10.00000000000000533, 2.074242989058400877 ) ) ;
#103 = CC_DESIGN_DATE_AND_TIME_ASSIGNMENT ( #222, #1120, ( #492 ) ) ;
#104 = ORIENTED_EDGE ( 'NONE', *, *, #1191, .F. ) ;
#105 = AXIS2_PLACEMENT_3D ( 'NONE', #754, #676, #370 ) ;
#106 = ORIENTED_EDGE ( 'NONE', *, *, #1279, .T. ) ;
#107 = DIRECTION ( 'NONE',  ( 0.5000000000000003331, 0.8660254037844387076, 0.000000000000000000 ) ) ;
#108 = CARTESIAN_POINT ( 'NONE',  ( 17.32050807568864315, -20.00000000000000355, 2.074242989058400877 ) ) ;
#109 = EDGE_LOOP ( 'NONE', ( #74, #716, #1205, #196 ) ) ;
#110 = VECTOR ( 'NONE', #1308, 1000.000000000000114 ) ;
#111 = AXIS2_PLACEMENT_3D ( 'NONE', #207, #520, #1122 ) ;
#112 = DIRECTION ( 'NONE',  ( -0.000000000000000000, -0.000000000000000000, -1.000000000000000000 ) ) ;
#113 = ADVANCED_FACE ( 'NONE', ( #1278 ), #966, .F. ) ;
#114 = DIRECTION ( 'NONE',  ( 1.000000000000000000, -1.001543065824780494E-16, 0.000000000000000000 ) ) ;
#115 = ORIENTED_EDGE ( 'NONE', *, *, #559, .T. ) ;
#116 = CARTESIAN_POINT ( 'NONE',  ( -5.196152422706670215, 22.99999999999994316, -1.925757010941599567 ) ) ;
#117 = EDGE_LOOP ( 'NONE', ( #334, #804, #517, #912 ) ) ;
#118 = VERTEX_POINT ( 'NONE', #465 ) ;
#119 = ORIENTED_EDGE ( 'NONE', *, *, #419, .F. ) ;
#120 = CARTESIAN_POINT ( 'NONE',  ( 22.51666049839534267, -6.999999999999886313, 4.074242989058400433 ) ) ;
#121 = DIRECTION ( 'NONE',  ( 1.000000000000000000, 1.387778780781445676E-14, 0.000000000000000000 ) ) ;
#122 = VERTEX_POINT ( 'NONE', #654 ) ;
#123 = VERTEX_POINT ( 'NONE', #1265 ) ;
#124 = FACE_OUTER_BOUND ( 'NONE', #29, .T. ) ;
#125 = EDGE_CURVE ( 'NONE', #542, #558, #532, .T. ) ;
#126 = VERTEX_POINT ( 'NONE', #571 ) ;
#127 = AXIS2_PLACEMENT_3D ( 'NONE', #1287, #980, #877 ) ;
#128 = AXIS2_PLACEMENT_3D ( 'NONE', #72, #1087, #757 ) ;
#129 = LOCAL_TIME ( 14, 17, 28.00000000000000000, #14 ) ;
#130 = AXIS2_PLACEMENT_3D ( 'NONE', #1250, #518, #1045 ) ;
#131 = DIRECTION ( 'NONE',  ( -0.000000000000000000, -0.000000000000000000, -1.000000000000000000 ) ) ;
#132 = ORIENTED_EDGE ( 'NONE', *, *, #344, .F. ) ;
#133 = DIRECTION ( 'NONE',  ( -1.001543065824777659E-16, -1.000000000000000000, 0.000000000000000000 ) ) ;
#134 = VERTEX_POINT ( 'NONE', #856 ) ;
#135 = EDGE_CURVE ( 'NONE', #919, #1123, #955, .T. ) ;
#136 = VERTEX_POINT ( 'NONE', #53 ) ;
#137 = CARTESIAN_POINT ( 'NONE',  ( 5.196152422706702190, 22.99999999999990052, 2.074242989058400877 ) ) ;
#138 = DIRECTION ( 'NONE',  ( 0.000000000000000000, 0.000000000000000000, 1.000000000000000000 ) ) ;
#139 = LINE ( 'NONE', #446, #703 ) ;
#140 = EDGE_CURVE ( 'NONE', #1225, #923, #338, .T. ) ;
#141 = ADVANCED_FACE ( 'NONE', ( #1173 ), #663, .F. ) ;
#142 = DIRECTION ( 'NONE',  ( 1.000000000000000000, 0.000000000000000000, 0.000000000000000000 ) ) ;
#143 = ORIENTED_EDGE ( 'NONE', *, *, #240, .F. ) ;
#144 = DIRECTION ( 'NONE',  ( -0.000000000000000000, -0.000000000000000000, 1.000000000000000000 ) ) ;
#145 = DIRECTION ( 'NONE',  ( 0.000000000000000000, 0.000000000000000000, -1.000000000000000000 ) ) ;
#146 = AXIS2_PLACEMENT_3D ( 'NONE', #358, #460, #965 ) ;
#147 = ORIENTED_EDGE ( 'NONE', *, *, #320, .F. ) ;
#148 = AXIS2_PLACEMENT_3D ( 'NONE', #1273, #355, #767 ) ;
#149 = EDGE_CURVE ( 'NONE', #118, #497, #1065, .T. ) ;
#150 = AXIS2_PLACEMENT_3D ( 'NONE', #1146, #151, #862 ) ;
#151 = DIRECTION ( 'NONE',  ( 1.000000000000000000, -1.301042606982605479E-14, -1.301042606982605794E-14 ) ) ;
#152 = LINE ( 'NONE', #1176, #488 ) ;
#153 = DIRECTION ( 'NONE',  ( -1.000000000000000000, 0.000000000000000000, 0.000000000000000000 ) ) ;
#154 = EDGE_LOOP ( 'NONE', ( #424, #710 ) ) ;
#155 = EDGE_CURVE ( 'NONE', #923, #999, #474, .T. ) ;
#156 = APPROVAL_STATUS ( 'not_yet_approved' ) ;
#157 = DIRECTION ( 'NONE',  ( 1.000000000000000000, 0.000000000000000000, 0.000000000000000000 ) ) ;
#158 = FACE_OUTER_BOUND ( 'NONE', #584, .T. ) ;
#159 = DIRECTION ( 'NONE',  ( 1.000000000000000000, 0.000000000000000000, 0.000000000000000000 ) ) ;
#160 = CYLINDRICAL_SURFACE ( 'NONE', #785, 5.999999999999994671 ) ;
#161 = LINE ( 'NONE', #545, #45 ) ;
#162 = APPROVAL_ROLE ( '' ) ;
#163 = DIRECTION ( 'NONE',  ( -1.000000000000000000, 0.000000000000000000, 0.000000000000000000 ) ) ;
#164 = CARTESIAN_POINT ( 'NONE',  ( 5.196152422706702190, 22.99999999999990052, -1.925757010941599567 ) ) ;
#165 = ADVANCED_FACE ( 'NONE', ( #441 ), #1274, .F. ) ;
#166 = DIRECTION ( 'NONE',  ( -1.000000000000000000, 0.000000000000000000, 0.000000000000000000 ) ) ;
#167 = DIRECTION ( 'NONE',  ( -0.8660254037844455910, 0.4999999999999882871, 0.000000000000000000 ) ) ;
#168 = DIRECTION ( 'NONE',  ( -0.5000000000000112133, 0.8660254037844323793, 1.304670251890301388E-14 ) ) ;
#169 = VECTOR ( 'NONE', #511, 1000.000000000000000 ) ;
#170 = AXIS2_PLACEMENT_3D ( 'NONE', #1269, #758, #573 ) ;
#171 = VECTOR ( 'NONE', #945, 1000.000000000000000 ) ;
#172 = CC_DESIGN_APPROVAL ( #1060, ( #492 ) ) ;
#173 = AXIS2_PLACEMENT_3D ( 'NONE', #733, #727, #930 ) ;
#174 = DIRECTION ( 'NONE',  ( -1.000000000000000000, 0.000000000000000000, 0.000000000000000000 ) ) ;
#175 = DIRECTION ( 'NONE',  ( -0.000000000000000000, -0.000000000000000000, -1.000000000000000000 ) ) ;
#176 = VECTOR ( 'NONE', #1228, 1000.000000000000114 ) ;
#177 = VERTEX_POINT ( 'NONE', #242 ) ;
#178 = EDGE_CURVE ( 'NONE', #304, #832, #87, .T. ) ;
#179 = FACE_OUTER_BOUND ( 'NONE', #769, .T. ) ;
#180 = DIRECTION ( 'NONE',  ( 1.000000000000000000, 0.000000000000000000, 0.000000000000000000 ) ) ;
#181 = CARTESIAN_POINT ( 'NONE',  ( -17.32050807568863604, -20.00000000000000000, 8.074242989058399544 ) ) ;
#182 = APPROVAL ( #289, 'Î´Ö' ) ;
#183 = CARTESIAN_POINT ( 'NONE',  ( 5.196152422706703966, 22.99999999999989697, 3.074242989058400877 ) ) ;
#184 = EDGE_CURVE ( 'NONE', #546, #1123, #193, .T. ) ;
#185 = VERTEX_POINT ( 'NONE', #1095 ) ;
#186 = DIRECTION ( 'NONE',  ( 1.001543065824780494E-16, 1.000000000000000000, -0.000000000000000000 ) ) ;
#187 = ORIENTED_EDGE ( 'NONE', *, *, #753, .T. ) ;
#188 = FACE_OUTER_BOUND ( 'NONE', #230, .T. ) ;
#189 = ADVANCED_BREP_SHAPE_REPRESENTATION ( '\X2\96f64ef6\X0\2', ( #1097, #927 ), #1168 ) ;
#190 = ORIENTED_EDGE ( 'NONE', *, *, #1229, .T. ) ;
#191 = CIRCLE ( 'NONE', #722, 4.000000000000000888 ) ;
#192 = LOCAL_TIME ( 14, 17, 28.00000000000000000, #442 ) ;
#193 = CIRCLE ( 'NONE', #1281, 6.000000000000001776 ) ;
#194 = DIRECTION ( 'NONE',  ( -0.4999999999999997780, -0.8660254037844387076, 0.000000000000000000 ) ) ;
#195 = DIRECTION ( 'NONE',  ( 1.000000000000000000, 0.000000000000000000, 0.000000000000000000 ) ) ;
#196 = ORIENTED_EDGE ( 'NONE', *, *, #529, .T. ) ;
#197 = CARTESIAN_POINT ( 'NONE',  ( -17.32050807568863604, -16.00000000000000000, -1.925757010941599567 ) ) ;
#198 = ORIENTED_EDGE ( 'NONE', *, *, #1221, .F. ) ;
#199 = ADVANCED_FACE ( 'NONE', ( #602 ), #1040, .F. ) ;
#200 = CARTESIAN_POINT ( 'NONE',  ( 3.335262747169070467E-15, 20.00000000000001776, 2.074242989058400877 ) ) ;
#201 = ORIENTED_EDGE ( 'NONE', *, *, #229, .F. ) ;
#202 = DIRECTION ( 'NONE',  ( -1.387778780781445991E-14, 0.000000000000000000, 1.000000000000000000 ) ) ;
#203 = FACE_OUTER_BOUND ( 'NONE', #456, .T. ) ;
#204 = ORIENTED_EDGE ( 'NONE', *, *, #353, .T. ) ;
#205 = PERSON_AND_ORGANIZATION ( #798, #724 ) ;
#206 = EDGE_CURVE ( 'NONE', #389, #304, #1294, .T. ) ;
#207 = CARTESIAN_POINT ( 'NONE',  ( 17.32050807568877815, -10.00000000000000000, 7.074242989058401321 ) ) ;
#208 = ORIENTED_EDGE ( 'NONE', *, *, #1235, .T. ) ;
#209 = VECTOR ( 'NONE', #842, 1000.000000000000114 ) ;
#210 = ORIENTED_EDGE ( 'NONE', *, *, #184, .F. ) ;
#211 = FACE_OUTER_BOUND ( 'NONE', #1133, .T. ) ;
#212 = FACE_OUTER_BOUND ( 'NONE', #1090, .T. ) ;
#213 = EDGE_LOOP ( 'NONE', ( #911, #428, #833, #858 ) ) ;
#214 = PERSON_AND_ORGANIZATION_ROLE ( 'classification_officer' ) ;
#215 = TOROIDAL_SURFACE ( 'NONE', #1258, 11.00000000000000000, 4.000000000000000000 ) ;
#216 = CC_DESIGN_APPROVAL ( #182, ( #638 ) ) ;
#217 = AXIS2_PLACEMENT_3D ( 'NONE', #1, #99, #1305 ) ;
#218 = EDGE_CURVE ( 'NONE', #500, #808, #269, .T. ) ;
#219 = CARTESIAN_POINT ( 'NONE',  ( 19.05255888325761759, -8.999999999999932498, 3.074242989058400877 ) ) ;
#220 = EDGE_LOOP ( 'NONE', ( #43, #1098, #827, #1137 ) ) ;
#221 = ORIENTED_EDGE ( 'NONE', *, *, #735, .F. ) ;
#222 = DATE_AND_TIME ( #847, #192 ) ;
#223 = LINE ( 'NONE', #1246, #666 ) ;
#224 = EDGE_CURVE ( 'NONE', #177, #531, #1002, .T. ) ;
#225 = DIRECTION ( 'NONE',  ( -0.000000000000000000, -0.000000000000000000, 1.000000000000000000 ) ) ;
#226 = ORIENTED_EDGE ( 'NONE', *, *, #822, .T. ) ;
#227 = VERTEX_POINT ( 'NONE', #281 ) ;
#228 = DIRECTION ( 'NONE',  ( -1.000000000000000000, 0.000000000000000000, 0.000000000000000000 ) ) ;
#229 = EDGE_CURVE ( 'NONE', #919, #403, #1068, .T. ) ;
#230 = EDGE_LOOP ( 'NONE', ( #328, #747, #628, #528 ) ) ;
#231 = CARTESIAN_POINT ( 'NONE',  ( 17.32050807568877815, -10.00000000000000000, 2.074242989058400877 ) ) ;
#232 = VERTEX_POINT ( 'NONE', #1180 ) ;
#233 = TOROIDAL_SURFACE ( 'NONE', #969, 2.000000000000001776, 4.000000000000000000 ) ;
#234 = VECTOR ( 'NONE', #1049, 1000.000000000000000 ) ;
#235 = AXIS2_PLACEMENT_3D ( 'NONE', #380, #78, #807 ) ;
#236 = AXIS2_PLACEMENT_3D ( 'NONE', #1110, #502, #978 ) ;
#237 = VECTOR ( 'NONE', #64, 1000.000000000000000 ) ;
#238 = APPLICATION_PROTOCOL_DEFINITION ( 'international standard', 'config_control_design', 1994, #48 ) ;
#239 = APPROVAL_DATE_TIME ( #812, #182 ) ;
#240 = EDGE_CURVE ( 'NONE', #594, #123, #1220, .T. ) ;
#241 = FACE_OUTER_BOUND ( 'NONE', #802, .T. ) ;
#242 = CARTESIAN_POINT ( 'NONE',  ( -5.196152422706670215, 22.99999999999994316, 8.074242989058399544 ) ) ;
#243 = DIRECTION ( 'NONE',  ( -1.000000000000000000, 0.000000000000000000, 0.000000000000000000 ) ) ;
#244 = CARTESIAN_POINT ( 'NONE',  ( 17.32050807568877815, -10.00000000000000000, 3.074242989058400877 ) ) ;
#245 = ORIENTED_EDGE ( 'NONE', *, *, #1154, .T. ) ;
#246 = LINE ( 'NONE', #1052, #743 ) ;
#247 = CARTESIAN_POINT ( 'NONE',  ( -8.660254037844451247, 24.99999999999989697, 8.074242989058399544 ) ) ;
#248 = EDGE_CURVE ( 'NONE', #815, #542, #1079, .T. ) ;
#249 = ORIENTED_EDGE ( 'NONE', *, *, #385, .F. ) ;
#250 = LINE ( 'NONE', #197, #404 ) ;
#251 = DIRECTION ( 'NONE',  ( 0.000000000000000000, 0.000000000000000000, 1.000000000000000000 ) ) ;
#252 = CARTESIAN_POINT ( 'NONE',  ( -5.000000000000001776, -2.677721131907036772E-15, 8.074242989058399544 ) ) ;
#253 = PLANE ( 'NONE',  #146 ) ;
#254 = CARTESIAN_POINT ( 'NONE',  ( -17.32050807568877815, -10.00000000000000533, 8.074242989058399544 ) ) ;
#255 = AXIS2_PLACEMENT_3D ( 'NONE', #949, #351, #20 ) ;
#256 = ORIENTED_EDGE ( 'NONE', *, *, #908, .F. ) ;
#257 = PRODUCT_RELATED_PRODUCT_CATEGORY ( 'detail', '', ( #393 ) ) ;
#258 = VECTOR ( 'NONE', #175, 1000.000000000000000 ) ;
#259 = AXIS2_PLACEMENT_3D ( 'NONE', #742, #892, #534 ) ;
#260 = PERSON_AND_ORGANIZATION ( #798, #724 ) ;
#261 = CARTESIAN_POINT ( 'NONE',  ( -1.732050807568913608, 20.99999999999994671, 7.074242989058401321 ) ) ;
#262 = CARTESIAN_POINT ( 'NONE',  ( -10.39230484541326760, 5.999999999999993783, 7.074242989058401321 ) ) ;
#263 = DIRECTION ( 'NONE',  ( -0.000000000000000000, -0.000000000000000000, -1.000000000000000000 ) ) ;
#264 = DIRECTION ( 'NONE',  ( 0.4999999999999997780, -0.8660254037844387076, -0.000000000000000000 ) ) ;
#265 = FACE_OUTER_BOUND ( 'NONE', #478, .T. ) ;
#266 = LINE ( 'NONE', #343, #209 ) ;
#267 = CARTESIAN_POINT ( 'NONE',  ( 8.660254037844458352, 24.99999999999989697, 4.074242989058400433 ) ) ;
#268 = CARTESIAN_POINT ( 'NONE',  ( -23.32050807568877104, -10.00000000000000533, 4.074242989058400433 ) ) ;
#269 = LINE ( 'NONE', #590, #1283 ) ;
#270 = DIRECTION ( 'NONE',  ( 0.4999999999999999445, 0.8660254037844388186, 0.000000000000000000 ) ) ;
#271 = EDGE_CURVE ( 'NONE', #118, #232, #557, .T. ) ;
#272 = CARTESIAN_POINT ( 'NONE',  ( 22.51666049839537109, -6.999999999999930722, 2.074242989058400877 ) ) ;
#273 = CIRCLE ( 'NONE', #1063, 6.000000000000001776 ) ;
#274 = CIRCLE ( 'NONE', #970, 4.000000000000000000 ) ;
#275 = CIRCLE ( 'NONE', #665, 4.000000000000000000 ) ;
#276 = VERTEX_POINT ( 'NONE', #388 ) ;
#277 = CIRCLE ( 'NONE', #1238, 4.000000000000000000 ) ;
#278 = CARTESIAN_POINT ( 'NONE',  ( 22.51666049839537109, -6.999999999999931610, 3.074242989058400877 ) ) ;
#279 = CARTESIAN_POINT ( 'NONE',  ( 17.32050807568877815, -10.00000000000000000, 3.074242989058400877 ) ) ;
#280 = EDGE_CURVE ( 'NONE', #611, #500, #491, .T. ) ;
#281 = CARTESIAN_POINT ( 'NONE',  ( -19.05255888325762825, -8.999999999999971578, 3.074242989058400877 ) ) ;
#282 = ORIENTED_EDGE ( 'NONE', *, *, #1183, .T. ) ;
#283 = ORIENTED_EDGE ( 'NONE', *, *, #320, .T. ) ;
#284 = FACE_OUTER_BOUND ( 'NONE', #503, .T. ) ;
#285 = DIRECTION ( 'NONE',  ( 1.000000000000000000, 0.000000000000000000, 0.000000000000000000 ) ) ;
#286 = EDGE_CURVE ( 'NONE', #600, #936, #302, .T. ) ;
#287 = DIRECTION ( 'NONE',  ( -0.000000000000000000, -0.000000000000000000, -1.000000000000000000 ) ) ;
#288 = VERTEX_POINT ( 'NONE', #587 ) ;
#289 = APPROVAL_STATUS ( 'not_yet_approved' ) ;
#290 = CARTESIAN_POINT ( 'NONE',  ( -11.00000000000000178, -1.330609652844948565E-15, 3.074242989058401321 ) ) ;
#291 = ORIENTED_EDGE ( 'NONE', *, *, #770, .F. ) ;
#292 = FACE_OUTER_BOUND ( 'NONE', #535, .T. ) ;
#293 = DIRECTION ( 'NONE',  ( -0.000000000000000000, -0.000000000000000000, -1.000000000000000000 ) ) ;
#294 = CALENDAR_DATE ( 2026, 17, 8 ) ;
#295 = DESIGN_CONTEXT ( 'detailed design', #48, 'design' ) ;
#296 = DIRECTION ( 'NONE',  ( 0.000000000000000000, 0.000000000000000000, 1.000000000000000000 ) ) ;
#297 = AXIS2_PLACEMENT_3D ( 'NONE', #1153, #643, #1067 ) ;
#298 = ORIENTED_EDGE ( 'NONE', *, *, #46, .F. ) ;
#299 = AXIS2_PLACEMENT_3D ( 'NONE', #589, #348, #1185 ) ;
#300 = VECTOR ( 'NONE', #71, 1000.000000000000000 ) ;
#301 = CYLINDRICAL_SURFACE ( 'NONE', #1211, 4.000000000000000000 ) ;
#302 = CIRCLE ( 'NONE', #814, 5.000000000000000000 ) ;
#303 = ORIENTED_EDGE ( 'NONE', *, *, #614, .T. ) ;
#304 = VERTEX_POINT ( 'NONE', #372 ) ;
#305 = LINE ( 'NONE', #1311, #1296 ) ;
#306 = VERTEX_POINT ( 'NONE', #582 ) ;
#307 = CARTESIAN_POINT ( 'NONE',  ( 22.51666049839537109, -6.999999999999931610, 8.074242989058399544 ) ) ;
#308 = ADVANCED_FACE ( 'NONE', ( #996 ), #1193, .T. ) ;
#309 = CARTESIAN_POINT ( 'NONE',  ( -7.000000000000001776, -2.677721131907036772E-15, 8.074242989058399544 ) ) ;
#310 = ORIENTED_EDGE ( 'NONE', *, *, #1191, .T. ) ;
#311 = ORIENTED_EDGE ( 'NONE', *, *, #344, .T. ) ;
#312 = CARTESIAN_POINT ( 'NONE',  ( -27.32050807568877104, -10.00000000000000533, 4.074242989058400433 ) ) ;
#313 = CIRCLE ( 'NONE', #1280, 5.999999999999998224 ) ;
#314 = ORIENTED_EDGE ( 'NONE', *, *, #982, .F. ) ;
#315 = CARTESIAN_POINT ( 'NONE',  ( -23.32050807568877104, -10.00000000000000533, 2.074242989058400877 ) ) ;
#316 = DIRECTION ( 'NONE',  ( 0.4999999999999997224, -0.8660254037844387076, -0.000000000000000000 ) ) ;
#317 = ORIENTED_EDGE ( 'NONE', *, *, #1111, .F. ) ;
#318 = AXIS2_PLACEMENT_3D ( 'NONE', #472, #270, #942 ) ;
#319 = AXIS2_PLACEMENT_3D ( 'NONE', #461, #776, #145 ) ;
#320 = EDGE_CURVE ( 'NONE', #494, #1292, #619, .T. ) ;
#321 = CIRCLE ( 'NONE', #150, 4.000000000000000000 ) ;
#322 = CIRCLE ( 'NONE', #1171, 5.999999999999998224 ) ;
#323 = EDGE_CURVE ( 'NONE', #843, #134, #685, .T. ) ;
#324 = CARTESIAN_POINT ( 'NONE',  ( -17.32050807568877815, -10.00000000000000533, 2.074242989058400877 ) ) ;
#325 = ORIENTED_EDGE ( 'NONE', *, *, #1024, .F. ) ;
#326 = ADVANCED_FACE ( 'NONE', ( #1186 ), #47, .F. ) ;
#327 = FACE_OUTER_BOUND ( 'NONE', #979, .T. ) ;
#328 = ORIENTED_EDGE ( 'NONE', *, *, #844, .T. ) ;
#329 = EDGE_LOOP ( 'NONE', ( #411, #792, #1019, #89 ) ) ;
#330 = CARTESIAN_POINT ( 'NONE',  ( -22.51666049839533912, -6.999999999999894307, 8.074242989058399544 ) ) ;
#331 = ORIENTED_EDGE ( 'NONE', *, *, #806, .F. ) ;
#332 = ADVANCED_FACE ( 'NONE', ( #916 ), #1023, .F. ) ;
#333 = CARTESIAN_POINT ( 'NONE',  ( 5.196152422706703966, 22.99999999999989697, 7.074242989058401321 ) ) ;
#334 = ORIENTED_EDGE ( 'NONE', *, *, #149, .F. ) ;
#335 = ORIENTED_EDGE ( 'NONE', *, *, #323, .T. ) ;
#336 = AXIS2_PLACEMENT_3D ( 'NONE', #653, #1155, #166 ) ;
#337 = DIRECTION ( 'NONE',  ( -1.000000000000000000, 0.000000000000000000, 0.000000000000000000 ) ) ;
#338 = CIRCLE ( 'NONE', #148, 6.000000000000001776 ) ;
#339 = AXIS2_PLACEMENT_3D ( 'NONE', #1020, #713, #635 ) ;
#340 = ORIENTED_EDGE ( 'NONE', *, *, #1252, .T. ) ;
#341 = DIRECTION ( 'NONE',  ( -0.8660254037844388186, 0.4999999999999998335, 0.000000000000000000 ) ) ;
#342 = FACE_OUTER_BOUND ( 'NONE', #1241, .T. ) ;
#343 = CARTESIAN_POINT ( 'NONE',  ( 22.51666049839534267, -6.999999999999885425, -1.925757010941599567 ) ) ;
#344 = EDGE_CURVE ( 'NONE', #594, #118, #223, .T. ) ;
#345 = CARTESIAN_POINT ( 'NONE',  ( -17.32050807568877815, -10.00000000000000533, 3.074242989058400877 ) ) ;
#346 = DIRECTION ( 'NONE',  ( 1.224646799147353207E-16, 1.000000000000000000, -0.000000000000000000 ) ) ;
#347 = ORIENTED_EDGE ( 'NONE', *, *, #541, .T. ) ;
#348 = DIRECTION ( 'NONE',  ( -0.000000000000000000, -0.000000000000000000, -1.000000000000000000 ) ) ;
#349 = CARTESIAN_POINT ( 'NONE',  ( 5.196152422706676433, 22.99999999999994316, 4.074242989058400433 ) ) ;
#350 = DIRECTION ( 'NONE',  ( -0.000000000000000000, -0.000000000000000000, -1.000000000000000000 ) ) ;
#351 = DIRECTION ( 'NONE',  ( -0.4999999999999999445, -0.8660254037844388186, 0.000000000000000000 ) ) ;
#352 = LINE ( 'NONE', #864, #845 ) ;
#353 = EDGE_CURVE ( 'NONE', #95, #16, #597, .T. ) ;
#354 = CARTESIAN_POINT ( 'NONE',  ( -17.32050807568868933, -16.00000000000000000, 3.074242989058400877 ) ) ;
#355 = DIRECTION ( 'NONE',  ( -0.000000000000000000, -0.000000000000000000, -1.000000000000000000 ) ) ;
#356 =( NAMED_UNIT ( * ) SI_UNIT ( $, .STERADIAN. ) SOLID_ANGLE_UNIT ( ) );
#357 = CARTESIAN_POINT ( 'NONE',  ( 25.98076211353309617, -4.999999999999887201, 4.074242989058400433 ) ) ;
#358 = CARTESIAN_POINT ( 'NONE',  ( 17.32050807568877815, -10.00000000000000000, 3.074242989058400877 ) ) ;
#359 = CARTESIAN_POINT ( 'NONE',  ( 22.51666049839537109, -6.999999999999931610, 3.074242989058400877 ) ) ;
#360 = TOROIDAL_SURFACE ( 'NONE', #105, 5.999999999999994671, 4.000000000000000000 ) ;
#361 = CIRCLE ( 'NONE', #633, 2.000000000000001776 ) ;
#362 = EDGE_CURVE ( 'NONE', #991, #1123, #92, .T. ) ;
#363 = TOROIDAL_SURFACE ( 'NONE', #1216, 5.999999999999998224, 4.000000000000000000 ) ;
#364 = FACE_OUTER_BOUND ( 'NONE', #109, .T. ) ;
#365 = DIRECTION ( 'NONE',  ( 0.000000000000000000, 0.000000000000000000, 1.000000000000000000 ) ) ;
#366 = VERTEX_POINT ( 'NONE', #414 ) ;
#367 = FACE_OUTER_BOUND ( 'NONE', #30, .T. ) ;
#368 = ADVANCED_FACE ( 'NONE', ( #1231 ), #376, .F. ) ;
#369 = CARTESIAN_POINT ( 'NONE',  ( -1.359513603553773432E-15, -2.677721131907036772E-15, 8.074242989058399544 ) ) ;
#370 = DIRECTION ( 'NONE',  ( -1.000000000000000000, 0.000000000000000000, 0.000000000000000000 ) ) ;
#371 = DIRECTION ( 'NONE',  ( 0.000000000000000000, 0.000000000000000000, 1.000000000000000000 ) ) ;
#372 = CARTESIAN_POINT ( 'NONE',  ( 5.196152422706703966, 22.99999999999989697, 8.074242989058399544 ) ) ;
#373 = CC_DESIGN_PERSON_AND_ORGANIZATION_ASSIGNMENT ( #941, #37, ( #492 ) ) ;
#374 = ORIENTED_EDGE ( 'NONE', *, *, #395, .F. ) ;
#375 = EDGE_CURVE ( 'NONE', #1033, #692, #277, .T. ) ;
#376 = CYLINDRICAL_SURFACE ( 'NONE', #850, 5.999999999999998224 ) ;
#377 = ORIENTED_EDGE ( 'NONE', *, *, #240, .T. ) ;
#378 = CARTESIAN_POINT ( 'NONE',  ( 19.32050807568877815, -10.00000000000000000, 7.074242989058401321 ) ) ;
#379 = CIRCLE ( 'NONE', #1142, 9.999999999999994671 ) ;
#380 = CARTESIAN_POINT ( 'NONE',  ( 3.335262747169070467E-15, 20.00000000000001776, 7.074242989058401321 ) ) ;
#381 = AXIS2_PLACEMENT_3D ( 'NONE', #1004, #107, #510 ) ;
#382 = AXIS2_PLACEMENT_3D ( 'NONE', #1156, #664, #448 ) ;
#383 = ORIENTED_EDGE ( 'NONE', *, *, #1309, .T. ) ;
#384 = AXIS2_PLACEMENT_3D ( 'NONE', #1030, #114, #415 ) ;
#385 = EDGE_CURVE ( 'NONE', #185, #808, #1017, .T. ) ;
#386 = CARTESIAN_POINT ( 'NONE',  ( 17.32050807568877815, -10.00000000000000000, 7.074242989058401321 ) ) ;
#387 = CARTESIAN_POINT ( 'NONE',  ( -1.359513603553773432E-15, -2.677721131907036772E-15, 8.074242989058399544 ) ) ;
#388 = CARTESIAN_POINT ( 'NONE',  ( -5.196152422706670215, 22.99999999999994316, 7.074242989058401321 ) ) ;
#389 = VERTEX_POINT ( 'NONE', #333 ) ;
#390 = DIRECTION ( 'NONE',  ( -1.000000000000000000, 0.000000000000000000, 0.000000000000000000 ) ) ;
#391 = ORIENTED_EDGE ( 'NONE', *, *, #964, .T. ) ;
#392 = DIRECTION ( 'NONE',  ( -0.000000000000000000, -0.000000000000000000, -1.000000000000000000 ) ) ;
#393 = PRODUCT ( '\X2\96f64ef6\X0\2', '\X2\96f64ef6\X0\2', '', ( #54 ) ) ;
#394 = ORIENTED_EDGE ( 'NONE', *, *, #844, .F. ) ;
#395 = EDGE_CURVE ( 'NONE', #718, #999, #707, .T. ) ;
#396 = DIRECTION ( 'NONE',  ( -0.000000000000000000, -0.000000000000000000, -1.000000000000000000 ) ) ;
#397 = CARTESIAN_POINT ( 'NONE',  ( -5.196152422706670215, 22.99999999999994316, 8.074242989058399544 ) ) ;
#398 = ORIENTED_EDGE ( 'NONE', *, *, #1127, .F. ) ;
#399 = ORIENTED_EDGE ( 'NONE', *, *, #521, .F. ) ;
#400 = DIRECTION ( 'NONE',  ( -0.000000000000000000, -0.000000000000000000, -1.000000000000000000 ) ) ;
#401 = EDGE_CURVE ( 'NONE', #1026, #989, #973, .T. ) ;
#402 = VECTOR ( 'NONE', #569, 1000.000000000000000 ) ;
#403 = VERTEX_POINT ( 'NONE', #219 ) ;
#404 = VECTOR ( 'NONE', #656, 1000.000000000000000 ) ;
#405 = VECTOR ( 'NONE', #890, 1000.000000000000114 ) ;
#406 = ORIENTED_EDGE ( 'NONE', *, *, #155, .F. ) ;
#407 = DIRECTION ( 'NONE',  ( -1.000000000000000000, 1.001543065824780494E-16, 0.000000000000000000 ) ) ;
#408 = AXIS2_PLACEMENT_3D ( 'NONE', #620, #1276, #1262 ) ;
#409 = LINE ( 'NONE', #1121, #704 ) ;
#410 = ADVANCED_FACE ( 'NONE', ( #840 ), #920, .T. ) ;
#411 = ORIENTED_EDGE ( 'NONE', *, *, #395, .T. ) ;
#412 = ORIENTED_EDGE ( 'NONE', *, *, #149, .T. ) ;
#413 = COORDINATED_UNIVERSAL_TIME_OFFSET ( 8, 0, .AHEAD. ) ;
#414 = CARTESIAN_POINT ( 'NONE',  ( -19.32050807568877104, -10.00000000000000533, 3.074242989058400877 ) ) ;
#415 = DIRECTION ( 'NONE',  ( 0.000000000000000000, 1.000000000000000000, 0.000000000000000000 ) ) ;
#416 = ORIENTED_EDGE ( 'NONE', *, *, #1221, .T. ) ;
#417 = ORIENTED_EDGE ( 'NONE', *, *, #975, .F. ) ;
#418 = CARTESIAN_POINT ( 'NONE',  ( -8.660254037844451247, 24.99999999999989697, 2.074242989058400877 ) ) ;
#419 = EDGE_CURVE ( 'NONE', #276, #389, #749, .T. ) ;
#420 = ORIENTED_EDGE ( 'NONE', *, *, #248, .T. ) ;
#421 = DIRECTION ( 'NONE',  ( -1.000000000000000000, 0.000000000000000000, 0.000000000000000000 ) ) ;
#422 = ORIENTED_EDGE ( 'NONE', *, *, #375, .T. ) ;
#423 = DIRECTION ( 'NONE',  ( -1.000000000000000000, 0.000000000000000000, 0.000000000000000000 ) ) ;
#424 = ORIENTED_EDGE ( 'NONE', *, *, #933, .F. ) ;
#425 = SHAPE_DEFINITION_REPRESENTATION ( #499, #189 ) ;
#426 = AXIS2_PLACEMENT_3D ( 'NONE', #247, #65, #852 ) ;
#427 = EDGE_CURVE ( 'NONE', #1225, #546, #1253, .T. ) ;
#428 = ORIENTED_EDGE ( 'NONE', *, *, #636, .F. ) ;
#429 = AXIS2_PLACEMENT_3D ( 'NONE', #736, #186, #15 ) ;
#430 = DIRECTION ( 'NONE',  ( 0.4999999999999998890, -0.8660254037844387076, 0.000000000000000000 ) ) ;
#431 = FACE_OUTER_BOUND ( 'NONE', #1187, .T. ) ;
#432 = ORIENTED_EDGE ( 'NONE', *, *, #793, .T. ) ;
#433 = ORIENTED_EDGE ( 'NONE', *, *, #271, .T. ) ;
#434 = DIRECTION ( 'NONE',  ( 0.8660254037844389297, 0.4999999999999995559, 0.000000000000000000 ) ) ;
#435 = ORIENTED_EDGE ( 'NONE', *, *, #1135, .T. ) ;
#436 = CALENDAR_DATE ( 2026, 17, 8 ) ;
#437 = CARTESIAN_POINT ( 'NONE',  ( 17.32050807568877815, -10.00000000000000000, 2.074242989058400877 ) ) ;
#438 = EDGE_LOOP ( 'NONE', ( #187, #435, #1295, #1266 ) ) ;
#439 = ORIENTED_EDGE ( 'NONE', *, *, #871, .T. ) ;
#440 = EDGE_CURVE ( 'NONE', #136, #1182, #1302, .T. ) ;
#441 = FACE_OUTER_BOUND ( 'NONE', #1086, .T. ) ;
#442 = COORDINATED_UNIVERSAL_TIME_OFFSET ( 8, 0, .AHEAD. ) ;
#443 = DIRECTION ( 'NONE',  ( -0.8660254037844389297, 0.4999999999999994449, 0.000000000000000000 ) ) ;
#444 = DIRECTION ( 'NONE',  ( -0.4999999999999998890, -0.8660254037844387076, 0.000000000000000000 ) ) ;
#445 = CIRCLE ( 'NONE', #2, 4.000000000000000000 ) ;
#446 = CARTESIAN_POINT ( 'NONE',  ( 19.05255888325765667, -9.000000000000000000, 3.074242989058400877 ) ) ;
#447 = AXIS2_PLACEMENT_3D ( 'NONE', #278, #1116, #97 ) ;
#448 = DIRECTION ( 'NONE',  ( 1.000000000000000000, 0.000000000000000000, -0.000000000000000000 ) ) ;
#449 = CIRCLE ( 'NONE', #705, 4.000000000000000000 ) ;
#450 = VECTOR ( 'NONE', #1196, 1000.000000000000227 ) ;
#451 = ADVANCED_FACE ( 'NONE', ( #327 ), #524, .T. ) ;
#452 = CARTESIAN_POINT ( 'NONE',  ( -22.51666049839533912, -6.999999999999894307, 7.074242989058401321 ) ) ;
#453 = ORIENTED_EDGE ( 'NONE', *, *, #529, .F. ) ;
#454 = CARTESIAN_POINT ( 'NONE',  ( -17.32050807568868933, -12.00000000000000000, 3.074242989058400877 ) ) ;
#455 = DIRECTION ( 'NONE',  ( -1.000000000000000000, 0.000000000000000000, 0.000000000000000000 ) ) ;
#456 = EDGE_LOOP ( 'NONE', ( #406, #997, #1140, #509 ) ) ;
#457 = FACE_OUTER_BOUND ( 'NONE', #1248, .T. ) ;
#458 = ADVANCED_FACE ( 'NONE', ( #431 ), #836, .F. ) ;
#459 = CARTESIAN_POINT ( 'NONE',  ( 17.32050807568877815, -10.00000000000000000, 7.074242989058401321 ) ) ;
#460 = DIRECTION ( 'NONE',  ( 0.000000000000000000, 0.000000000000000000, 1.000000000000000000 ) ) ;
#461 = CARTESIAN_POINT ( 'NONE',  ( 10.99999999999999822, -2.677721131907036772E-15, 7.074242989058401321 ) ) ;
#462 = VERTEX_POINT ( 'NONE', #516 ) ;
#463 = CARTESIAN_POINT ( 'NONE',  ( -17.32050807568863604, -20.00000000000000000, 2.074242989058400877 ) ) ;
#464 = CARTESIAN_POINT ( 'NONE',  ( -27.32050807568877104, -10.00000000000000533, 2.074242989058400877 ) ) ;
#465 = CARTESIAN_POINT ( 'NONE',  ( -7.000000000000001776, -2.677721131907036772E-15, 7.074242989058401321 ) ) ;
#466 = AXIS2_PLACEMENT_3D ( 'NONE', #1106, #700, #202 ) ;
#467 = EDGE_CURVE ( 'NONE', #1056, #558, #1218, .T. ) ;
#468 = CIRCLE ( 'NONE', #848, 4.000000000000000000 ) ;
#469 = APPROVAL_PERSON_ORGANIZATION ( #668, #1060, #162 ) ;
#470 = AXIS2_PLACEMENT_3D ( 'NONE', #1202, #287, #696 ) ;
#471 = AXIS2_PLACEMENT_3D ( 'NONE', #1232, #1139, #228 ) ;
#472 = CARTESIAN_POINT ( 'NONE',  ( -5.196152422706696861, 22.99999999999990052, 2.074242989058400877 ) ) ;
#473 = CARTESIAN_POINT ( 'NONE',  ( -22.51666049839533912, -6.999999999999894307, 3.074242989058400877 ) ) ;
#474 = LINE ( 'NONE', #1268, #489 ) ;
#475 = DIRECTION ( 'NONE',  ( 1.000000000000000000, 0.000000000000000000, 0.000000000000000000 ) ) ;
#476 = CARTESIAN_POINT ( 'NONE',  ( 3.335262747169070467E-15, 20.00000000000001776, 3.074242989058400877 ) ) ;
#477 = EDGE_CURVE ( 'NONE', #232, #118, #639, .T. ) ;
#478 = EDGE_LOOP ( 'NONE', ( #3, #1136, #80, #841 ) ) ;
#479 = CYLINDRICAL_SURFACE ( 'NONE', #255, 4.000000000000000888 ) ;
#480 = CARTESIAN_POINT ( 'NONE',  ( 17.32050807568877815, -10.00000000000000000, 3.074242989058400877 ) ) ;
#481 = EDGE_CURVE ( 'NONE', #542, #621, #322, .T. ) ;
#482 = ORIENTED_EDGE ( 'NONE', *, *, #218, .F. ) ;
#483 = DIRECTION ( 'NONE',  ( -1.000000000000000000, 0.000000000000000000, 0.000000000000000000 ) ) ;
#484 = ORIENTED_EDGE ( 'NONE', *, *, #505, .T. ) ;
#485 = DIRECTION ( 'NONE',  ( 1.000000000000000000, 0.000000000000000000, -0.000000000000000000 ) ) ;
#486 = AXIS2_PLACEMENT_3D ( 'NONE', #40, #544, #52 ) ;
#487 = CARTESIAN_POINT ( 'NONE',  ( -5.196152422706696861, 22.99999999999990052, -1.925757010941599567 ) ) ;
#488 = VECTOR ( 'NONE', #1076, 1000.000000000000000 ) ;
#489 = VECTOR ( 'NONE', #771, 1000.000000000000000 ) ;
#490 = ORIENTED_EDGE ( 'NONE', *, *, #31, .T. ) ;
#491 = CIRCLE ( 'NONE', #470, 9.999999999999994671 ) ;
#492 = PRODUCT_DEFINITION ( 'Î´', '', #638, #295 ) ;
#493 = DIRECTION ( 'NONE',  ( -1.000000000000000000, 1.301042606982605321E-14, 0.000000000000000000 ) ) ;
#494 = VERTEX_POINT ( 'NONE', #1204 ) ;
#495 = DIRECTION ( 'NONE',  ( -1.000000000000000000, -0.000000000000000000, -0.000000000000000000 ) ) ;
#496 = ORIENTED_EDGE ( 'NONE', *, *, #735, .T. ) ;
#497 = VERTEX_POINT ( 'NONE', #290 ) ;
#498 = DIRECTION ( 'NONE',  ( 1.000000000000000000, 3.469446951953613006E-15, 0.000000000000000000 ) ) ;
#499 = PRODUCT_DEFINITION_SHAPE ( 'NONE', 'NONE',  #492 ) ;
#500 = VERTEX_POINT ( 'NONE', #312 ) ;
#501 = CARTESIAN_POINT ( 'NONE',  ( -19.05255888325762825, -8.999999999999971578, 7.074242989058401321 ) ) ;
#502 = DIRECTION ( 'NONE',  ( -0.000000000000000000, -0.000000000000000000, -1.000000000000000000 ) ) ;
#503 = EDGE_LOOP ( 'NONE', ( #422, #104, #33, #24 ) ) ;
#504 = ORIENTED_EDGE ( 'NONE', *, *, #1032, .F. ) ;
#505 = EDGE_CURVE ( 'NONE', #134, #227, #698, .T. ) ;
#506 = TOROIDAL_SURFACE ( 'NONE', #616, 5.999999999999994671, 4.000000000000000000 ) ;
#507 = ORIENTED_EDGE ( 'NONE', *, *, #1183, .F. ) ;
#508 = AXIS2_PLACEMENT_3D ( 'NONE', #1134, #615, #1016 ) ;
#509 = ORIENTED_EDGE ( 'NONE', *, *, #613, .T. ) ;
#510 = DIRECTION ( 'NONE',  ( -0.8660254037844384856, 0.5000000000000004441, 0.000000000000000000 ) ) ;
#511 = DIRECTION ( 'NONE',  ( 1.000000000000000000, -1.001543065824780494E-16, 0.000000000000000000 ) ) ;
#512 = ORIENTED_EDGE ( 'NONE', *, *, #797, .T. ) ;
#513 = EDGE_CURVE ( 'NONE', #991, #718, #768, .T. ) ;
#514 = DIRECTION ( 'NONE',  ( 0.000000000000000000, 0.000000000000000000, 1.000000000000000000 ) ) ;
#515 = ADVANCED_FACE ( 'NONE', ( #124 ), #530, .F. ) ;
#516 = CARTESIAN_POINT ( 'NONE',  ( 10.99999999999999822, -2.677721131907036772E-15, 3.074242989058401321 ) ) ;
#517 = ORIENTED_EDGE ( 'NONE', *, *, #77, .T. ) ;
#518 = DIRECTION ( 'NONE',  ( -0.4999999999999998335, 0.8660254037844388186, 0.000000000000000000 ) ) ;
#519 = ORIENTED_EDGE ( 'NONE', *, *, #63, .F. ) ;
#520 = DIRECTION ( 'NONE',  ( 0.000000000000000000, 0.000000000000000000, 1.000000000000000000 ) ) ;
#521 = EDGE_CURVE ( 'NONE', #832, #991, #1242, .T. ) ;
#522 = ORIENTED_EDGE ( 'NONE', *, *, #744, .F. ) ;
#523 = ORIENTED_EDGE ( 'NONE', *, *, #793, .F. ) ;
#524 = CYLINDRICAL_SURFACE ( 'NONE', #533, 10.00000000000000178 ) ;
#525 = EDGE_LOOP ( 'NONE', ( #1243, #198 ) ) ;
#526 = VECTOR ( 'NONE', #51, 1000.000000000000227 ) ;
#527 = AXIS2_PLACEMENT_3D ( 'NONE', #948, #565, #243 ) ;
#528 = ORIENTED_EDGE ( 'NONE', *, *, #135, .F. ) ;
#529 = EDGE_CURVE ( 'NONE', #999, #546, #8, .T. ) ;
#530 = CYLINDRICAL_SURFACE ( 'NONE', #130, 4.000000000000000888 ) ;
#531 = VERTEX_POINT ( 'NONE', #330 ) ;
#532 = CIRCLE ( 'NONE', #1299, 4.000000000000000000 ) ;
#533 = AXIS2_PLACEMENT_3D ( 'NONE', #926, #801, #421 ) ;
#534 = DIRECTION ( 'NONE',  ( 1.000000000000000000, 0.000000000000000000, 0.000000000000000000 ) ) ;
#535 = EDGE_LOOP ( 'NONE', ( #634, #875, #417, #838 ) ) ;
#536 = ORIENTED_EDGE ( 'NONE', *, *, #933, .T. ) ;
#537 = CARTESIAN_POINT ( 'NONE',  ( -17.32050807568877815, -10.00000000000000533, 8.074242989058399544 ) ) ;
#538 = LINE ( 'NONE', #108, #169 ) ;
#539 = ORIENTED_EDGE ( 'NONE', *, *, #982, .T. ) ;
#540 = PERSON_AND_ORGANIZATION_ROLE ( 'design_supplier' ) ;
#541 = EDGE_CURVE ( 'NONE', #531, #734, #910, .T. ) ;
#542 = VERTEX_POINT ( 'NONE', #116 ) ;
#543 = LINE ( 'NONE', #39, #811 ) ;
#544 = DIRECTION ( 'NONE',  ( -0.4999999999999796829, 0.8660254037844505870, -1.084202172485460184E-16 ) ) ;
#545 = CARTESIAN_POINT ( 'NONE',  ( 22.51666049839537109, -6.999999999999931610, 7.074242989058401321 ) ) ;
#546 = VERTEX_POINT ( 'NONE', #717 ) ;
#547 = ADVANCED_FACE ( 'NONE', ( #739 ), #1085, .F. ) ;
#548 =( LENGTH_UNIT ( ) NAMED_UNIT ( * ) SI_UNIT ( .MILLI., .METRE. ) );
#549 = CARTESIAN_POINT ( 'NONE',  ( 25.98076211353309617, -4.999999999999887201, 2.074242989058400877 ) ) ;
#550 = FACE_OUTER_BOUND ( 'NONE', #893, .T. ) ;
#551 = CARTESIAN_POINT ( 'NONE',  ( -8.660254037844451247, 24.99999999999989697, 4.074242989058400433 ) ) ;
#552 = CIRCLE ( 'NONE', #1038, 4.000000000000000000 ) ;
#553 = FACE_OUTER_BOUND ( 'NONE', #891, .T. ) ;
#554 = AXIS2_PLACEMENT_3D ( 'NONE', #537, #350, #163 ) ;
#555 = AXIS2_PLACEMENT_3D ( 'NONE', #254, #1053, #861 ) ;
#556 = DIRECTION ( 'NONE',  ( 0.4999999999999884537, 0.8660254037844454800, 0.000000000000000000 ) ) ;
#557 = CIRCLE ( 'NONE', #217, 7.000000000000000000 ) ;
#558 = VERTEX_POINT ( 'NONE', #418 ) ;
#559 = EDGE_CURVE ( 'NONE', #734, #604, #1132, .T. ) ;
#560 = ORIENTED_EDGE ( 'NONE', *, *, #1226, .F. ) ;
#561 = DIRECTION ( 'NONE',  ( -0.000000000000000000, -0.000000000000000000, 1.000000000000000000 ) ) ;
#562 = DIRECTION ( 'NONE',  ( -1.000000000000000000, 0.000000000000000000, 0.000000000000000000 ) ) ;
#563 = ORIENTED_EDGE ( 'NONE', *, *, #964, .F. ) ;
#564 = CARTESIAN_POINT ( 'NONE',  ( 17.32050807568877815, -10.00000000000000000, 3.074242989058400877 ) ) ;
#565 = DIRECTION ( 'NONE',  ( 1.224646799147353207E-16, 1.000000000000000000, -0.000000000000000000 ) ) ;
#566 = FACE_OUTER_BOUND ( 'NONE', #1036, .T. ) ;
#567 = ADVANCED_FACE ( 'NONE', ( #937 ), #946, .T. ) ;
#568 = CARTESIAN_POINT ( 'NONE',  ( -17.32050807568877815, -10.00000000000000533, -1.925757010941599567 ) ) ;
#569 = DIRECTION ( 'NONE',  ( -0.000000000000000000, -0.000000000000000000, -1.000000000000000000 ) ) ;
#570 = DIRECTION ( 'NONE',  ( -0.000000000000000000, -0.000000000000000000, 1.000000000000000000 ) ) ;
#571 = CARTESIAN_POINT ( 'NONE',  ( 22.51666049839534267, -6.999999999999886313, -1.925757010941599567 ) ) ;
#572 = DATE_AND_TIME ( #641, #789 ) ;
#573 = DIRECTION ( 'NONE',  ( 1.000000000000000000, 0.000000000000000000, 0.000000000000000000 ) ) ;
#574 = CARTESIAN_POINT ( 'NONE',  ( -17.32050807568868933, -16.00000000000000000, 8.074242989058399544 ) ) ;
#575 = ADVANCED_FACE ( 'NONE', ( #203 ), #824, .F. ) ;
#576 = DIRECTION ( 'NONE',  ( -0.000000000000000000, -0.000000000000000000, -1.000000000000000000 ) ) ;
#577 = CARTESIAN_POINT ( 'NONE',  ( -17.32050807568877815, -10.00000000000000533, 7.074242989058401321 ) ) ;
#578 = AXIS2_PLACEMENT_3D ( 'NONE', #1272, #1264, #1163 ) ;
#579 = CYLINDRICAL_SURFACE ( 'NONE', #1301, 9.999999999999998224 ) ;
#580 = CIRCLE ( 'NONE', #527, 4.000000000000000000 ) ;
#581 = VECTOR ( 'NONE', #316, 1000.000000000000114 ) ;
#582 = CARTESIAN_POINT ( 'NONE',  ( 17.32050807568864315, -16.00000000000000355, -1.925757010941599567 ) ) ;
#583 = CIRCLE ( 'NONE', #66, 9.999999999999994671 ) ;
#584 = EDGE_LOOP ( 'NONE', ( #1310, #1112, #101, #310, #490, #740, #420 ) ) ;
#585 = CARTESIAN_POINT ( 'NONE',  ( 3.335262747169070467E-15, 20.00000000000001776, 8.074242989058399544 ) ) ;
#586 = EDGE_CURVE ( 'NONE', #1033, #1026, #538, .T. ) ;
#587 = CARTESIAN_POINT ( 'NONE',  ( 19.32050807568877815, -10.00000000000000000, 3.074242989058400877 ) ) ;
#588 = ORIENTED_EDGE ( 'NONE', *, *, #998, .F. ) ;
#589 = CARTESIAN_POINT ( 'NONE',  ( 17.32050807568877815, -10.00000000000000000, 4.074242989058400433 ) ) ;
#590 = CARTESIAN_POINT ( 'NONE',  ( -27.32050807568877104, -10.00000000000000533, 8.074242989058399544 ) ) ;
#591 = ORIENTED_EDGE ( 'NONE', *, *, #513, .F. ) ;
#592 = CARTESIAN_POINT ( 'NONE',  ( -1.359513603553773432E-15, -2.677721131907036772E-15, 7.074242989058401321 ) ) ;
#593 = DIRECTION ( 'NONE',  ( 1.000000000000000000, 0.000000000000000000, 0.000000000000000000 ) ) ;
#594 = VERTEX_POINT ( 'NONE', #309 ) ;
#595 = DIRECTION ( 'NONE',  ( -0.000000000000000000, -0.000000000000000000, 1.000000000000000000 ) ) ;
#596 = CIRCLE ( 'NONE', #25, 4.000000000000000888 ) ;
#597 = CIRCLE ( 'NONE', #995, 5.999999999999994671 ) ;
#598 = ADVANCED_FACE ( 'NONE', ( #212 ), #1027, .T. ) ;
#599 = PLANE ( 'NONE',  #447 ) ;
#600 = VERTEX_POINT ( 'NONE', #252 ) ;
#601 = DIRECTION ( 'NONE',  ( 0.000000000000000000, 0.000000000000000000, 1.000000000000000000 ) ) ;
#602 = FACE_OUTER_BOUND ( 'NONE', #1174, .T. ) ;
#603 = ORIENTED_EDGE ( 'NONE', *, *, #940, .F. ) ;
#604 = VERTEX_POINT ( 'NONE', #551 ) ;
#605 = EDGE_CURVE ( 'NONE', #784, #1197, #352, .T. ) ;
#606 = DIRECTION ( 'NONE',  ( -0.000000000000000000, -0.000000000000000000, -1.000000000000000000 ) ) ;
#607 = EDGE_LOOP ( 'NONE', ( #1214, #959, #1210, #800 ) ) ;
#608 = ORIENTED_EDGE ( 'NONE', *, *, #770, .T. ) ;
#609 = ORIENTED_EDGE ( 'NONE', *, *, #1077, .F. ) ;
#610 = DIRECTION ( 'NONE',  ( 1.000000000000000000, 0.000000000000000000, 0.000000000000000000 ) ) ;
#611 = VERTEX_POINT ( 'NONE', #1282 ) ;
#612 = PERSON_AND_ORGANIZATION ( #798, #724 ) ;
#613 = EDGE_CURVE ( 'NONE', #16, #999, #659, .T. ) ;
#614 = EDGE_CURVE ( 'NONE', #808, #1033, #379, .T. ) ;
#615 = DIRECTION ( 'NONE',  ( -0.8660254037844388186, -0.4999999999999997780, 0.000000000000000000 ) ) ;
#616 = AXIS2_PLACEMENT_3D ( 'NONE', #102, #1199, #913 ) ;
#617 = EDGE_LOOP ( 'NONE', ( #504, #1031, #956, #1011 ) ) ;
#618 = CIRCLE ( 'NONE', #830, 7.000000000000000000 ) ;
#619 = CIRCLE ( 'NONE', #236, 5.999999999999994671 ) ;
#620 = CARTESIAN_POINT ( 'NONE',  ( 22.51666049839534267, -6.999999999999886313, 2.074242989058400877 ) ) ;
#621 = VERTEX_POINT ( 'NONE', #164 ) ;
#622 = DATE_AND_TIME ( #436, #684 ) ;
#623 = EDGE_CURVE ( 'NONE', #621, #126, #266, .T. ) ;
#624 = DIRECTION ( 'NONE',  ( 0.000000000000000000, 0.000000000000000000, 1.000000000000000000 ) ) ;
#625 = ORIENTED_EDGE ( 'NONE', *, *, #440, .T. ) ;
#626 = ORIENTED_EDGE ( 'NONE', *, *, #645, .T. ) ;
#627 = ADVANCED_FACE ( 'NONE', ( #566 ), #1149, .T. ) ;
#628 = ORIENTED_EDGE ( 'NONE', *, *, #184, .T. ) ;
#629 = CYLINDRICAL_SURFACE ( 'NONE', #554, 9.999999999999994671 ) ;
#630 = ORIENTED_EDGE ( 'NONE', *, *, #280, .F. ) ;
#631 = CARTESIAN_POINT ( 'NONE',  ( 3.335262747169070467E-15, 20.00000000000001776, -1.925757010941599567 ) ) ;
#632 = CIRCLE ( 'NONE', #1103, 9.999999999999998224 ) ;
#633 = AXIS2_PLACEMENT_3D ( 'NONE', #480, #601, #285 ) ;
#634 = ORIENTED_EDGE ( 'NONE', *, *, #125, .T. ) ;
#635 = DIRECTION ( 'NONE',  ( 0.8660254037844314912, -0.5000000000000125455, 0.000000000000000000 ) ) ;
#636 = EDGE_CURVE ( 'NONE', #1197, #288, #816, .T. ) ;
#637 = ORIENTED_EDGE ( 'NONE', *, *, #401, .T. ) ;
#638 = PRODUCT_DEFINITION_FORMATION_WITH_SPECIFIED_SOURCE ( 'ÈÎ', '', #393, .NOT_KNOWN. ) ;
#639 = CIRCLE ( 'NONE', #1145, 7.000000000000000000 ) ;
#640 = AXIS2_PLACEMENT_3D ( 'NONE', #759, #56, #762 ) ;
#641 = CALENDAR_DATE ( 2026, 17, 8 ) ;
#642 = DIRECTION ( 'NONE',  ( 0.000000000000000000, 0.000000000000000000, -1.000000000000000000 ) ) ;
#643 = DIRECTION ( 'NONE',  ( -0.4999999999999997780, 0.8660254037844388186, 0.000000000000000000 ) ) ;
#644 = DIRECTION ( 'NONE',  ( -1.000000000000000000, 0.000000000000000000, 0.000000000000000000 ) ) ;
#645 = EDGE_CURVE ( 'NONE', #558, #185, #543, .T. ) ;
#646 = CYLINDRICAL_SURFACE ( 'NONE', #831, 4.000000000000000000 ) ;
#647 = CARTESIAN_POINT ( 'NONE',  ( -17.32050807568869288, -16.00000000000000000, -1.925757010941599567 ) ) ;
#648 = DIRECTION ( 'NONE',  ( -0.000000000000000000, -0.000000000000000000, -1.000000000000000000 ) ) ;
#649 = ORIENTED_EDGE ( 'NONE', *, *, #1271, .T. ) ;
#650 = DIRECTION ( 'NONE',  ( 0.000000000000000000, -1.000000000000000000, 0.000000000000000000 ) ) ;
#651 = DIRECTION ( 'NONE',  ( -0.000000000000000000, -0.000000000000000000, -1.000000000000000000 ) ) ;
#652 = PLANE ( 'NONE',  #640 ) ;
#653 = CARTESIAN_POINT ( 'NONE',  ( -17.32050807568877815, -10.00000000000000533, -1.925757010941599567 ) ) ;
#654 = CARTESIAN_POINT ( 'NONE',  ( -23.32050807568877104, -10.00000000000000533, -1.925757010941599567 ) ) ;
#655 = ADVANCED_FACE ( 'NONE', ( #158 ), #652, .T. ) ;
#656 = DIRECTION ( 'NONE',  ( -1.000000000000000000, 1.001543065824780494E-16, -0.000000000000000000 ) ) ;
#657 = DIRECTION ( 'NONE',  ( -0.4999999999999884537, 0.8660254037844454800, 0.000000000000000000 ) ) ;
#658 = CARTESIAN_POINT ( 'NONE',  ( -17.32050807568877815, -10.00000000000000533, 3.074242989058400877 ) ) ;
#659 = LINE ( 'NONE', #773, #85 ) ;
#660 = AXIS2_PLACEMENT_3D ( 'NONE', #231, #914, #1223 ) ;
#661 = DIRECTION ( 'NONE',  ( -0.4999999999999997780, 0.8660254037844387076, 0.000000000000000000 ) ) ;
#662 = TOROIDAL_SURFACE ( 'NONE', #763, 5.999999999999994671, 4.000000000000000000 ) ;
#663 = TOROIDAL_SURFACE ( 'NONE', #888, 1.999999999999994893, 4.000000000000000000 ) ;
#664 = DIRECTION ( 'NONE',  ( 0.000000000000000000, 0.000000000000000000, 1.000000000000000000 ) ) ;
#665 = AXIS2_PLACEMENT_3D ( 'NONE', #805, #475, #873 ) ;
#666 = VECTOR ( 'NONE', #112, 1000.000000000000000 ) ;
#667 = EDGE_CURVE ( 'NONE', #276, #177, #670, .T. ) ;
#668 = PERSON_AND_ORGANIZATION ( #798, #724 ) ;
#669 = DIRECTION ( 'NONE',  ( 0.4999999999999996114, 0.8660254037844390407, 0.000000000000000000 ) ) ;
#670 = LINE ( 'NONE', #972, #905 ) ;
#671 = DIRECTION ( 'NONE',  ( 0.000000000000000000, -1.000000000000000000, 0.000000000000000000 ) ) ;
#672 = CARTESIAN_POINT ( 'NONE',  ( -1.359513603553773432E-15, -2.677721131907036772E-15, 8.074242989058399544 ) ) ;
#673 = PERSON_AND_ORGANIZATION_ROLE ( 'design_owner' ) ;
#674 = DIRECTION ( 'NONE',  ( -0.000000000000000000, -0.000000000000000000, -1.000000000000000000 ) ) ;
#675 = DIRECTION ( 'NONE',  ( 0.000000000000000000, 0.000000000000000000, 1.000000000000000000 ) ) ;
#676 = DIRECTION ( 'NONE',  ( -0.000000000000000000, -0.000000000000000000, -1.000000000000000000 ) ) ;
#677 = DIRECTION ( 'NONE',  ( 1.000000000000000000, 0.000000000000000000, 0.000000000000000000 ) ) ;
#678 = CARTESIAN_POINT ( 'NONE',  ( -1.359513603553773432E-15, -2.677721131907036772E-15, 8.074242989058399544 ) ) ;
#679 = ORIENTED_EDGE ( 'NONE', *, *, #1032, .T. ) ;
#680 = DIRECTION ( 'NONE',  ( 0.000000000000000000, 0.000000000000000000, 1.000000000000000000 ) ) ;
#681 = EDGE_CURVE ( 'NONE', #494, #16, #1057, .T. ) ;
#682 = VECTOR ( 'NONE', #561, 1000.000000000000000 ) ;
#683 = PLANE ( 'NONE',  #1107 ) ;
#684 = LOCAL_TIME ( 14, 17, 28.00000000000000000, #413 ) ;
#685 = CIRCLE ( 'NONE', #889, 1.999999999999998224 ) ;
#686 = DIRECTION ( 'NONE',  ( 0.000000000000000000, 0.000000000000000000, 1.000000000000000000 ) ) ;
#687 = EDGE_LOOP ( 'NONE', ( #649, #560, #507, #1161 ) ) ;
#688 = FACE_OUTER_BOUND ( 'NONE', #607, .T. ) ;
#689 = ADVANCED_FACE ( 'NONE', ( #241, #764 ), #253, .T. ) ;
#690 = FACE_OUTER_BOUND ( 'NONE', #1227, .T. ) ;
#691 = CARTESIAN_POINT ( 'NONE',  ( 19.05255888325761759, -8.999999999999932498, 7.074242989058401321 ) ) ;
#692 = VERTEX_POINT ( 'NONE', #647 ) ;
#693 = ORIENTED_EDGE ( 'NONE', *, *, #1154, .F. ) ;
#694 = DIRECTION ( 'NONE',  ( 0.000000000000000000, -1.000000000000000000, 0.000000000000000000 ) ) ;
#695 = FACE_OUTER_BOUND ( 'NONE', #1021, .T. ) ;
#696 = DIRECTION ( 'NONE',  ( -1.000000000000000000, 0.000000000000000000, 0.000000000000000000 ) ) ;
#697 = ADVANCED_FACE ( 'NONE', ( #553 ), #360, .T. ) ;
#698 = LINE ( 'NONE', #1104, #27 ) ;
#699 = ORIENTED_EDGE ( 'NONE', *, *, #323, .F. ) ;
#700 = DIRECTION ( 'NONE',  ( -1.000000000000000000, -0.000000000000000000, -1.387778780781445676E-14 ) ) ;
#701 = ORIENTED_EDGE ( 'NONE', *, *, #86, .F. ) ;
#702 = CARTESIAN_POINT ( 'NONE',  ( -1.359513603553773432E-15, -2.677721131907036772E-15, 3.074242989058400877 ) ) ;
#703 = VECTOR ( 'NONE', #661, 1000.000000000000114 ) ;
#704 = VECTOR ( 'NONE', #981, 1000.000000000000114 ) ;
#705 = AXIS2_PLACEMENT_3D ( 'NONE', #378, #650, #1254 ) ;
#706 = ADVANCED_FACE ( 'NONE', ( #367 ), #775, .T. ) ;
#707 = CIRCLE ( 'NONE', #1044, 4.000000000000000000 ) ;
#708 = EDGE_LOOP ( 'NONE', ( #1114, #626, #1008, #115 ) ) ;
#709 = ORIENTED_EDGE ( 'NONE', *, *, #586, .T. ) ;
#710 = ORIENTED_EDGE ( 'NONE', *, *, #440, .F. ) ;
#711 = APPROVAL ( #1047, 'Î´Ö' ) ;
#712 = CARTESIAN_POINT ( 'NONE',  ( 4.999999999999998224, -2.065397732333360243E-15, 8.074242989058399544 ) ) ;
#713 = DIRECTION ( 'NONE',  ( -0.5000000000000124345, -0.8660254037844317132, 0.000000000000000000 ) ) ;
#714 = EDGE_CURVE ( 'NONE', #95, #500, #445, .T. ) ;
#715 = ORIENTED_EDGE ( 'NONE', *, *, #901, .F. ) ;
#716 = ORIENTED_EDGE ( 'NONE', *, *, #140, .T. ) ;
#717 = CARTESIAN_POINT ( 'NONE',  ( 23.32050807568877815, -10.00000000000000000, 8.074242989058399544 ) ) ;
#718 = VERTEX_POINT ( 'NONE', #1150 ) ;
#719 = EDGE_CURVE ( 'NONE', #177, #604, #552, .T. ) ;
#720 = VECTOR ( 'NONE', #144, 1000.000000000000000 ) ;
#721 = DIRECTION ( 'NONE',  ( 0.000000000000000000, 0.000000000000000000, 1.000000000000000000 ) ) ;
#722 = AXIS2_PLACEMENT_3D ( 'NONE', #261, #669, #443 ) ;
#723 = CIRCLE ( 'NONE', #319, 4.000000000000000000 ) ;
#724 = ORGANIZATION ( 'Î´Ö', 'Î´Ö', '' ) ;
#725 = AXIS2_PLACEMENT_3D ( 'NONE', #731, #21, #1307 ) ;
#726 = ORIENTED_EDGE ( 'NONE', *, *, #271, .F. ) ;
#727 = DIRECTION ( 'NONE',  ( 0.000000000000000000, 0.000000000000000000, 1.000000000000000000 ) ) ;
#728 = ORIENTED_EDGE ( 'NONE', *, *, #839, .F. ) ;
#729 = DATE_AND_TIME ( #1029, #129 ) ;
#730 = CC_DESIGN_PERSON_AND_ORGANIZATION_ASSIGNMENT ( #612, #540, ( #638 ) ) ;
#731 = CARTESIAN_POINT ( 'NONE',  ( -1.359513603553773432E-15, -2.677721131907036772E-15, 3.074242989058400877 ) ) ;
#732 = COORDINATED_UNIVERSAL_TIME_OFFSET ( 8, 0, .AHEAD. ) ;
#733 = CARTESIAN_POINT ( 'NONE',  ( 17.32050807568877815, -10.00000000000000000, 8.074242989058399544 ) ) ;
#734 = VERTEX_POINT ( 'NONE', #1078 ) ;
#735 = EDGE_CURVE ( 'NONE', #389, #843, #1147, .T. ) ;
#736 = CARTESIAN_POINT ( 'NONE',  ( -17.32050807568863604, -20.00000000000000000, 8.074242989058399544 ) ) ;
#737 = ORIENTED_EDGE ( 'NONE', *, *, #894, .T. ) ;
#738 = DIRECTION ( 'NONE',  ( 0.000000000000000000, -1.000000000000000000, 0.000000000000000000 ) ) ;
#739 = FACE_OUTER_BOUND ( 'NONE', #84, .T. ) ;
#740 = ORIENTED_EDGE ( 'NONE', *, *, #744, .T. ) ;
#741 = CARTESIAN_POINT ( 'NONE',  ( 17.32050807568877815, -12.00000000000000355, 7.074242989058401321 ) ) ;
#742 = CARTESIAN_POINT ( 'NONE',  ( 3.335262747169070467E-15, 20.00000000000001776, 7.074242989058401321 ) ) ;
#743 = VECTOR ( 'NONE', #576, 1000.000000000000000 ) ;
#744 = EDGE_CURVE ( 'NONE', #122, #815, #885, .T. ) ;
#745 = DIRECTION ( 'NONE',  ( 1.000000000000000000, 0.000000000000000000, 0.000000000000000000 ) ) ;
#746 = AXIS2_PLACEMENT_3D ( 'NONE', #702, #1293, #1201 ) ;
#747 = ORIENTED_EDGE ( 'NONE', *, *, #427, .T. ) ;
#748 = DIRECTION ( 'NONE',  ( 1.000000000000000000, -1.001543065824777536E-16, 0.000000000000000000 ) ) ;
#749 = CIRCLE ( 'NONE', #259, 5.999999999999998224 ) ;
#750 = CIRCLE ( 'NONE', #466, 3.999999999999999112 ) ;
#751 = CC_DESIGN_PERSON_AND_ORGANIZATION_ASSIGNMENT ( #1119, #214, ( #951 ) ) ;
#752 = DIRECTION ( 'NONE',  ( 1.000000000000000000, -1.001543065824777659E-16, 0.000000000000000000 ) ) ;
#753 = EDGE_CURVE ( 'NONE', #991, #989, #246, .T. ) ;
#754 = CARTESIAN_POINT ( 'NONE',  ( -17.32050807568877815, -10.00000000000000533, 4.074242989058400433 ) ) ;
#755 = CARTESIAN_POINT ( 'NONE',  ( 3.335262747169070467E-15, 20.00000000000001776, 4.074242989058400433 ) ) ;
#756 = ORIENTED_EDGE ( 'NONE', *, *, #280, .T. ) ;
#757 = DIRECTION ( 'NONE',  ( -1.000000000000000000, 0.000000000000000000, 0.000000000000000000 ) ) ;
#758 = DIRECTION ( 'NONE',  ( 0.000000000000000000, 0.000000000000000000, 1.000000000000000000 ) ) ;
#759 = CARTESIAN_POINT ( 'NONE',  ( 17.32050807568877815, -10.00000000000000000, -1.925757010941599567 ) ) ;
#760 = PLANE ( 'NONE',  #382 ) ;
#761 = CARTESIAN_POINT ( 'NONE',  ( -5.196152422706670215, 22.99999999999994316, 3.074242989058400877 ) ) ;
#762 = DIRECTION ( 'NONE',  ( -1.000000000000000000, 0.000000000000000000, 0.000000000000000000 ) ) ;
#763 = AXIS2_PLACEMENT_3D ( 'NONE', #1261, #651, #337 ) ;
#764 = FACE_BOUND ( 'NONE', #809, .T. ) ;
#765 = AXIS2_PLACEMENT_3D ( 'NONE', #279, #595, #779 ) ;
#766 = AXIS2_PLACEMENT_3D ( 'NONE', #349, #657, #1062 ) ;
#767 = DIRECTION ( 'NONE',  ( 1.000000000000000000, 0.000000000000000000, 0.000000000000000000 ) ) ;
#768 = CIRCLE ( 'NONE', #69, 10.00000000000000178 ) ;
#769 = EDGE_LOOP ( 'NONE', ( #226, #931, #331, #737 ) ) ;
#770 = EDGE_CURVE ( 'NONE', #403, #843, #139, .T. ) ;
#771 = DIRECTION ( 'NONE',  ( -0.000000000000000000, -0.000000000000000000, 1.000000000000000000 ) ) ;
#772 = CARTESIAN_POINT ( 'NONE',  ( 8.660254037844458352, 24.99999999999989697, 2.074242989058400877 ) ) ;
#773 = CARTESIAN_POINT ( 'NONE',  ( -17.32050807568868933, -16.00000000000000000, 8.074242989058399544 ) ) ;
#774 = DIRECTION ( 'NONE',  ( 0.8660254037844389297, -0.4999999999999997780, 0.000000000000000000 ) ) ;
#775 = CYLINDRICAL_SURFACE ( 'NONE', #578, 9.999999999999994671 ) ;
#776 = DIRECTION ( 'NONE',  ( 0.000000000000000000, -1.000000000000000000, 0.000000000000000000 ) ) ;
#777 = ADVANCED_FACE ( 'NONE', ( #944 ), #160, .F. ) ;
#778 = FACE_OUTER_BOUND ( 'NONE', #900, .T. ) ;
#779 = DIRECTION ( 'NONE',  ( 1.000000000000000000, 0.000000000000000000, 0.000000000000000000 ) ) ;
#780 = DIRECTION ( 'NONE',  ( 1.000000000000000000, 0.000000000000000000, 0.000000000000000000 ) ) ;
#781 = EDGE_LOOP ( 'NONE', ( #693, #1000, #394, #1256 ) ) ;
#782 = EDGE_CURVE ( 'NONE', #600, #1182, #867, .T. ) ;
#783 = DIRECTION ( 'NONE',  ( 0.000000000000000000, 0.000000000000000000, 1.000000000000000000 ) ) ;
#784 = VERTEX_POINT ( 'NONE', #454 ) ;
#785 = AXIS2_PLACEMENT_3D ( 'NONE', #345, #570, #70 ) ;
#786 = CARTESIAN_POINT ( 'NONE',  ( -17.32050807568863604, -20.00000000000000000, 4.074242989058400433 ) ) ;
#787 = AXIS2_PLACEMENT_3D ( 'NONE', #1152, #674, #1160 ) ;
#788 = AXIS2_PLACEMENT_3D ( 'NONE', #672, #41, #455 ) ;
#789 = LOCAL_TIME ( 14, 17, 28.00000000000000000, #1175 ) ;
#790 = AXIS2_PLACEMENT_3D ( 'NONE', #437, #28, #918 ) ;
#791 = DIRECTION ( 'NONE',  ( -0.000000000000000000, -0.000000000000000000, -1.000000000000000000 ) ) ;
#792 = ORIENTED_EDGE ( 'NONE', *, *, #613, .F. ) ;
#793 = EDGE_CURVE ( 'NONE', #500, #734, #583, .T. ) ;
#794 = DIRECTION ( 'NONE',  ( -0.000000000000000000, -0.000000000000000000, -1.000000000000000000 ) ) ;
#795 = ORIENTED_EDGE ( 'NONE', *, *, #559, .F. ) ;
#796 = DIRECTION ( 'NONE',  ( -0.000000000000000000, -0.000000000000000000, -1.000000000000000000 ) ) ;
#797 = EDGE_CURVE ( 'NONE', #1059, #531, #1074, .T. ) ;
#798 = PERSON ( 'Î´Ö', 'Î´Ö', 'Î´Ö', ('Î´Ö'), ('Î´Ö'), ('Î´Ö') ) ;
#799 = DIRECTION ( 'NONE',  ( 1.000000000000000000, 0.000000000000000000, 0.000000000000000000 ) ) ;
#800 = ORIENTED_EDGE ( 'NONE', *, *, #839, .T. ) ;
#801 = DIRECTION ( 'NONE',  ( -0.000000000000000000, -0.000000000000000000, -1.000000000000000000 ) ) ;
#802 = EDGE_LOOP ( 'NONE', ( #921, #1249, #5, #1046, #245, #608, #335, #484 ) ) ;
#803 = DIRECTION ( 'NONE',  ( -1.000000000000000000, 0.000000000000000000, 0.000000000000000000 ) ) ;
#804 = ORIENTED_EDGE ( 'NONE', *, *, #477, .F. ) ;
#805 = CARTESIAN_POINT ( 'NONE',  ( 17.32050807568864315, -16.00000000000000355, 2.074242989058400877 ) ) ;
#806 = EDGE_CURVE ( 'NONE', #604, #558, #960, .T. ) ;
#807 = DIRECTION ( 'NONE',  ( 1.000000000000000000, 0.000000000000000000, 0.000000000000000000 ) ) ;
#808 = VERTEX_POINT ( 'NONE', #464 ) ;
#809 = EDGE_LOOP ( 'NONE', ( #190, #823 ) ) ;
#810 = FACE_OUTER_BOUND ( 'NONE', #781, .T. ) ;
#811 = VECTOR ( 'NONE', #444, 1000.000000000000114 ) ;
#812 = DATE_AND_TIME ( #294, #26 ) ;
#813 = CIRCLE ( 'NONE', #746, 11.00000000000000000 ) ;
#814 = AXIS2_PLACEMENT_3D ( 'NONE', #1089, #1101, #180 ) ;
#815 = VERTEX_POINT ( 'NONE', #1284 ) ;
#816 = CIRCLE ( 'NONE', #1126, 2.000000000000001776 ) ;
#817 = DIRECTION ( 'NONE',  ( -0.000000000000000000, -0.000000000000000000, -1.000000000000000000 ) ) ;
#818 = CARTESIAN_POINT ( 'NONE',  ( 25.98076211353309617, -4.999999999999887201, 4.074242989058400433 ) ) ;
#819 = ORIENTED_EDGE ( 'NONE', *, *, #1138, .F. ) ;
#820 = DIRECTION ( 'NONE',  ( 0.8660254037844387076, 0.5000000000000001110, 0.000000000000000000 ) ) ;
#821 = EDGE_LOOP ( 'NONE', ( #75, #210, #453, #374, #591 ) ) ;
#822 = EDGE_CURVE ( 'NONE', #832, #1056, #1178, .T. ) ;
#823 = ORIENTED_EDGE ( 'NONE', *, *, #835, .T. ) ;
#824 = PLANE ( 'NONE',  #924 ) ;
#825 = EDGE_LOOP ( 'NONE', ( #903, #283, #1306, #512, #929, #204 ) ) ;
#826 = CARTESIAN_POINT ( 'NONE',  ( 17.32050807568869644, -16.00000000000000355, 4.074242989058400433 ) ) ;
#827 = ORIENTED_EDGE ( 'NONE', *, *, #206, .T. ) ;
#828 = DIRECTION ( 'NONE',  ( 1.000000000000000000, -1.001543065824777659E-16, 0.000000000000000000 ) ) ;
#829 = ORIENTED_EDGE ( 'NONE', *, *, #505, .F. ) ;
#830 = AXIS2_PLACEMENT_3D ( 'NONE', #369, #857, #55 ) ;
#831 = AXIS2_PLACEMENT_3D ( 'NONE', #741, #1051, #1244 ) ;
#832 = VERTEX_POINT ( 'NONE', #267 ) ;
#833 = ORIENTED_EDGE ( 'NONE', *, *, #1309, .F. ) ;
#834 = PERSON_AND_ORGANIZATION_ROLE ( 'creator' ) ;
#835 = EDGE_CURVE ( 'NONE', #497, #462, #977, .T. ) ;
#836 = PLANE ( 'NONE',  #429 ) ;
#837 = ORIENTED_EDGE ( 'NONE', *, *, #1138, .T. ) ;
#838 = ORIENTED_EDGE ( 'NONE', *, *, #481, .F. ) ;
#839 = EDGE_CURVE ( 'NONE', #1123, #304, #953, .T. ) ;
#840 = FACE_OUTER_BOUND ( 'NONE', #329, .T. ) ;
#841 = ORIENTED_EDGE ( 'NONE', *, *, #248, .F. ) ;
#842 = DIRECTION ( 'NONE',  ( 0.4999999999999997224, -0.8660254037844387076, -0.000000000000000000 ) ) ;
#843 = VERTEX_POINT ( 'NONE', #59 ) ;
#844 = EDGE_CURVE ( 'NONE', #919, #1225, #273, .T. ) ;
#845 = VECTOR ( 'NONE', #752, 1000.000000000000000 ) ;
#846 = ADVANCED_FACE ( 'NONE', ( #883 ), #506, .T. ) ;
#847 = CALENDAR_DATE ( 2026, 17, 8 ) ;
#848 = AXIS2_PLACEMENT_3D ( 'NONE', #137, #1034, #434 ) ;
#849 = DIRECTION ( 'NONE',  ( -0.4999999999999998335, -0.8660254037844388186, 0.000000000000000000 ) ) ;
#850 = AXIS2_PLACEMENT_3D ( 'NONE', #1190, #225, #1239 ) ;
#851 = CARTESIAN_POINT ( 'NONE',  ( -5.000000000000001776, -2.677721131907036772E-15, 8.074242989058399544 ) ) ;
#852 = DIRECTION ( 'NONE',  ( 0.4999999999999998890, 0.8660254037844387076, 0.000000000000000000 ) ) ;
#853 = LINE ( 'NONE', #786, #1083 ) ;
#854 = CYLINDRICAL_SURFACE ( 'NONE', #787, 5.000000000000000000 ) ;
#855 = CARTESIAN_POINT ( 'NONE',  ( -17.32050807568877815, -10.00000000000000533, 4.074242989058400433 ) ) ;
#856 = CARTESIAN_POINT ( 'NONE',  ( -1.732050807568913608, 20.99999999999994671, 3.074242989058400877 ) ) ;
#857 = DIRECTION ( 'NONE',  ( 0.000000000000000000, 0.000000000000000000, 1.000000000000000000 ) ) ;
#858 = ORIENTED_EDGE ( 'NONE', *, *, #140, .F. ) ;
#859 = ADVANCED_FACE ( 'NONE', ( #284 ), #301, .T. ) ;
#860 = DIRECTION ( 'NONE',  ( -0.000000000000000000, -0.000000000000000000, 1.000000000000000000 ) ) ;
#861 = DIRECTION ( 'NONE',  ( 1.000000000000000000, 0.000000000000000000, 0.000000000000000000 ) ) ;
#862 = DIRECTION ( 'NONE',  ( -1.301042606982605321E-14, 0.000000000000000000, -1.000000000000000000 ) ) ;
#863 = CARTESIAN_POINT ( 'NONE',  ( -1.359513603553773432E-15, -2.677721131907036772E-15, 8.074242989058399544 ) ) ;
#864 = CARTESIAN_POINT ( 'NONE',  ( 17.32050807568877815, -12.00000000000000355, 3.074242989058400877 ) ) ;
#865 = CYLINDRICAL_SURFACE ( 'NONE', #868, 4.000000000000000000 ) ;
#866 = CIRCLE ( 'NONE', #1039, 5.000000000000000000 ) ;
#867 = LINE ( 'NONE', #851, #1082 ) ;
#868 = AXIS2_PLACEMENT_3D ( 'NONE', #262, #849, #774 ) ;
#869 = CARTESIAN_POINT ( 'NONE',  ( -11.00000000000000178, -1.330609652844948368E-15, 7.074242989058401321 ) ) ;
#870 = AXIS2_PLACEMENT_3D ( 'NONE', #120, #430, #820 ) ;
#871 = EDGE_CURVE ( 'NONE', #611, #16, #750, .T. ) ;
#872 = DIRECTION ( 'NONE',  ( -0.4999999999999997780, -0.8660254037844389297, 0.000000000000000000 ) ) ;
#873 = DIRECTION ( 'NONE',  ( 0.000000000000000000, 0.000000000000000000, -1.000000000000000000 ) ) ;
#874 = DIRECTION ( 'NONE',  ( 0.000000000000000000, 0.000000000000000000, 1.000000000000000000 ) ) ;
#875 = ORIENTED_EDGE ( 'NONE', *, *, #467, .F. ) ;
#876 = ORIENTED_EDGE ( 'NONE', *, *, #1077, .T. ) ;
#877 = DIRECTION ( 'NONE',  ( 1.000000000000000000, 0.000000000000000000, 0.000000000000000000 ) ) ;
#878 = ORIENTED_EDGE ( 'NONE', *, *, #385, .T. ) ;
#879 = CYLINDRICAL_SURFACE ( 'NONE', #765, 6.000000000000001776 ) ;
#880 = DIRECTION ( 'NONE',  ( 1.000000000000000000, 0.000000000000000000, 0.000000000000000000 ) ) ;
#881 = ORIENTED_EDGE ( 'NONE', *, *, #753, .F. ) ;
#882 = EDGE_CURVE ( 'NONE', #1292, #1059, #1257, .T. ) ;
#883 = FACE_OUTER_BOUND ( 'NONE', #1212, .T. ) ;
#884 = ORIENTED_EDGE ( 'NONE', *, *, #714, .F. ) ;
#885 = CIRCLE ( 'NONE', #336, 5.999999999999994671 ) ;
#886 = DIRECTION ( 'NONE',  ( 1.000000000000000000, 0.000000000000000000, 0.000000000000000000 ) ) ;
#887 = CIRCLE ( 'NONE', #1215, 1.999999999999994893 ) ;
#888 = AXIS2_PLACEMENT_3D ( 'NONE', #577, #1285, #677 ) ;
#889 = AXIS2_PLACEMENT_3D ( 'NONE', #476, #874, #780 ) ;
#890 = DIRECTION ( 'NONE',  ( 0.4999999999999998890, 0.8660254037844387076, -0.000000000000000000 ) ) ;
#891 = EDGE_LOOP ( 'NONE', ( #884, #519, #347, #523 ) ) ;
#892 = DIRECTION ( 'NONE',  ( -0.000000000000000000, -0.000000000000000000, -1.000000000000000000 ) ) ;
#893 = EDGE_LOOP ( 'NONE', ( #1255, #795, #1105, #1028 ) ) ;
#894 = EDGE_CURVE ( 'NONE', #604, #832, #632, .T. ) ;
#895 = ORIENTED_EDGE ( 'NONE', *, *, #1252, .F. ) ;
#896 = CARTESIAN_POINT ( 'NONE',  ( -5.196152422706670215, 22.99999999999994316, 7.074242989058401321 ) ) ;
#897 = DIRECTION ( 'NONE',  ( -0.000000000000000000, -0.000000000000000000, -1.000000000000000000 ) ) ;
#898 = ORIENTED_EDGE ( 'NONE', *, *, #901, .T. ) ;
#899 = CARTESIAN_POINT ( 'NONE',  ( -1.359513603553773432E-15, -2.677721131907036772E-15, 3.074242989058400877 ) ) ;
#900 = EDGE_LOOP ( 'NONE', ( #1141, #1118, #625, #985 ) ) ;
#901 = EDGE_CURVE ( 'NONE', #123, #232, #305, .T. ) ;
#902 = ORIENTED_EDGE ( 'NONE', *, *, #667, .T. ) ;
#903 = ORIENTED_EDGE ( 'NONE', *, *, #681, .F. ) ;
#904 = CARTESIAN_POINT ( 'NONE',  ( -17.32050807568863604, -16.00000000000000000, 2.074242989058400877 ) ) ;
#905 = VECTOR ( 'NONE', #860, 1000.000000000000000 ) ;
#906 = TOROIDAL_SURFACE ( 'NONE', #299, 6.000000000000001776, 4.000000000000000000 ) ;
#907 = AXIS2_PLACEMENT_3D ( 'NONE', #568, #1263, #644 ) ;
#908 = EDGE_CURVE ( 'NONE', #304, #177, #313, .T. ) ;
#909 = APPROVAL_PERSON_ORGANIZATION ( #205, #182, #11 ) ;
#910 = CIRCLE ( 'NONE', #339, 4.000000000000000000 ) ;
#911 = ORIENTED_EDGE ( 'NONE', *, *, #1291, .F. ) ;
#912 = ORIENTED_EDGE ( 'NONE', *, *, #835, .F. ) ;
#913 = DIRECTION ( 'NONE',  ( -1.000000000000000000, 0.000000000000000000, 0.000000000000000000 ) ) ;
#914 = DIRECTION ( 'NONE',  ( -0.000000000000000000, -0.000000000000000000, -1.000000000000000000 ) ) ;
#915 = ORIENTED_EDGE ( 'NONE', *, *, #998, .T. ) ;
#916 = FACE_OUTER_BOUND ( 'NONE', #438, .T. ) ;
#917 = ADVANCED_FACE ( 'NONE', ( #810 ), #233, .F. ) ;
#918 = DIRECTION ( 'NONE',  ( -1.000000000000000000, 8.673617379884033500E-16, 0.000000000000000000 ) ) ;
#919 = VERTEX_POINT ( 'NONE', #90 ) ;
#920 = CYLINDRICAL_SURFACE ( 'NONE', #384, 4.000000000000000000 ) ;
#921 = ORIENTED_EDGE ( 'NONE', *, *, #1013, .T. ) ;
#922 = ADVANCED_FACE ( 'NONE', ( #292 ), #1143, .T. ) ;
#923 = VERTEX_POINT ( 'NONE', #1192 ) ;
#924 = AXIS2_PLACEMENT_3D ( 'NONE', #1010, #133, #828 ) ;
#925 = AXIS2_PLACEMENT_3D ( 'NONE', #1108, #495, #986 ) ;
#926 = CARTESIAN_POINT ( 'NONE',  ( 17.32050807568877815, -10.00000000000000000, 8.074242989058399544 ) ) ;
#927 = AXIS2_PLACEMENT_3D ( 'NONE', #1159, #251, #1275 ) ;
#928 = AXIS2_PLACEMENT_3D ( 'NONE', #691, #987, #82 ) ;
#929 = ORIENTED_EDGE ( 'NONE', *, *, #63, .T. ) ;
#930 = DIRECTION ( 'NONE',  ( 1.000000000000000000, 0.000000000000000000, 0.000000000000000000 ) ) ;
#931 = ORIENTED_EDGE ( 'NONE', *, *, #467, .T. ) ;
#932 = DATE_TIME_ROLE ( 'classification_date' ) ;
#933 = EDGE_CURVE ( 'NONE', #1182, #136, #1014, .T. ) ;
#934 = DIRECTION ( 'NONE',  ( 1.000000000000000000, 0.000000000000000000, 0.000000000000000000 ) ) ;
#935 = DIRECTION ( 'NONE',  ( -0.000000000000000000, -0.000000000000000000, 1.000000000000000000 ) ) ;
#936 = VERTEX_POINT ( 'NONE', #712 ) ;
#937 = FACE_OUTER_BOUND ( 'NONE', #687, .T. ) ;
#938 = ORIENTED_EDGE ( 'NONE', *, *, #894, .F. ) ;
#939 = ADVANCED_FACE ( 'NONE', ( #688 ), #599, .F. ) ;
#940 = EDGE_CURVE ( 'NONE', #815, #185, #947, .T. ) ;
#941 = PERSON_AND_ORGANIZATION ( #798, #724 ) ;
#942 = DIRECTION ( 'NONE',  ( -0.8660254037844389297, 0.4999999999999995559, 0.000000000000000000 ) ) ;
#943 = FACE_OUTER_BOUND ( 'NONE', #79, .T. ) ;
#944 = FACE_OUTER_BOUND ( 'NONE', #825, .T. ) ;
#945 = DIRECTION ( 'NONE',  ( -1.000000000000000000, 1.001543065824777659E-16, -0.000000000000000000 ) ) ;
#946 = TOROIDAL_SURFACE ( 'NONE', #660, 6.000000000000001776, 4.000000000000000000 ) ;
#947 = CIRCLE ( 'NONE', #381, 4.000000000000000000 ) ;
#948 = CARTESIAN_POINT ( 'NONE',  ( -19.32050807568877104, -10.00000000000000533, 7.074242989058401321 ) ) ;
#949 = CARTESIAN_POINT ( 'NONE',  ( -13.85640646055102110, 7.999999999999994671, 4.074242989058400433 ) ) ;
#950 = CARTESIAN_POINT ( 'NONE',  ( -17.32050807568877815, -10.00000000000000533, 2.074242989058400877 ) ) ;
#951 = SECURITY_CLASSIFICATION ( '', '', #1125 ) ;
#952 = AXIS2_PLACEMENT_3D ( 'NONE', #324, #721, #1041 ) ;
#953 = LINE ( 'NONE', #1162, #526 ) ;
#954 = CARTESIAN_POINT ( 'NONE',  ( -5.196152422706696861, 22.99999999999990052, 4.074242989058400433 ) ) ;
#955 = LINE ( 'NONE', #359, #300 ) ;
#956 = ORIENTED_EDGE ( 'NONE', *, *, #1127, .T. ) ;
#957 = DIRECTION ( 'NONE',  ( -0.000000000000000000, -0.000000000000000000, 1.000000000000000000 ) ) ;
#958 = FACE_OUTER_BOUND ( 'NONE', #1233, .T. ) ;
#959 = ORIENTED_EDGE ( 'NONE', *, *, #86, .T. ) ;
#960 = LINE ( 'NONE', #60, #237 ) ;
#961 = CARTESIAN_POINT ( 'NONE',  ( -17.32050807568868933, -16.00000000000000000, 7.074242989058401321 ) ) ;
#962 = APPLICATION_PROTOCOL_DEFINITION ( 'international standard', 'config_control_design', 1994, #1091 ) ;
#963 = ORIENTED_EDGE ( 'NONE', *, *, #605, .F. ) ;
#964 = EDGE_CURVE ( 'NONE', #611, #1033, #1092, .T. ) ;
#965 = DIRECTION ( 'NONE',  ( 1.000000000000000000, 0.000000000000000000, -0.000000000000000000 ) ) ;
#966 = PLANE ( 'NONE',  #426 ) ;
#967 = DIRECTION ( 'NONE',  ( -0.4999999999999997780, -0.8660254037844387076, 0.000000000000000000 ) ) ;
#968 = CYLINDRICAL_SURFACE ( 'NONE', #318, 4.000000000000000000 ) ;
#969 = AXIS2_PLACEMENT_3D ( 'NONE', #386, #783, #1113 ) ;
#970 = AXIS2_PLACEMENT_3D ( 'NONE', #272, #168, #1267 ) ;
#971 = VECTOR ( 'NONE', #1208, 1000.000000000000000 ) ;
#972 = CARTESIAN_POINT ( 'NONE',  ( -5.196152422706670215, 22.99999999999994316, 3.074242989058400877 ) ) ;
#973 = CIRCLE ( 'NONE', #790, 10.00000000000000178 ) ;
#974 = DIRECTION ( 'NONE',  ( -1.000000000000000000, 1.224646799147353207E-16, 0.000000000000000000 ) ) ;
#975 = EDGE_CURVE ( 'NONE', #621, #1056, #468, .T. ) ;
#976 = DIRECTION ( 'NONE',  ( -1.000000000000000000, 0.000000000000000000, 0.000000000000000000 ) ) ;
#977 = CIRCLE ( 'NONE', #127, 11.00000000000000000 ) ;
#978 = DIRECTION ( 'NONE',  ( 1.000000000000000000, 8.673617379884043361E-16, 0.000000000000000000 ) ) ;
#979 = EDGE_LOOP ( 'NONE', ( #100, #637, #881, #1194 ) ) ;
#980 = DIRECTION ( 'NONE',  ( -0.000000000000000000, -0.000000000000000000, -1.000000000000000000 ) ) ;
#981 = DIRECTION ( 'NONE',  ( -0.4999999999999997224, 0.8660254037844387076, 0.000000000000000000 ) ) ;
#982 = EDGE_CURVE ( 'NONE', #808, #122, #1188, .T. ) ;
#983 = CARTESIAN_POINT ( 'NONE',  ( 17.32050807568877815, -10.00000000000000000, 8.074242989058399544 ) ) ;
#984 = ADVANCED_FACE ( 'NONE', ( #211 ), #629, .T. ) ;
#985 = ORIENTED_EDGE ( 'NONE', *, *, #782, .F. ) ;
#986 = DIRECTION ( 'NONE',  ( 0.000000000000000000, 0.000000000000000000, 1.000000000000000000 ) ) ;
#987 = DIRECTION ( 'NONE',  ( -0.4999999999999998890, 0.8660254037844387076, 0.000000000000000000 ) ) ;
#988 = ADVANCED_FACE ( 'NONE', ( #1169 ), #1298, .F. ) ;
#989 = VERTEX_POINT ( 'NONE', #549 ) ;
#990 = DIRECTION ( 'NONE',  ( 1.000000000000000000, 0.000000000000000000, 0.000000000000000000 ) ) ;
#991 = VERTEX_POINT ( 'NONE', #357 ) ;
#992 = DIRECTION ( 'NONE',  ( 0.000000000000000000, 0.000000000000000000, 1.000000000000000000 ) ) ;
#993 = AXIS2_PLACEMENT_3D ( 'NONE', #899, #606, #1206 ) ;
#994 = FACE_BOUND ( 'NONE', #525, .T. ) ;
#995 = AXIS2_PLACEMENT_3D ( 'NONE', #1037, #514, #934 ) ;
#996 = FACE_OUTER_BOUND ( 'NONE', #22, .T. ) ;
#997 = ORIENTED_EDGE ( 'NONE', *, *, #46, .T. ) ;
#998 = EDGE_CURVE ( 'NONE', #134, #276, #191, .T. ) ;
#999 = VERTEX_POINT ( 'NONE', #1071 ) ;
#1000 = ORIENTED_EDGE ( 'NONE', *, *, #1291, .T. ) ;
#1001 = CYLINDRICAL_SURFACE ( 'NONE', #128, 5.000000000000000000 ) ;
#1002 = LINE ( 'NONE', #397, #450 ) ;
#1003 = ORIENTED_EDGE ( 'NONE', *, *, #77, .F. ) ;
#1004 = CARTESIAN_POINT ( 'NONE',  ( -22.51666049839533557, -6.999999999999888090, 2.074242989058400877 ) ) ;
#1005 = DIRECTION ( 'NONE',  ( 0.5000000000000187628, 0.8660254037844278274, 0.000000000000000000 ) ) ;
#1006 = ADVANCED_FACE ( 'NONE', ( #778 ), #854, .F. ) ;
#1007 = ORIENTED_EDGE ( 'NONE', *, *, #17, .F. ) ;
#1008 = ORIENTED_EDGE ( 'NONE', *, *, #1279, .F. ) ;
#1009 = CARTESIAN_POINT ( 'NONE',  ( 3.335262747169070467E-15, 20.00000000000001776, 8.074242989058399544 ) ) ;
#1010 = CARTESIAN_POINT ( 'NONE',  ( -17.32050807568868933, -16.00000000000000000, 3.074242989058400877 ) ) ;
#1011 = ORIENTED_EDGE ( 'NONE', *, *, #882, .F. ) ;
#1012 = AXIS2_PLACEMENT_3D ( 'NONE', #12, #1117, #610 ) ;
#1013 = EDGE_CURVE ( 'NONE', #227, #366, #887, .T. ) ;
#1014 = CIRCLE ( 'NONE', #993, 5.000000000000000000 ) ;
#1015 = CLOSED_SHELL ( 'NONE', ( #846, #1022, #917, #547, #1094, #1006, #1054, #1245, #984, #451, #332, #1260, #113, #706, #458, #655, #1297, #575, #777, #165, #368, #939, #689, #1200, #57, #1209, #96, #627, #36, #1166, #1115, #410, #697, #199, #9, #515, #141, #326, #1100, #988, #308, #859, #1088, #567, #922, #598 ) ) ;
#1016 = DIRECTION ( 'NONE',  ( 0.4999999999999997224, -0.8660254037844387076, 0.000000000000000000 ) ) ;
#1017 = CIRCLE ( 'NONE', #952, 9.999999999999994671 ) ;
#1018 = CARTESIAN_POINT ( 'NONE',  ( 17.32050807568877815, -10.00000000000000000, 4.074242989058400433 ) ) ;
#1019 = ORIENTED_EDGE ( 'NONE', *, *, #871, .F. ) ;
#1020 = CARTESIAN_POINT ( 'NONE',  ( -22.51666049839536399, -6.999999999999936939, 4.074242989058400433 ) ) ;
#1021 = EDGE_LOOP ( 'NONE', ( #377, #876 ) ) ;
#1022 = ADVANCED_FACE ( 'NONE', ( #1066 ), #215, .F. ) ;
#1023 = PLANE ( 'NONE',  #508 ) ;
#1024 = EDGE_CURVE ( 'NONE', #936, #136, #152, .T. ) ;
#1025 = DIRECTION ( 'NONE',  ( -0.000000000000000000, -0.000000000000000000, -1.000000000000000000 ) ) ;
#1026 = VERTEX_POINT ( 'NONE', #1081 ) ;
#1027 = CYLINDRICAL_SURFACE ( 'NONE', #408, 3.999999999999998668 ) ;
#1028 = ORIENTED_EDGE ( 'NONE', *, *, #224, .F. ) ;
#1029 = CALENDAR_DATE ( 2026, 17, 8 ) ;
#1030 = CARTESIAN_POINT ( 'NONE',  ( 17.32050807568877815, -16.00000000000000355, 4.074242989058400433 ) ) ;
#1031 = ORIENTED_EDGE ( 'NONE', *, *, #1013, .F. ) ;
#1032 = EDGE_CURVE ( 'NONE', #366, #1292, #580, .T. ) ;
#1033 = VERTEX_POINT ( 'NONE', #463 ) ;
#1034 = DIRECTION ( 'NONE',  ( 0.4999999999999995559, -0.8660254037844389297, 0.000000000000000000 ) ) ;
#1035 = CARTESIAN_POINT ( 'NONE',  ( -8.660254037844451247, 24.99999999999989697, 4.074242989058400433 ) ) ;
#1036 = EDGE_LOOP ( 'NONE', ( #1102, #399, #1251, #728 ) ) ;
#1037 = CARTESIAN_POINT ( 'NONE',  ( -17.32050807568877815, -10.00000000000000533, 8.074242989058399544 ) ) ;
#1038 = AXIS2_PLACEMENT_3D ( 'NONE', #954, #872, #1172 ) ;
#1039 = AXIS2_PLACEMENT_3D ( 'NONE', #1290, #371, #886 ) ;
#1040 = TOROIDAL_SURFACE ( 'NONE', #235, 1.999999999999998224, 4.000000000000000000 ) ;
#1041 = DIRECTION ( 'NONE',  ( -1.000000000000000000, 1.734723475976808080E-15, 0.000000000000000000 ) ) ;
#1042 = VECTOR ( 'NONE', #293, 1000.000000000000000 ) ;
#1043 = AXIS2_PLACEMENT_3D ( 'NONE', #869, #346, #974 ) ;
#1044 = AXIS2_PLACEMENT_3D ( 'NONE', #826, #493, #1131 ) ;
#1045 = DIRECTION ( 'NONE',  ( -0.8660254037844387076, -0.4999999999999998890, 0.000000000000000000 ) ) ;
#1046 = ORIENTED_EDGE ( 'NONE', *, *, #636, .T. ) ;
#1047 = APPROVAL_STATUS ( 'not_yet_approved' ) ;
#1048 = APPROVAL_DATE_TIME ( #572, #1060 ) ;
#1049 = DIRECTION ( 'NONE',  ( -0.000000000000000000, -0.000000000000000000, -1.000000000000000000 ) ) ;
#1050 = DIRECTION ( 'NONE',  ( 1.000000000000000000, 0.000000000000000000, 0.000000000000000000 ) ) ;
#1051 = DIRECTION ( 'NONE',  ( 1.000000000000000000, -1.001543065824777659E-16, 0.000000000000000000 ) ) ;
#1052 = CARTESIAN_POINT ( 'NONE',  ( 25.98076211353309617, -4.999999999999887201, 8.074242989058399544 ) ) ;
#1053 = DIRECTION ( 'NONE',  ( 0.000000000000000000, 0.000000000000000000, 1.000000000000000000 ) ) ;
#1054 = ADVANCED_FACE ( 'NONE', ( #958 ), #49, .T. ) ;
#1055 = CARTESIAN_POINT ( 'NONE',  ( -23.32050807568877104, -10.00000000000000533, 7.074242989058401321 ) ) ;
#1056 = VERTEX_POINT ( 'NONE', #772 ) ;
#1057 = LINE ( 'NONE', #354, #720 ) ;
#1058 = CARTESIAN_POINT ( 'NONE',  ( -5.196152422706670215, 22.99999999999994316, 2.074242989058400877 ) ) ;
#1059 = VERTEX_POINT ( 'NONE', #452 ) ;
#1060 = APPROVAL ( #156, 'Î´Ö' ) ;
#1061 = DIRECTION ( 'NONE',  ( -1.000000000000000000, 0.000000000000000000, 0.000000000000000000 ) ) ;
#1062 = DIRECTION ( 'NONE',  ( -0.8660254037844454800, -0.4999999999999882871, 0.000000000000000000 ) ) ;
#1063 = AXIS2_PLACEMENT_3D ( 'NONE', #459, #1213, #498 ) ;
#1064 = AXIS2_PLACEMENT_3D ( 'NONE', #200, #392, #803 ) ;
#1065 = CIRCLE ( 'NONE', #1043, 4.000000000000000000 ) ;
#1066 = FACE_OUTER_BOUND ( 'NONE', #1080, .T. ) ;
#1067 = DIRECTION ( 'NONE',  ( -0.8660254037844388186, -0.4999999999999999445, 0.000000000000000000 ) ) ;
#1068 = CIRCLE ( 'NONE', #928, 3.999999999999999112 ) ;
#1069 = DIRECTION ( 'NONE',  ( -0.000000000000000000, -0.000000000000000000, -1.000000000000000000 ) ) ;
#1070 =( NAMED_UNIT ( * ) PLANE_ANGLE_UNIT ( ) SI_UNIT ( $, .RADIAN. ) );
#1071 = CARTESIAN_POINT ( 'NONE',  ( 17.32050807568869644, -16.00000000000000355, 8.074242989058399544 ) ) ;
#1072 = CARTESIAN_POINT ( 'NONE',  ( 17.32050807568864315, -20.00000000000000355, 8.074242989058399544 ) ) ;
#1073 = CARTESIAN_POINT ( 'NONE',  ( -17.32050807568877815, -10.00000000000000533, 3.074242989058400877 ) ) ;
#1074 = LINE ( 'NONE', #473, #682 ) ;
#1075 = CARTESIAN_POINT ( 'NONE',  ( -23.32050807568877104, -10.00000000000000533, 8.074242989058399544 ) ) ;
#1076 = DIRECTION ( 'NONE',  ( -0.000000000000000000, -0.000000000000000000, -1.000000000000000000 ) ) ;
#1077 = EDGE_CURVE ( 'NONE', #123, #594, #618, .T. ) ;
#1078 = CARTESIAN_POINT ( 'NONE',  ( -25.98076211353308906, -4.999999999999887201, 4.074242989058400433 ) ) ;
#1079 = LINE ( 'NONE', #487, #405 ) ;
#1080 = EDGE_LOOP ( 'NONE', ( #726, #412, #1240, #1003 ) ) ;
#1081 = CARTESIAN_POINT ( 'NONE',  ( 17.32050807568864315, -20.00000000000000355, 2.074242989058400877 ) ) ;
#1082 = VECTOR ( 'NONE', #263, 1000.000000000000000 ) ;
#1083 = VECTOR ( 'NONE', #1158, 1000.000000000000000 ) ;
#1084 = CIRCLE ( 'NONE', #1129, 1.999999999999994893 ) ;
#1085 = TOROIDAL_SURFACE ( 'NONE', #1012, 1.999999999999994893, 4.000000000000000000 ) ;
#1086 = EDGE_LOOP ( 'NONE', ( #13, #340, #902, #1157 ) ) ;
#1087 = DIRECTION ( 'NONE',  ( -0.000000000000000000, -0.000000000000000000, -1.000000000000000000 ) ) ;
#1088 = ADVANCED_FACE ( 'NONE', ( #265 ), #968, .T. ) ;
#1089 = CARTESIAN_POINT ( 'NONE',  ( -1.359513603553773432E-15, -2.677721131907036772E-15, 8.074242989058399544 ) ) ;
#1090 = EDGE_LOOP ( 'NONE', ( #282, #58, #1096, #1230 ) ) ;
#1091 = APPLICATION_CONTEXT ( 'configuration controlled 3d designs of mechanical parts and assemblies' ) ;
#1092 = LINE ( 'NONE', #181, #234 ) ;
#1093 = FACE_OUTER_BOUND ( 'NONE', #821, .T. ) ;
#1094 = ADVANCED_FACE ( 'NONE', ( #38 ), #662, .T. ) ;
#1095 = CARTESIAN_POINT ( 'NONE',  ( -25.98076211353308906, -4.999999999999887201, 2.074242989058400877 ) ) ;
#1096 = ORIENTED_EDGE ( 'NONE', *, *, #975, .T. ) ;
#1097 = MANIFOLD_SOLID_BREP ( 'Ëõ·Å±', #1015 ) ;
#1098 = ORIENTED_EDGE ( 'NONE', *, *, #419, .T. ) ;
#1099 = CARTESIAN_POINT ( 'NONE',  ( 17.32050807568869644, -12.00000000000000178, 3.074242989058400877 ) ) ;
#1100 = ADVANCED_FACE ( 'NONE', ( #342 ), #646, .F. ) ;
#1101 = DIRECTION ( 'NONE',  ( 0.000000000000000000, 0.000000000000000000, 1.000000000000000000 ) ) ;
#1102 = ORIENTED_EDGE ( 'NONE', *, *, #362, .F. ) ;
#1103 = AXIS2_PLACEMENT_3D ( 'NONE', #4, #794, #483 ) ;
#1104 = CARTESIAN_POINT ( 'NONE',  ( -10.39230484541326405, 5.999999999999990230, 3.074242989058400877 ) ) ;
#1105 = ORIENTED_EDGE ( 'NONE', *, *, #541, .F. ) ;
#1106 = CARTESIAN_POINT ( 'NONE',  ( -17.32050807568863604, -16.00000000000000000, 4.074242989058400433 ) ) ;
#1107 = AXIS2_PLACEMENT_3D ( 'NONE', #387, #81, #485 ) ;
#1108 = CARTESIAN_POINT ( 'NONE',  ( -17.32050807568868933, -12.00000000000000000, 7.074242989058401321 ) ) ;
#1109 = AXIS2_PLACEMENT_3D ( 'NONE', #678, #296, #799 ) ;
#1110 = CARTESIAN_POINT ( 'NONE',  ( -17.32050807568877815, -10.00000000000000533, 7.074242989058401321 ) ) ;
#1111 = EDGE_CURVE ( 'NONE', #718, #1026, #1170, .T. ) ;
#1112 = ORIENTED_EDGE ( 'NONE', *, *, #623, .T. ) ;
#1113 = DIRECTION ( 'NONE',  ( 1.000000000000000000, 0.000000000000000000, 0.000000000000000000 ) ) ;
#1114 = ORIENTED_EDGE ( 'NONE', *, *, #806, .T. ) ;
#1115 = ADVANCED_FACE ( 'NONE', ( #550 ), #479, .T. ) ;
#1116 = DIRECTION ( 'NONE',  ( 0.8660254037844388186, 0.4999999999999998335, 0.000000000000000000 ) ) ;
#1117 = DIRECTION ( 'NONE',  ( 0.000000000000000000, 0.000000000000000000, 1.000000000000000000 ) ) ;
#1118 = ORIENTED_EDGE ( 'NONE', *, *, #1024, .T. ) ;
#1119 = PERSON_AND_ORGANIZATION ( #798, #724 ) ;
#1120 = DATE_TIME_ROLE ( 'creation_date' ) ;
#1121 = CARTESIAN_POINT ( 'NONE',  ( 8.660254037844456576, 24.99999999999990052, 2.074242989058400877 ) ) ;
#1122 = DIRECTION ( 'NONE',  ( 1.000000000000000000, 0.000000000000000000, 0.000000000000000000 ) ) ;
#1123 = VERTEX_POINT ( 'NONE', #307 ) ;
#1124 = ORIENTED_EDGE ( 'NONE', *, *, #477, .T. ) ;
#1125 = SECURITY_CLASSIFICATION_LEVEL ( 'unclassified' ) ;
#1126 = AXIS2_PLACEMENT_3D ( 'NONE', #244, #1270, #1050 ) ;
#1127 = EDGE_CURVE ( 'NONE', #227, #1059, #596, .T. ) ;
#1128 = AXIS2_PLACEMENT_3D ( 'NONE', #315, #738, #642 ) ;
#1129 = AXIS2_PLACEMENT_3D ( 'NONE', #1073, #675, #159 ) ;
#1130 = VECTOR ( 'NONE', #935, 1000.000000000000000 ) ;
#1131 = DIRECTION ( 'NONE',  ( -1.301042606982605321E-14, -1.000000000000000000, 0.000000000000000000 ) ) ;
#1132 = LINE ( 'NONE', #1035, #176 ) ;
#1133 = EDGE_LOOP ( 'NONE', ( #756, #10, #303, #563 ) ) ;
#1134 = CARTESIAN_POINT ( 'NONE',  ( 25.98076211353309617, -4.999999999999887201, 8.074242989058399544 ) ) ;
#1135 = EDGE_CURVE ( 'NONE', #989, #1056, #409, .T. ) ;
#1136 = ORIENTED_EDGE ( 'NONE', *, *, #645, .F. ) ;
#1137 = ORIENTED_EDGE ( 'NONE', *, *, #908, .T. ) ;
#1138 = EDGE_CURVE ( 'NONE', #784, #494, #44, .T. ) ;
#1139 = DIRECTION ( 'NONE',  ( 0.000000000000000000, 0.000000000000000000, 1.000000000000000000 ) ) ;
#1140 = ORIENTED_EDGE ( 'NONE', *, *, #681, .T. ) ;
#1141 = ORIENTED_EDGE ( 'NONE', *, *, #286, .T. ) ;
#1142 = AXIS2_PLACEMENT_3D ( 'NONE', #950, #138, #50 ) ;
#1143 = TOROIDAL_SURFACE ( 'NONE', #1064, 5.999999999999998224, 4.000000000000000000 ) ;
#1144 = CIRCLE ( 'NONE', #555, 5.999999999999994671 ) ;
#1145 = AXIS2_PLACEMENT_3D ( 'NONE', #592, #624, #990 ) ;
#1146 = CARTESIAN_POINT ( 'NONE',  ( 17.32050807568874973, -12.00000000000000355, 7.074242989058401321 ) ) ;
#1147 = CIRCLE ( 'NONE', #486, 4.000000000000000000 ) ;
#1148 = EDGE_LOOP ( 'NONE', ( #1151, #1203, #630, #439 ) ) ;
#1149 = CYLINDRICAL_SURFACE ( 'NONE', #297, 3.999999999999998668 ) ;
#1150 = CARTESIAN_POINT ( 'NONE',  ( 17.32050807568864315, -20.00000000000000355, 4.074242989058400433 ) ) ;
#1151 = ORIENTED_EDGE ( 'NONE', *, *, #353, .F. ) ;
#1152 = CARTESIAN_POINT ( 'NONE',  ( -1.359513603553773432E-15, -2.677721131907036772E-15, 8.074242989058399544 ) ) ;
#1153 = CARTESIAN_POINT ( 'NONE',  ( 22.51666049839541017, -7.000000000000000000, 4.074242989058400433 ) ) ;
#1154 = EDGE_CURVE ( 'NONE', #288, #403, #361, .T. ) ;
#1155 = DIRECTION ( 'NONE',  ( -0.000000000000000000, -0.000000000000000000, -1.000000000000000000 ) ) ;
#1156 = CARTESIAN_POINT ( 'NONE',  ( 17.32050807568877815, -10.00000000000000000, 3.074242989058400877 ) ) ;
#1157 = ORIENTED_EDGE ( 'NONE', *, *, #224, .T. ) ;
#1158 = DIRECTION ( 'NONE',  ( -1.000000000000000000, 1.001543065824780494E-16, -0.000000000000000000 ) ) ;
#1159 = CARTESIAN_POINT ( 'NONE',  ( 0.000000000000000000, 0.000000000000000000, 0.000000000000000000 ) ) ;
#1160 = DIRECTION ( 'NONE',  ( -1.000000000000000000, 0.000000000000000000, 0.000000000000000000 ) ) ;
#1161 = ORIENTED_EDGE ( 'NONE', *, *, #401, .F. ) ;
#1162 = CARTESIAN_POINT ( 'NONE',  ( 22.51666049839537109, -6.999999999999931610, 8.074242989058399544 ) ) ;
#1163 = DIRECTION ( 'NONE',  ( -1.000000000000000000, 0.000000000000000000, 0.000000000000000000 ) ) ;
#1164 = FACE_OUTER_BOUND ( 'NONE', #1224, .T. ) ;
#1165 = CC_DESIGN_DATE_AND_TIME_ASSIGNMENT ( #622, #932, ( #951 ) ) ;
#1166 = ADVANCED_FACE ( 'NONE', ( #1093 ), #906, .T. ) ;
#1167 = AXIS2_PLACEMENT_3D ( 'NONE', #863, #1286, #174 ) ;
#1168 =( GEOMETRIC_REPRESENTATION_CONTEXT ( 3 ) GLOBAL_UNCERTAINTY_ASSIGNED_CONTEXT ( ( #1219 ) ) GLOBAL_UNIT_ASSIGNED_CONTEXT ( ( #548, #1070, #356 ) ) REPRESENTATION_CONTEXT ( 'NONE', 'WORKASPACE' ) );
#1169 = FACE_OUTER_BOUND ( 'NONE', #117, .T. ) ;
#1170 = LINE ( 'NONE', #1072, #258 ) ;
#1171 = AXIS2_PLACEMENT_3D ( 'NONE', #631, #131, #390 ) ;
#1172 = DIRECTION ( 'NONE',  ( 0.8660254037844389297, -0.4999999999999995559, 0.000000000000000000 ) ) ;
#1173 = FACE_OUTER_BOUND ( 'NONE', #617, .T. ) ;
#1174 = EDGE_LOOP ( 'NONE', ( #221, #119, #588, #699 ) ) ;
#1175 = COORDINATED_UNIVERSAL_TIME_OFFSET ( 8, 0, .AHEAD. ) ;
#1176 = CARTESIAN_POINT ( 'NONE',  ( 4.999999999999998224, -2.065397732333360243E-15, 8.074242989058399544 ) ) ;
#1177 = ORIENTED_EDGE ( 'NONE', *, *, #719, .F. ) ;
#1178 = LINE ( 'NONE', #1288, #402 ) ;
#1179 = FACE_OUTER_BOUND ( 'NONE', #154, .T. ) ;
#1180 = CARTESIAN_POINT ( 'NONE',  ( 6.999999999999998224, -1.820468372503889552E-15, 7.074242989058401321 ) ) ;
#1181 = CC_DESIGN_PERSON_AND_ORGANIZATION_ASSIGNMENT ( #1234, #834, ( #638 ) ) ;
#1182 = VERTEX_POINT ( 'NONE', #1195 ) ;
#1183 = EDGE_CURVE ( 'NONE', #989, #126, #274, .T. ) ;
#1184 = CYLINDRICAL_SURFACE ( 'NONE', #788, 7.000000000000000000 ) ;
#1185 = DIRECTION ( 'NONE',  ( -1.000000000000000000, 0.000000000000000000, 0.000000000000000000 ) ) ;
#1186 = FACE_OUTER_BOUND ( 'NONE', #213, .T. ) ;
#1187 = EDGE_LOOP ( 'NONE', ( #391, #709, #317, #208 ) ) ;
#1188 = CIRCLE ( 'NONE', #1128, 4.000000000000000000 ) ;
#1189 = CIRCLE ( 'NONE', #907, 5.999999999999994671 ) ;
#1190 = CARTESIAN_POINT ( 'NONE',  ( 3.335262747169070467E-15, 20.00000000000001776, 3.074242989058400877 ) ) ;
#1191 = EDGE_CURVE ( 'NONE', #306, #692, #250, .T. ) ;
#1192 = CARTESIAN_POINT ( 'NONE',  ( 17.32050807568869644, -16.00000000000000355, 7.074242989058401321 ) ) ;
#1193 = TOROIDAL_SURFACE ( 'NONE', #1259, 5.999999999999994671, 4.000000000000000000 ) ;
#1194 = ORIENTED_EDGE ( 'NONE', *, *, #513, .T. ) ;
#1195 = CARTESIAN_POINT ( 'NONE',  ( -5.000000000000001776, -2.677721131907036772E-15, 3.074242989058400877 ) ) ;
#1196 = DIRECTION ( 'NONE',  ( -0.4999999999999997780, -0.8660254037844387076, 0.000000000000000000 ) ) ;
#1197 = VERTEX_POINT ( 'NONE', #1099 ) ;
#1198 = ORIENTED_EDGE ( 'NONE', *, *, #178, .T. ) ;
#1199 = DIRECTION ( 'NONE',  ( -0.000000000000000000, -0.000000000000000000, -1.000000000000000000 ) ) ;
#1200 = ADVANCED_FACE ( 'NONE', ( #695, #994 ), #683, .T. ) ;
#1201 = DIRECTION ( 'NONE',  ( 1.000000000000000000, 0.000000000000000000, 0.000000000000000000 ) ) ;
#1202 = CARTESIAN_POINT ( 'NONE',  ( -17.32050807568877815, -10.00000000000000533, 4.074242989058400433 ) ) ;
#1203 = ORIENTED_EDGE ( 'NONE', *, *, #714, .T. ) ;
#1204 = CARTESIAN_POINT ( 'NONE',  ( -17.32050807568868933, -16.00000000000000000, 7.074242989058401321 ) ) ;
#1205 = ORIENTED_EDGE ( 'NONE', *, *, #155, .T. ) ;
#1206 = DIRECTION ( 'NONE',  ( 1.000000000000000000, 0.000000000000000000, 0.000000000000000000 ) ) ;
#1207 = CARTESIAN_POINT ( 'NONE',  ( -25.98076211353308906, -4.999999999999887201, 8.074242989058399544 ) ) ;
#1208 = DIRECTION ( 'NONE',  ( -0.000000000000000000, -0.000000000000000000, 1.000000000000000000 ) ) ;
#1209 = ADVANCED_FACE ( 'NONE', ( #690 ), #1001, .F. ) ;
#1210 = ORIENTED_EDGE ( 'NONE', *, *, #135, .T. ) ;
#1211 = AXIS2_PLACEMENT_3D ( 'NONE', #904, #407, #694 ) ;
#1212 = EDGE_LOOP ( 'NONE', ( #35, #539, #18, #1222 ) ) ;
#1213 = DIRECTION ( 'NONE',  ( -0.000000000000000000, -0.000000000000000000, -1.000000000000000000 ) ) ;
#1214 = ORIENTED_EDGE ( 'NONE', *, *, #206, .F. ) ;
#1215 = AXIS2_PLACEMENT_3D ( 'NONE', #658, #680, #157 ) ;
#1216 = AXIS2_PLACEMENT_3D ( 'NONE', #755, #648, #562 ) ;
#1217 = AXIS2_PLACEMENT_3D ( 'NONE', #564, #957, #745 ) ;
#1218 = CIRCLE ( 'NONE', #471, 9.999999999999998224 ) ;
#1219 = UNCERTAINTY_MEASURE_WITH_UNIT (LENGTH_MEASURE( 1.000000000000000082E-05 ), #548, 'distance_accuracy_value', 'NONE');
#1220 = CIRCLE ( 'NONE', #1109, 7.000000000000000000 ) ;
#1221 = EDGE_CURVE ( 'NONE', #936, #600, #866, .T. ) ;
#1222 = ORIENTED_EDGE ( 'NONE', *, *, #375, .F. ) ;
#1223 = DIRECTION ( 'NONE',  ( -1.000000000000000000, 0.000000000000000000, 0.000000000000000000 ) ) ;
#1224 = EDGE_LOOP ( 'NONE', ( #715, #143, #311, #433 ) ) ;
#1225 = VERTEX_POINT ( 'NONE', #1304 ) ;
#1226 = EDGE_CURVE ( 'NONE', #126, #306, #6, .T. ) ;
#1227 = EDGE_LOOP ( 'NONE', ( #325, #416, #1303, #536 ) ) ;
#1228 = DIRECTION ( 'NONE',  ( 0.4999999999999998890, 0.8660254037844387076, -0.000000000000000000 ) ) ;
#1229 = EDGE_CURVE ( 'NONE', #462, #497, #813, .T. ) ;
#1230 = ORIENTED_EDGE ( 'NONE', *, *, #1135, .F. ) ;
#1231 = FACE_OUTER_BOUND ( 'NONE', #220, .T. ) ;
#1232 = CARTESIAN_POINT ( 'NONE',  ( 3.335262747169070467E-15, 20.00000000000001776, 2.074242989058400877 ) ) ;
#1233 = EDGE_LOOP ( 'NONE', ( #609, #898, #1124, #132 ) ) ;
#1234 = PERSON_AND_ORGANIZATION ( #798, #724 ) ;
#1235 = EDGE_CURVE ( 'NONE', #718, #611, #853, .T. ) ;
#1236 = AXIS2_PLACEMENT_3D ( 'NONE', #761, #341, #967 ) ;
#1237 = CC_DESIGN_SECURITY_CLASSIFICATION ( #951, ( #638 ) ) ;
#1238 = AXIS2_PLACEMENT_3D ( 'NONE', #88, #121, #1247 ) ;
#1239 = DIRECTION ( 'NONE',  ( 1.000000000000000000, 0.000000000000000000, 0.000000000000000000 ) ) ;
#1240 = ORIENTED_EDGE ( 'NONE', *, *, #1229, .F. ) ;
#1241 = EDGE_LOOP ( 'NONE', ( #837, #298, #383, #963 ) ) ;
#1242 = LINE ( 'NONE', #818, #581 ) ;
#1243 = ORIENTED_EDGE ( 'NONE', *, *, #286, .F. ) ;
#1244 = DIRECTION ( 'NONE',  ( 0.000000000000000000, 1.000000000000000000, 0.000000000000000000 ) ) ;
#1245 = ADVANCED_FACE ( 'NONE', ( #188 ), #879, .F. ) ;
#1246 = CARTESIAN_POINT ( 'NONE',  ( -7.000000000000001776, -2.677721131907036772E-15, 8.074242989058399544 ) ) ;
#1247 = DIRECTION ( 'NONE',  ( -1.387778780781445676E-14, 1.000000000000000000, 0.000000000000000000 ) ) ;
#1248 = EDGE_LOOP ( 'NONE', ( #915, #895, #398, #829 ) ) ;
#1249 = ORIENTED_EDGE ( 'NONE', *, *, #17, .T. ) ;
#1250 = CARTESIAN_POINT ( 'NONE',  ( 19.05255888325765667, -9.000000000000000000, 7.074242989058401321 ) ) ;
#1251 = ORIENTED_EDGE ( 'NONE', *, *, #178, .F. ) ;
#1252 = EDGE_CURVE ( 'NONE', #1059, #276, #93, .T. ) ;
#1253 = LINE ( 'NONE', #32, #1130 ) ;
#1254 = DIRECTION ( 'NONE',  ( 0.000000000000000000, 0.000000000000000000, -1.000000000000000000 ) ) ;
#1255 = ORIENTED_EDGE ( 'NONE', *, *, #719, .T. ) ;
#1256 = ORIENTED_EDGE ( 'NONE', *, *, #229, .T. ) ;
#1257 = CIRCLE ( 'NONE', #42, 5.999999999999994671 ) ;
#1258 = AXIS2_PLACEMENT_3D ( 'NONE', #62, #365, #142 ) ;
#1259 = AXIS2_PLACEMENT_3D ( 'NONE', #94, #897, #73 ) ;
#1260 = ADVANCED_FACE ( 'NONE', ( #179 ), #579, .T. ) ;
#1261 = CARTESIAN_POINT ( 'NONE',  ( -17.32050807568877815, -10.00000000000000533, 4.074242989058400433 ) ) ;
#1262 = DIRECTION ( 'NONE',  ( 0.8660254037844388186, 0.4999999999999999445, 0.000000000000000000 ) ) ;
#1263 = DIRECTION ( 'NONE',  ( -0.000000000000000000, -0.000000000000000000, -1.000000000000000000 ) ) ;
#1264 = DIRECTION ( 'NONE',  ( -0.000000000000000000, -0.000000000000000000, -1.000000000000000000 ) ) ;
#1265 = CARTESIAN_POINT ( 'NONE',  ( 6.999999999999998224, -1.820468372503889552E-15, 8.074242989058399544 ) ) ;
#1266 = ORIENTED_EDGE ( 'NONE', *, *, #521, .T. ) ;
#1267 = DIRECTION ( 'NONE',  ( -0.8660254037844323793, -0.5000000000000111022, 0.000000000000000000 ) ) ;
#1268 = CARTESIAN_POINT ( 'NONE',  ( 17.32050807568869644, -16.00000000000000355, 3.074242989058400877 ) ) ;
#1269 = CARTESIAN_POINT ( 'NONE',  ( -1.359513603553773432E-15, -2.677721131907036772E-15, 7.074242989058401321 ) ) ;
#1270 = DIRECTION ( 'NONE',  ( 0.000000000000000000, 0.000000000000000000, 1.000000000000000000 ) ) ;
#1271 = EDGE_CURVE ( 'NONE', #1026, #306, #275, .T. ) ;
#1272 = CARTESIAN_POINT ( 'NONE',  ( -17.32050807568877815, -10.00000000000000533, 8.074242989058399544 ) ) ;
#1273 = CARTESIAN_POINT ( 'NONE',  ( 17.32050807568877815, -10.00000000000000000, 7.074242989058401321 ) ) ;
#1274 = PLANE ( 'NONE',  #1236 ) ;
#1275 = DIRECTION ( 'NONE',  ( 1.000000000000000000, 0.000000000000000000, 0.000000000000000000 ) ) ;
#1276 = DIRECTION ( 'NONE',  ( 0.4999999999999997780, -0.8660254037844388186, 0.000000000000000000 ) ) ;
#1277 = DIRECTION ( 'NONE',  ( 0.000000000000000000, 0.000000000000000000, -1.000000000000000000 ) ) ;
#1278 = FACE_OUTER_BOUND ( 'NONE', #708, .T. ) ;
#1279 = EDGE_CURVE ( 'NONE', #734, #185, #76, .T. ) ;
#1280 = AXIS2_PLACEMENT_3D ( 'NONE', #1009, #992, #195 ) ;
#1281 = AXIS2_PLACEMENT_3D ( 'NONE', #983, #686, #880 ) ;
#1282 = CARTESIAN_POINT ( 'NONE',  ( -17.32050807568863604, -20.00000000000000000, 4.074242989058400433 ) ) ;
#1283 = VECTOR ( 'NONE', #791, 1000.000000000000000 ) ;
#1284 = CARTESIAN_POINT ( 'NONE',  ( -22.51666049839533557, -6.999999999999888090, -1.925757010941599567 ) ) ;
#1285 = DIRECTION ( 'NONE',  ( 0.000000000000000000, 0.000000000000000000, 1.000000000000000000 ) ) ;
#1286 = DIRECTION ( 'NONE',  ( -0.000000000000000000, -0.000000000000000000, -1.000000000000000000 ) ) ;
#1287 = CARTESIAN_POINT ( 'NONE',  ( -1.359513603553773432E-15, -2.677721131907036772E-15, 3.074242989058400877 ) ) ;
#1288 = CARTESIAN_POINT ( 'NONE',  ( 8.660254037844458352, 24.99999999999989697, 8.074242989058399544 ) ) ;
#1289 = LINE ( 'NONE', #961, #171 ) ;
#1290 = CARTESIAN_POINT ( 'NONE',  ( -1.359513603553773432E-15, -2.677721131907036772E-15, 8.074242989058399544 ) ) ;
#1291 = EDGE_CURVE ( 'NONE', #288, #1225, #449, .T. ) ;
#1292 = VERTEX_POINT ( 'NONE', #1055 ) ;
#1293 = DIRECTION ( 'NONE',  ( -0.000000000000000000, -0.000000000000000000, -1.000000000000000000 ) ) ;
#1294 = LINE ( 'NONE', #183, #971 ) ;
#1295 = ORIENTED_EDGE ( 'NONE', *, *, #822, .F. ) ;
#1296 = VECTOR ( 'NONE', #400, 1000.000000000000000 ) ;
#1297 = ADVANCED_FACE ( 'NONE', ( #364 ), #61, .F. ) ;
#1298 = TOROIDAL_SURFACE ( 'NONE', #170, 11.00000000000000000, 4.000000000000000000 ) ;
#1299 = AXIS2_PLACEMENT_3D ( 'NONE', #1058, #556, #167 ) ;
#1300 = CARTESIAN_POINT ( 'NONE',  ( -17.32050807568877815, -10.00000000000000533, 7.074242989058401321 ) ) ;
#1301 = AXIS2_PLACEMENT_3D ( 'NONE', #585, #396, #976 ) ;
#1302 = CIRCLE ( 'NONE', #725, 5.000000000000000000 ) ;
#1303 = ORIENTED_EDGE ( 'NONE', *, *, #782, .T. ) ;
#1304 = CARTESIAN_POINT ( 'NONE',  ( 23.32050807568877815, -10.00000000000000000, 7.074242989058401321 ) ) ;
#1305 = DIRECTION ( 'NONE',  ( 1.000000000000000000, 0.000000000000000000, 0.000000000000000000 ) ) ;
#1306 = ORIENTED_EDGE ( 'NONE', *, *, #882, .T. ) ;
#1307 = DIRECTION ( 'NONE',  ( 1.000000000000000000, 0.000000000000000000, 0.000000000000000000 ) ) ;
#1308 = DIRECTION ( 'NONE',  ( 0.4999999999999997780, 0.8660254037844387076, -0.000000000000000000 ) ) ;
#1309 = EDGE_CURVE ( 'NONE', #923, #1197, #321, .T. ) ;
#1310 = ORIENTED_EDGE ( 'NONE', *, *, #481, .T. ) ;
#1311 = CARTESIAN_POINT ( 'NONE',  ( 6.999999999999998224, -1.820468372503889552E-15, 8.074242989058399544 ) ) ;
ENDSEC;
END-ISO-10303-21;
