ISO-10303-21;
HEADER;
FILE_DESCRIPTION (( 'STEP AP203' ),
    '1' );
FILE_NAME ('Áã¼þ1.ST',
    '2026-08-16T01:48:05',
    ( '2938476671@qq.com' ),
    ( '' ),
    'SwSTEP 2.0',
    'SolidWorks 2022',
    '' );
FILE_SCHEMA (( 'CONFIG_CONTROL_DESIGN' ));
ENDSEC;

DATA;
#1 = ORIENTED_EDGE ( 'NONE', *, *, #650, .F. ) ;
#2 = ORGANIZATION ( 'Î´Ö', 'Î´Ö', '' ) ;
#3 = PLANE ( 'NONE',  #647 ) ;
#4 = FACE_OUTER_BOUND ( 'NONE', #414, .T. ) ;
#5 = VERTEX_POINT ( 'NONE', #51 ) ;
#6 = EDGE_CURVE ( 'NONE', #697, #693, #749, .T. ) ;
#7 = FACE_OUTER_BOUND ( 'NONE', #160, .T. ) ;
#8 = AXIS2_PLACEMENT_3D ( 'NONE', #123, #74, #327 ) ;
#9 = LINE ( 'NONE', #374, #680 ) ;
#10 = DIRECTION ( 'NONE',  ( -0.000000000000000000, -0.000000000000000000, -1.000000000000000000 ) ) ;
#11 = CARTESIAN_POINT ( 'NONE',  ( 8.660254037844389075, -4.999999999999998224, 5.000000000000000000 ) ) ;
#12 = AXIS2_PLACEMENT_3D ( 'NONE', #507, #465, #736 ) ;
#13 = EDGE_CURVE ( 'NONE', #508, #16, #469, .T. ) ;
#14 = CARTESIAN_POINT ( 'NONE',  ( 12.99038105676654808, -2.499999999999942268, 5.000000000000000000 ) ) ;
#15 = FACE_OUTER_BOUND ( 'NONE', #477, .T. ) ;
#16 = VERTEX_POINT ( 'NONE', #621 ) ;
#17 = CIRCLE ( 'NONE', #313, 3.000000000000000888 ) ;
#18 = ADVANCED_FACE ( 'NONE', ( #91 ), #570, .T. ) ;
#19 = AXIS2_PLACEMENT_3D ( 'NONE', #484, #64, #709 ) ;
#20 = DIRECTION ( 'NONE',  ( -0.000000000000000000, -0.000000000000000000, 1.000000000000000000 ) ) ;
#21 = CARTESIAN_POINT ( 'NONE',  ( -4.330127018922224735, 12.49999999999995026, 5.000000000000000000 ) ) ;
#22 = ORIENTED_EDGE ( 'NONE', *, *, #399, .F. ) ;
#23 = LINE ( 'NONE', #551, #689 ) ;
#24 = CARTESIAN_POINT ( 'NONE',  ( 2.598076211353352871, 11.49999999999995026, 5.000000000000000000 ) ) ;
#25 = ORIENTED_EDGE ( 'NONE', *, *, #312, .F. ) ;
#26 = PRODUCT_RELATED_PRODUCT_CATEGORY ( 'detail', '', ( #750 ) ) ;
#27 = DIRECTION ( 'NONE',  ( 0.000000000000000000, 0.000000000000000000, 1.000000000000000000 ) ) ;
#28 = DIRECTION ( 'NONE',  ( 0.000000000000000000, 0.000000000000000000, 1.000000000000000000 ) ) ;
#29 = ORIENTED_EDGE ( 'NONE', *, *, #451, .T. ) ;
#30 = EDGE_CURVE ( 'NONE', #5, #697, #111, .T. ) ;
#31 = EDGE_LOOP ( 'NONE', ( #110, #566, #532, #724 ) ) ;
#32 = CYLINDRICAL_SURFACE ( 'NONE', #230, 2.999999999999997335 ) ;
#33 = CARTESIAN_POINT ( 'NONE',  ( -4.330127018922224735, 12.49999999999995026, 0.000000000000000000 ) ) ;
#34 = ORIENTED_EDGE ( 'NONE', *, *, #126, .T. ) ;
#35 = CIRCLE ( 'NONE', #242, 2.999999999999999112 ) ;
#36 = DIRECTION ( 'NONE',  ( -0.000000000000000000, -0.000000000000000000, 1.000000000000000000 ) ) ;
#37 = CARTESIAN_POINT ( 'NONE',  ( 8.660254037844348218, -8.000000000000000000, 5.000000000000000000 ) ) ;
#38 = CARTESIAN_POINT ( 'NONE',  ( 2.347388175361421753E-15, 10.00000000000001066, 5.000000000000000000 ) ) ;
#39 = EDGE_CURVE ( 'NONE', #280, #466, #630, .T. ) ;
#40 = APPROVAL_PERSON_ORGANIZATION ( #401, #377, #353 ) ;
#41 = CARTESIAN_POINT ( 'NONE',  ( -8.660254037844389075, -5.000000000000000888, 5.000000000000000000 ) ) ;
#42 = ORIENTED_EDGE ( 'NONE', *, *, #575, .F. ) ;
#43 = AXIS2_PLACEMENT_3D ( 'NONE', #140, #310, #720 ) ;
#44 = FACE_OUTER_BOUND ( 'NONE', #605, .T. ) ;
#45 = ORIENTED_EDGE ( 'NONE', *, *, #30, .T. ) ;
#46 =( NAMED_UNIT ( * ) SI_UNIT ( $, .STERADIAN. ) SOLID_ANGLE_UNIT ( ) );
#47 = FACE_OUTER_BOUND ( 'NONE', #580, .T. ) ;
#48 = EDGE_CURVE ( 'NONE', #637, #326, #577, .T. ) ;
#49 = ORIENTED_EDGE ( 'NONE', *, *, #142, .T. ) ;
#50 = DIRECTION ( 'NONE',  ( 1.000000000000000000, 0.000000000000000000, 0.000000000000000000 ) ) ;
#51 = CARTESIAN_POINT ( 'NONE',  ( 2.500000000000000000, 3.061616997868383141E-16, 5.000000000000000000 ) ) ;
#52 = CC_DESIGN_DATE_AND_TIME_ASSIGNMENT ( #308, #488, ( #613 ) ) ;
#53 = ORIENTED_EDGE ( 'NONE', *, *, #39, .F. ) ;
#54 = CIRCLE ( 'NONE', #497, 2.999999999999997335 ) ;
#55 = AXIS2_PLACEMENT_3D ( 'NONE', #75, #83, #380 ) ;
#56 = CALENDAR_DATE ( 2026, 16, 8 ) ;
#57 = ORIENTED_EDGE ( 'NONE', *, *, #117, .T. ) ;
#58 = APPROVAL_STATUS ( 'not_yet_approved' ) ;
#59 = DIRECTION ( 'NONE',  ( -0.4999999999999997780, -0.8660254037844387076, 0.000000000000000000 ) ) ;
#60 = ORIENTED_EDGE ( 'NONE', *, *, #73, .T. ) ;
#61 = ADVANCED_FACE ( 'NONE', ( #4 ), #590, .F. ) ;
#62 = DIRECTION ( 'NONE',  ( 1.000000000000000000, 0.000000000000000000, 0.000000000000000000 ) ) ;
#63 = AXIS2_PLACEMENT_3D ( 'NONE', #223, #458, #681 ) ;
#64 = DIRECTION ( 'NONE',  ( 0.000000000000000000, 0.000000000000000000, 1.000000000000000000 ) ) ;
#65 = VECTOR ( 'NONE', #323, 1000.000000000000000 ) ;
#66 = DIRECTION ( 'NONE',  ( 0.000000000000000000, 0.000000000000000000, 1.000000000000000000 ) ) ;
#67 = DIRECTION ( 'NONE',  ( -0.000000000000000000, -0.000000000000000000, 1.000000000000000000 ) ) ;
#68 = EDGE_CURVE ( 'NONE', #285, #667, #350, .T. ) ;
#69 = DIRECTION ( 'NONE',  ( 1.000000000000000000, 0.000000000000000000, 0.000000000000000000 ) ) ;
#70 = CARTESIAN_POINT ( 'NONE',  ( 2.500000000000000000, 3.061616997868383141E-16, 5.000000000000000000 ) ) ;
#71 = ORIENTED_EDGE ( 'NONE', *, *, #622, .T. ) ;
#72 = CC_DESIGN_APPROVAL ( #377, ( #159 ) ) ;
#73 = EDGE_CURVE ( 'NONE', #325, #455, #172, .T. ) ;
#74 = DIRECTION ( 'NONE',  ( 0.000000000000000000, 0.000000000000000000, 1.000000000000000000 ) ) ;
#75 = CARTESIAN_POINT ( 'NONE',  ( 0.000000000000000000, 0.000000000000000000, 5.000000000000000000 ) ) ;
#76 = ORIENTED_EDGE ( 'NONE', *, *, #638, .F. ) ;
#77 = VECTOR ( 'NONE', #411, 1000.000000000000000 ) ;
#78 = LINE ( 'NONE', #619, #130 ) ;
#79 = CARTESIAN_POINT ( 'NONE',  ( -11.25833024919766956, -3.499999999999945821, 2.500000000000000000 ) ) ;
#80 = ORIENTED_EDGE ( 'NONE', *, *, #117, .F. ) ;
#81 = EDGE_CURVE ( 'NONE', #693, #166, #731, .T. ) ;
#82 = DIRECTION ( 'NONE',  ( -0.000000000000000000, -0.000000000000000000, -1.000000000000000000 ) ) ;
#83 = DIRECTION ( 'NONE',  ( -0.000000000000000000, -0.000000000000000000, -1.000000000000000000 ) ) ;
#84 = ORIENTED_EDGE ( 'NONE', *, *, #712, .F. ) ;
#85 = DIRECTION ( 'NONE',  ( 1.000000000000000000, 0.000000000000000000, 0.000000000000000000 ) ) ;
#86 = DIRECTION ( 'NONE',  ( -0.000000000000000000, 0.000000000000000000, -1.000000000000000000 ) ) ;
#87 = ORIENTED_EDGE ( 'NONE', *, *, #669, .F. ) ;
#88 = EDGE_LOOP ( 'NONE', ( #155, #276, #628, #574 ) ) ;
#89 = DIRECTION ( 'NONE',  ( 1.000000000000000000, -1.001543065824777659E-16, 0.000000000000000000 ) ) ;
#90 = FACE_BOUND ( 'NONE', #226, .T. ) ;
#91 = FACE_OUTER_BOUND ( 'NONE', #88, .T. ) ;
#92 = ADVANCED_FACE ( 'NONE', ( #182 ), #416, .F. ) ;
#93 = ORIENTED_EDGE ( 'NONE', *, *, #349, .F. ) ;
#94 = CARTESIAN_POINT ( 'NONE',  ( 8.660254037844348218, -8.000000000000000000, 2.500000000000000000 ) ) ;
#95 = EDGE_LOOP ( 'NONE', ( #252, #623, #634, #316, #471, #225, #494 ) ) ;
#96 = CC_DESIGN_PERSON_AND_ORGANIZATION_ASSIGNMENT ( #426, #654, ( #236 ) ) ;
#97 = VECTOR ( 'NONE', #290, 1000.000000000000000 ) ;
#98 = CIRCLE ( 'NONE', #262, 4.999999999999997335 ) ;
#99 = FACE_OUTER_BOUND ( 'NONE', #437, .T. ) ;
#100 = VERTEX_POINT ( 'NONE', #703 ) ;
#101 = PRODUCT_DEFINITION_SHAPE ( 'NONE', 'NONE',  #159 ) ;
#102 = LINE ( 'NONE', #457, #373 ) ;
#103 = DIRECTION ( 'NONE',  ( -0.4999999999999997780, 0.8660254037844387076, 0.000000000000000000 ) ) ;
#104 = ORIENTED_EDGE ( 'NONE', *, *, #545, .T. ) ;
#105 = AXIS2_PLACEMENT_3D ( 'NONE', #719, #728, #208 ) ;
#106 = ORIENTED_EDGE ( 'NONE', *, *, #81, .F. ) ;
#107 = EDGE_CURVE ( 'NONE', #413, #718, #585, .T. ) ;
#108 = ORIENTED_EDGE ( 'NONE', *, *, #690, .F. ) ;
#109 = DIRECTION ( 'NONE',  ( 1.000000000000000000, 0.000000000000000000, 0.000000000000000000 ) ) ;
#110 = ORIENTED_EDGE ( 'NONE', *, *, #535, .T. ) ;
#111 = CIRCLE ( 'NONE', #12, 2.500000000000000000 ) ;
#112 = APPLICATION_PROTOCOL_DEFINITION ( 'international standard', 'config_control_design', 1994, #419 ) ;
#113 = VERTEX_POINT ( 'NONE', #124 ) ;
#114 = AXIS2_PLACEMENT_3D ( 'NONE', #11, #247, #485 ) ;
#115 = PERSON_AND_ORGANIZATION_ROLE ( 'design_supplier' ) ;
#116 = CARTESIAN_POINT ( 'NONE',  ( -8.660254037844344666, -7.999999999999998224, 2.500000000000000000 ) ) ;
#117 = EDGE_CURVE ( 'NONE', #688, #640, #446, .T. ) ;
#118 = ORIENTED_EDGE ( 'NONE', *, *, #643, .T. ) ;
#119 = CIRCLE ( 'NONE', #588, 2.999999999999999112 ) ;
#120 = CALENDAR_DATE ( 2026, 16, 8 ) ;
#121 = CARTESIAN_POINT ( 'NONE',  ( 4.330127018922230064, 12.49999999999995026, 0.000000000000000000 ) ) ;
#122 = DIRECTION ( 'NONE',  ( -0.000000000000000000, -0.000000000000000000, 1.000000000000000000 ) ) ;
#123 = CARTESIAN_POINT ( 'NONE',  ( -8.660254037844389075, -5.000000000000000888, 5.000000000000000000 ) ) ;
#124 = CARTESIAN_POINT ( 'NONE',  ( -2.598076211353334219, 11.49999999999997335, 5.000000000000000000 ) ) ;
#125 = VECTOR ( 'NONE', #103, 1000.000000000000227 ) ;
#126 = EDGE_CURVE ( 'NONE', #280, #508, #546, .T. ) ;
#127 = DIRECTION ( 'NONE',  ( 0.000000000000000000, 0.000000000000000000, 1.000000000000000000 ) ) ;
#128 = PLANE ( 'NONE',  #378 ) ;
#129 = MANIFOLD_SOLID_BREP ( 'Í¹Ì¨-À', #673 ) ;
#130 = VECTOR ( 'NONE', #36, 1000.000000000000000 ) ;
#131 = PERSON_AND_ORGANIZATION ( #335, #2 ) ;
#132 = EDGE_CURVE ( 'NONE', #352, #445, #531, .T. ) ;
#133 = DIRECTION ( 'NONE',  ( 0.000000000000000000, 0.000000000000000000, 1.000000000000000000 ) ) ;
#134 = CARTESIAN_POINT ( 'NONE',  ( 8.660254037844389075, -4.999999999999998224, 2.500000000000000000 ) ) ;
#135 = ORIENTED_EDGE ( 'NONE', *, *, #410, .F. ) ;
#136 = DIRECTION ( 'NONE',  ( -1.000000000000000000, 0.000000000000000000, 0.000000000000000000 ) ) ;
#137 = DIRECTION ( 'NONE',  ( -1.000000000000000000, 1.001543065824780494E-16, 0.000000000000000000 ) ) ;
#138 = EDGE_LOOP ( 'NONE', ( #498, #45, #715, #171 ) ) ;
#139 = DIRECTION ( 'NONE',  ( 1.000000000000000000, 0.000000000000000000, 0.000000000000000000 ) ) ;
#140 = CARTESIAN_POINT ( 'NONE',  ( 8.660254037844389075, -4.999999999999998224, 0.000000000000000000 ) ) ;
#141 = EDGE_LOOP ( 'NONE', ( #381, #319, #34, #145, #743, #104, #591 ) ) ;
#142 = EDGE_CURVE ( 'NONE', #5, #166, #556, .T. ) ;
#143 = FACE_OUTER_BOUND ( 'NONE', #31, .T. ) ;
#144 = CARTESIAN_POINT ( 'NONE',  ( -8.660254037844318020, -9.999999999999998224, 5.000000000000000000 ) ) ;
#145 = ORIENTED_EDGE ( 'NONE', *, *, #13, .T. ) ;
#146 = CARTESIAN_POINT ( 'NONE',  ( -8.660254037844344666, -7.999999999999998224, 2.500000000000000000 ) ) ;
#147 = DIRECTION ( 'NONE',  ( 0.000000000000000000, 0.000000000000000000, 1.000000000000000000 ) ) ;
#148 = VERTEX_POINT ( 'NONE', #436 ) ;
#149 = AXIS2_PLACEMENT_3D ( 'NONE', #38, #514, #454 ) ;
#150 = ORIENTED_EDGE ( 'NONE', *, *, #132, .F. ) ;
#151 = EDGE_CURVE ( 'NONE', #455, #148, #195, .T. ) ;
#152 = LINE ( 'NONE', #555, #65 ) ;
#153 = CARTESIAN_POINT ( 'NONE',  ( -8.660254037844389075, -5.000000000000000888, 5.000000000000000000 ) ) ;
#154 = CARTESIAN_POINT ( 'NONE',  ( -4.330127018922224735, 12.49999999999995026, 5.000000000000000000 ) ) ;
#155 = ORIENTED_EDGE ( 'NONE', *, *, #487, .T. ) ;
#156 = DIRECTION ( 'NONE',  ( 1.000000000000000000, 0.000000000000000000, 0.000000000000000000 ) ) ;
#157 = LINE ( 'NONE', #94, #163 ) ;
#158 = DIRECTION ( 'NONE',  ( -0.000000000000000000, -0.000000000000000000, -1.000000000000000000 ) ) ;
#159 = PRODUCT_DEFINITION ( 'Î´', '', #236, #396 ) ;
#160 = EDGE_LOOP ( 'NONE', ( #261, #530, #659, #391 ) ) ;
#161 = PERSON_AND_ORGANIZATION ( #335, #2 ) ;
#162 = LINE ( 'NONE', #33, #629 ) ;
#163 = VECTOR ( 'NONE', #274, 1000.000000000000000 ) ;
#164 = DIRECTION ( 'NONE',  ( 0.000000000000000000, 0.000000000000000000, 1.000000000000000000 ) ) ;
#165 = FACE_OUTER_BOUND ( 'NONE', #141, .T. ) ;
#166 = VERTEX_POINT ( 'NONE', #425 ) ;
#167 = ADVANCED_FACE ( 'NONE', ( #251 ), #128, .F. ) ;
#168 = PERSON_AND_ORGANIZATION_ROLE ( 'creator' ) ;
#169 = VECTOR ( 'NONE', #241, 1000.000000000000000 ) ;
#170 = EDGE_LOOP ( 'NONE', ( #87, #473 ) ) ;
#171 = ORIENTED_EDGE ( 'NONE', *, *, #81, .T. ) ;
#172 = CIRCLE ( 'NONE', #639, 4.999999999999997335 ) ;
#173 = LOCAL_TIME ( 9, 48, 5.000000000000000000, #741 ) ;
#174 = CARTESIAN_POINT ( 'NONE',  ( -12.99038105676654453, -2.499999999999942268, 0.000000000000000000 ) ) ;
#175 = ADVANCED_FACE ( 'NONE', ( #723 ), #653, .F. ) ;
#176 = DIRECTION ( 'NONE',  ( 1.000000000000000000, -1.001543065824777536E-16, 0.000000000000000000 ) ) ;
#177 = VERTEX_POINT ( 'NONE', #260 ) ;
#178 = CIRCLE ( 'NONE', #642, 5.000000000000000888 ) ;
#179 = LINE ( 'NONE', #415, #169 ) ;
#180 = ORIENTED_EDGE ( 'NONE', *, *, #441, .T. ) ;
#181 = CARTESIAN_POINT ( 'NONE',  ( 11.66025403784438907, -4.999999999999998224, 5.000000000000000000 ) ) ;
#182 = FACE_OUTER_BOUND ( 'NONE', #235, .T. ) ;
#183 = AXIS2_PLACEMENT_3D ( 'NONE', #246, #424, #428 ) ;
#184 = ADVANCED_FACE ( 'NONE', ( #607 ), #714, .T. ) ;
#185 = AXIS2_PLACEMENT_3D ( 'NONE', #645, #122, #62 ) ;
#186 = DIRECTION ( 'NONE',  ( 0.000000000000000000, 0.000000000000000000, 1.000000000000000000 ) ) ;
#187 = CC_DESIGN_PERSON_AND_ORGANIZATION_ASSIGNMENT ( #131, #641, ( #613 ) ) ;
#188 = APPROVAL_DATE_TIME ( #589, #237 ) ;
#189 = DIRECTION ( 'NONE',  ( 1.000000000000000000, 0.000000000000000000, 0.000000000000000000 ) ) ;
#190 = CARTESIAN_POINT ( 'NONE',  ( 8.660254037844389075, -4.999999999999998224, 2.500000000000000000 ) ) ;
#191 = CARTESIAN_POINT ( 'NONE',  ( 0.000000000000000000, 0.000000000000000000, 5.000000000000000000 ) ) ;
#192 = DIRECTION ( 'NONE',  ( 1.001543065824780494E-16, 1.000000000000000000, -0.000000000000000000 ) ) ;
#193 = ORIENTED_EDGE ( 'NONE', *, *, #361, .T. ) ;
#194 = CARTESIAN_POINT ( 'NONE',  ( 8.660254037844389075, -4.999999999999998224, 2.500000000000000000 ) ) ;
#195 = LINE ( 'NONE', #432, #218 ) ;
#196 = VERTEX_POINT ( 'NONE', #79 ) ;
#197 = ADVANCED_FACE ( 'NONE', ( #318 ), #256, .T. ) ;
#198 = AXIS2_PLACEMENT_3D ( 'NONE', #278, #345, #398 ) ;
#199 = DIRECTION ( 'NONE',  ( 0.000000000000000000, 0.000000000000000000, 1.000000000000000000 ) ) ;
#200 = CARTESIAN_POINT ( 'NONE',  ( 0.000000000000000000, 0.000000000000000000, 5.000000000000000000 ) ) ;
#201 = ORIENTED_EDGE ( 'NONE', *, *, #571, .T. ) ;
#202 = AXIS2_PLACEMENT_3D ( 'NONE', #443, #317, #89 ) ;
#203 = CARTESIAN_POINT ( 'NONE',  ( -8.660254037844389075, -5.000000000000000888, 0.000000000000000000 ) ) ;
#204 = CARTESIAN_POINT ( 'NONE',  ( 0.000000000000000000, 0.000000000000000000, 5.000000000000000000 ) ) ;
#205 = EDGE_LOOP ( 'NONE', ( #93, #562 ) ) ;
#206 = ORIENTED_EDGE ( 'NONE', *, *, #410, .T. ) ;
#207 = EDGE_CURVE ( 'NONE', #100, #285, #178, .T. ) ;
#208 = DIRECTION ( 'NONE',  ( 1.000000000000000000, 0.000000000000000000, 0.000000000000000000 ) ) ;
#209 = DIRECTION ( 'NONE',  ( -1.000000000000000000, 0.000000000000000000, 0.000000000000000000 ) ) ;
#210 = VERTEX_POINT ( 'NONE', #24 ) ;
#211 = VECTOR ( 'NONE', #10, 1000.000000000000000 ) ;
#212 = AXIS2_PLACEMENT_3D ( 'NONE', #283, #164, #520 ) ;
#213 = CC_DESIGN_PERSON_AND_ORGANIZATION_ASSIGNMENT ( #277, #168, ( #159 ) ) ;
#214 = DIRECTION ( 'NONE',  ( 0.000000000000000000, 0.000000000000000000, 1.000000000000000000 ) ) ;
#215 = FACE_OUTER_BOUND ( 'NONE', #138, .T. ) ;
#216 = EDGE_LOOP ( 'NONE', ( #193, #1, #433, #583 ) ) ;
#217 = CARTESIAN_POINT ( 'NONE',  ( 4.330127018922230064, 12.49999999999995026, 5.000000000000000000 ) ) ;
#218 = VECTOR ( 'NONE', #610, 1000.000000000000000 ) ;
#219 = COORDINATED_UNIVERSAL_TIME_OFFSET ( 8, 0, .AHEAD. ) ;
#220 = LINE ( 'NONE', #679, #125 ) ;
#221 = CIRCLE ( 'NONE', #19, 3.500000000000000000 ) ;
#222 =( NAMED_UNIT ( * ) PLANE_ANGLE_UNIT ( ) SI_UNIT ( $, .RADIAN. ) );
#223 = CARTESIAN_POINT ( 'NONE',  ( 11.25833024919768555, -3.499999999999964473, 2.500000000000000000 ) ) ;
#224 = ADVANCED_FACE ( 'NONE', ( #15, #600 ), #365, .T. ) ;
#225 = ORIENTED_EDGE ( 'NONE', *, *, #487, .F. ) ;
#226 = EDGE_LOOP ( 'NONE', ( #25, #108, #557, #534, #240, #751, #587 ) ) ;
#227 = ORIENTED_EDGE ( 'NONE', *, *, #68, .F. ) ;
#228 = CARTESIAN_POINT ( 'NONE',  ( 11.25833024919768555, -3.499999999999964473, 5.000000000000000000 ) ) ;
#229 = CARTESIAN_POINT ( 'NONE',  ( -2.500000000000000000, 0.000000000000000000, 5.000000000000000000 ) ) ;
#230 = AXIS2_PLACEMENT_3D ( 'NONE', #609, #269, #504 ) ;
#231 = EDGE_LOOP ( 'NONE', ( #618, #49, #295, #502 ) ) ;
#232 = ADVANCED_FACE ( 'NONE', ( #501 ), #658, .F. ) ;
#233 = CYLINDRICAL_SURFACE ( 'NONE', #732, 4.999999999999997335 ) ;
#234 = CARTESIAN_POINT ( 'NONE',  ( -8.660254037844389075, -5.000000000000000888, 0.000000000000000000 ) ) ;
#235 = EDGE_LOOP ( 'NONE', ( #265, #685, #418, #506 ) ) ;
#236 = PRODUCT_DEFINITION_FORMATION_WITH_SPECIFIED_SOURCE ( 'ÈÎ', '', #750, .NOT_KNOWN. ) ;
#237 = APPROVAL ( #517, 'Î´Ö' ) ;
#238 = CARTESIAN_POINT ( 'NONE',  ( 8.660254037844389075, -4.999999999999998224, 0.000000000000000000 ) ) ;
#239 = CARTESIAN_POINT ( 'NONE',  ( -2.598076211353334219, 11.49999999999997335, 2.500000000000000000 ) ) ;
#240 = ORIENTED_EDGE ( 'NONE', *, *, #515, .F. ) ;
#241 = DIRECTION ( 'NONE',  ( -0.000000000000000000, -0.000000000000000000, -1.000000000000000000 ) ) ;
#242 = AXIS2_PLACEMENT_3D ( 'NONE', #438, #722, #85 ) ;
#243 = DIRECTION ( 'NONE',  ( -0.000000000000000000, -0.000000000000000000, -1.000000000000000000 ) ) ;
#244 = DIRECTION ( 'NONE',  ( 1.000000000000000000, 0.000000000000000000, 0.000000000000000000 ) ) ;
#245 = VECTOR ( 'NONE', #394, 1000.000000000000000 ) ;
#246 = CARTESIAN_POINT ( 'NONE',  ( -8.660254037844389075, -5.000000000000000888, 2.500000000000000000 ) ) ;
#247 = DIRECTION ( 'NONE',  ( -0.000000000000000000, -0.000000000000000000, -1.000000000000000000 ) ) ;
#248 = VECTOR ( 'NONE', #496, 1000.000000000000000 ) ;
#249 = COORDINATED_UNIVERSAL_TIME_OFFSET ( 8, 0, .AHEAD. ) ;
#250 = DIRECTION ( 'NONE',  ( -0.4999999999999997224, 0.8660254037844387076, 0.000000000000000000 ) ) ;
#251 = FACE_OUTER_BOUND ( 'NONE', #216, .T. ) ;
#252 = ORIENTED_EDGE ( 'NONE', *, *, #499, .F. ) ;
#253 = CIRCLE ( 'NONE', #395, 5.000000000000000888 ) ;
#254 = EDGE_CURVE ( 'NONE', #289, #445, #17, .T. ) ;
#255 = DIRECTION ( 'NONE',  ( -0.000000000000000000, -0.000000000000000000, -1.000000000000000000 ) ) ;
#256 = PLANE ( 'NONE',  #356 ) ;
#257 = ORIENTED_EDGE ( 'NONE', *, *, #615, .F. ) ;
#258 = CC_DESIGN_APPROVAL ( #237, ( #236 ) ) ;
#259 = DIRECTION ( 'NONE',  ( -0.000000000000000000, -0.000000000000000000, -1.000000000000000000 ) ) ;
#260 = CARTESIAN_POINT ( 'NONE',  ( -11.25833024919766956, -3.499999999999945821, 5.000000000000000000 ) ) ;
#261 = ORIENTED_EDGE ( 'NONE', *, *, #543, .F. ) ;
#262 = AXIS2_PLACEMENT_3D ( 'NONE', #291, #147, #620 ) ;
#263 = DIRECTION ( 'NONE',  ( 1.000000000000000000, 0.000000000000000000, 0.000000000000000000 ) ) ;
#264 = FACE_OUTER_BOUND ( 'NONE', #611, .T. ) ;
#265 = ORIENTED_EDGE ( 'NONE', *, *, #631, .F. ) ;
#266 = EDGE_CURVE ( 'NONE', #637, #519, #597, .T. ) ;
#267 = ORIENTED_EDGE ( 'NONE', *, *, #595, .F. ) ;
#268 = CIRCLE ( 'NONE', #503, 3.000000000000000888 ) ;
#269 = DIRECTION ( 'NONE',  ( -0.000000000000000000, -0.000000000000000000, 1.000000000000000000 ) ) ;
#270 = DIRECTION ( 'NONE',  ( -0.000000000000000000, -0.000000000000000000, 1.000000000000000000 ) ) ;
#271 = ORIENTED_EDGE ( 'NONE', *, *, #704, .T. ) ;
#272 = ADVANCED_FACE ( 'NONE', ( #493, #324 ), #717, .T. ) ;
#273 = CYLINDRICAL_SURFACE ( 'NONE', #513, 3.000000000000000888 ) ;
#274 = DIRECTION ( 'NONE',  ( -0.000000000000000000, -0.000000000000000000, 1.000000000000000000 ) ) ;
#275 = LOCAL_TIME ( 9, 48, 5.000000000000000000, #686 ) ;
#276 = ORIENTED_EDGE ( 'NONE', *, *, #417, .F. ) ;
#277 = PERSON_AND_ORGANIZATION ( #335, #2 ) ;
#278 = CARTESIAN_POINT ( 'NONE',  ( 0.000000000000000000, 0.000000000000000000, 5.000000000000000000 ) ) ;
#279 = AXIS2_PLACEMENT_3D ( 'NONE', #153, #405, #521 ) ;
#280 = VERTEX_POINT ( 'NONE', #370 ) ;
#281 = APPROVAL ( #58, 'Î´Ö' ) ;
#282 = ADVANCED_FACE ( 'NONE', ( #264 ), #544, .T. ) ;
#283 = CARTESIAN_POINT ( 'NONE',  ( 0.000000000000000000, 0.000000000000000000, 0.000000000000000000 ) ) ;
#284 = DIRECTION ( 'NONE',  ( 1.000000000000000000, 0.000000000000000000, 0.000000000000000000 ) ) ;
#285 = VERTEX_POINT ( 'NONE', #710 ) ;
#286 = DIRECTION ( 'NONE',  ( 0.000000000000000000, 0.000000000000000000, 1.000000000000000000 ) ) ;
#287 = VECTOR ( 'NONE', #702, 1000.000000000000000 ) ;
#288 = AXIS2_PLACEMENT_3D ( 'NONE', #481, #186, #109 ) ;
#289 = VERTEX_POINT ( 'NONE', #37 ) ;
#290 = DIRECTION ( 'NONE',  ( -0.000000000000000000, -0.000000000000000000, -1.000000000000000000 ) ) ;
#291 = CARTESIAN_POINT ( 'NONE',  ( -8.660254037844389075, -5.000000000000000888, 5.000000000000000000 ) ) ;
#292 = ADVANCED_FACE ( 'NONE', ( #740 ), #341, .T. ) ;
#293 = ORIENTED_EDGE ( 'NONE', *, *, #303, .F. ) ;
#294 = APPLICATION_PROTOCOL_DEFINITION ( 'international standard', 'config_control_design', 1994, #382 ) ;
#295 = ORIENTED_EDGE ( 'NONE', *, *, #586, .T. ) ;
#296 = ADVANCED_FACE ( 'NONE', ( #215 ), #633, .F. ) ;
#297 = APPROVAL_DATE_TIME ( #540, #281 ) ;
#298 = FACE_OUTER_BOUND ( 'NONE', #677, .T. ) ;
#299 = CARTESIAN_POINT ( 'NONE',  ( 0.000000000000000000, 0.000000000000000000, 2.500000000000000000 ) ) ;
#300 = ORIENTED_EDGE ( 'NONE', *, *, #339, .F. ) ;
#301 = PERSON_AND_ORGANIZATION ( #335, #2 ) ;
#302 = CARTESIAN_POINT ( 'NONE',  ( -8.660254037844389075, -5.000000000000000888, 5.000000000000000000 ) ) ;
#303 = EDGE_CURVE ( 'NONE', #16, #336, #98, .T. ) ;
#304 = CARTESIAN_POINT ( 'NONE',  ( 12.99038105676654808, -2.499999999999942268, 5.000000000000000000 ) ) ;
#305 = VECTOR ( 'NONE', #20, 1000.000000000000000 ) ;
#306 = CARTESIAN_POINT ( 'NONE',  ( 11.25833024919768555, -3.499999999999964473, 2.500000000000000000 ) ) ;
#307 = DIRECTION ( 'NONE',  ( 1.000000000000000000, 0.000000000000000000, -0.000000000000000000 ) ) ;
#308 = DATE_AND_TIME ( #368, #388 ) ;
#309 = AXIS2_PLACEMENT_3D ( 'NONE', #435, #392, #139 ) ;
#310 = DIRECTION ( 'NONE',  ( -0.000000000000000000, 0.000000000000000000, -1.000000000000000000 ) ) ;
#311 = ORIENTED_EDGE ( 'NONE', *, *, #631, .T. ) ;
#312 = EDGE_CURVE ( 'NONE', #718, #210, #220, .T. ) ;
#313 = AXIS2_PLACEMENT_3D ( 'NONE', #655, #315, #375 ) ;
#314 = LINE ( 'NONE', #670, #598 ) ;
#315 = DIRECTION ( 'NONE',  ( 0.000000000000000000, 0.000000000000000000, 1.000000000000000000 ) ) ;
#316 = ORIENTED_EDGE ( 'NONE', *, *, #554, .F. ) ;
#317 = DIRECTION ( 'NONE',  ( -1.001543065824777659E-16, -1.000000000000000000, 0.000000000000000000 ) ) ;
#318 = FACE_OUTER_BOUND ( 'NONE', #721, .T. ) ;
#319 = ORIENTED_EDGE ( 'NONE', *, *, #509, .T. ) ;
#320 = CIRCLE ( 'NONE', #183, 2.999999999999997335 ) ;
#321 = ADVANCED_FACE ( 'NONE', ( #393 ), #671, .T. ) ;
#322 = CC_DESIGN_APPROVAL ( #281, ( #613 ) ) ;
#323 = DIRECTION ( 'NONE',  ( 1.000000000000000000, -1.001543065824780494E-16, 0.000000000000000000 ) ) ;
#324 = FACE_OUTER_BOUND ( 'NONE', #461, .T. ) ;
#325 = VERTEX_POINT ( 'NONE', #337 ) ;
#326 = VERTEX_POINT ( 'NONE', #512 ) ;
#327 = DIRECTION ( 'NONE',  ( 1.000000000000000000, 0.000000000000000000, 0.000000000000000000 ) ) ;
#328 = DIRECTION ( 'NONE',  ( -1.000000000000000000, 0.000000000000000000, 0.000000000000000000 ) ) ;
#329 = ORIENTED_EDGE ( 'NONE', *, *, #586, .F. ) ;
#330 = EDGE_CURVE ( 'NONE', #326, #289, #157, .T. ) ;
#331 = ORIENTED_EDGE ( 'NONE', *, *, #650, .T. ) ;
#332 = CARTESIAN_POINT ( 'NONE',  ( 3.500000000000000000, 4.286263797015736595E-16, 2.500000000000000000 ) ) ;
#333 = PLANE ( 'NONE',  #612 ) ;
#334 = EDGE_LOOP ( 'NONE', ( #347, #357, #522, #563 ) ) ;
#335 = PERSON ( 'Î´Ö', 'Î´Ö', 'Î´Ö', ('Î´Ö'), ('Î´Ö'), ('Î´Ö') ) ;
#336 = VERTEX_POINT ( 'NONE', #625 ) ;
#337 = CARTESIAN_POINT ( 'NONE',  ( -13.66025403784438552, -5.000000000000000888, 0.000000000000000000 ) ) ;
#338 = AXIS2_PLACEMENT_3D ( 'NONE', #733, #214, #50 ) ;
#339 = EDGE_CURVE ( 'NONE', #326, #352, #561, .T. ) ;
#340 = CARTESIAN_POINT ( 'NONE',  ( -2.598076211353334219, 11.49999999999997335, 5.000000000000000000 ) ) ;
#341 = CYLINDRICAL_SURFACE ( 'NONE', #279, 4.999999999999997335 ) ;
#342 = ORIENTED_EDGE ( 'NONE', *, *, #451, .F. ) ;
#343 = DIRECTION ( 'NONE',  ( -0.000000000000000000, -0.000000000000000000, -1.000000000000000000 ) ) ;
#344 =( LENGTH_UNIT ( ) NAMED_UNIT ( * ) SI_UNIT ( .MILLI., .METRE. ) );
#345 = DIRECTION ( 'NONE',  ( -0.000000000000000000, -0.000000000000000000, -1.000000000000000000 ) ) ;
#346 = VECTOR ( 'NONE', #699, 1000.000000000000000 ) ;
#347 = ORIENTED_EDGE ( 'NONE', *, *, #515, .T. ) ;
#348 = ORIENTED_EDGE ( 'NONE', *, *, #622, .F. ) ;
#349 = EDGE_CURVE ( 'NONE', #697, #5, #746, .T. ) ;
#350 = LINE ( 'NONE', #304, #211 ) ;
#351 = VECTOR ( 'NONE', #158, 1000.000000000000000 ) ;
#352 = VERTEX_POINT ( 'NONE', #576 ) ;
#353 = APPROVAL_ROLE ( '' ) ;
#354 = DIRECTION ( 'NONE',  ( -0.8660254037844388186, 0.4999999999999998335, 0.000000000000000000 ) ) ;
#355 = ADVANCED_FACE ( 'NONE', ( #44 ), #448, .F. ) ;
#356 = AXIS2_PLACEMENT_3D ( 'NONE', #134, #552, #663 ) ;
#357 = ORIENTED_EDGE ( 'NONE', *, *, #266, .F. ) ;
#358 = PERSON_AND_ORGANIZATION ( #335, #2 ) ;
#359 = VERTEX_POINT ( 'NONE', #617 ) ;
#360 = DIRECTION ( 'NONE',  ( -0.000000000000000000, -0.000000000000000000, -1.000000000000000000 ) ) ;
#361 = EDGE_CURVE ( 'NONE', #672, #727, #162, .T. ) ;
#362 = CARTESIAN_POINT ( 'NONE',  ( 2.598076211353352871, 11.49999999999995026, 2.500000000000000000 ) ) ;
#363 = CARTESIAN_POINT ( 'NONE',  ( 0.000000000000000000, 0.000000000000000000, 5.000000000000000000 ) ) ;
#364 = CARTESIAN_POINT ( 'NONE',  ( -8.660254037844318020, -9.999999999999998224, 0.000000000000000000 ) ) ;
#365 = PLANE ( 'NONE',  #516 ) ;
#366 = CIRCLE ( 'NONE', #656, 2.500000000000000000 ) ;
#367 = ADVANCED_BREP_SHAPE_REPRESENTATION ( '\X2\96f64ef6\X0\1', ( #129, #212 ), #547 ) ;
#368 = CALENDAR_DATE ( 2026, 16, 8 ) ;
#369 = CARTESIAN_POINT ( 'NONE',  ( -4.330127018922224735, 12.49999999999995026, 5.000000000000000000 ) ) ;
#370 = CARTESIAN_POINT ( 'NONE',  ( 4.330127018922230064, 12.49999999999995026, 5.000000000000000000 ) ) ;
#371 = ORIENTED_EDGE ( 'NONE', *, *, #330, .T. ) ;
#372 = ADVANCED_FACE ( 'NONE', ( #47 ), #742, .F. ) ;
#373 = VECTOR ( 'NONE', #529, 1000.000000000000227 ) ;
#374 = CARTESIAN_POINT ( 'NONE',  ( 12.99038105676654808, -2.499999999999942268, 0.000000000000000000 ) ) ;
#375 = DIRECTION ( 'NONE',  ( 1.000000000000000000, 0.000000000000000000, 0.000000000000000000 ) ) ;
#376 = ORIENTED_EDGE ( 'NONE', *, *, #312, .T. ) ;
#377 = APPROVAL ( #404, 'Î´Ö' ) ;
#378 = AXIS2_PLACEMENT_3D ( 'NONE', #21, #560, #604 ) ;
#379 = CARTESIAN_POINT ( 'NONE',  ( -2.598076211353334219, 11.49999999999997335, 2.500000000000000000 ) ) ;
#380 = DIRECTION ( 'NONE',  ( -1.000000000000000000, 0.000000000000000000, 0.000000000000000000 ) ) ;
#381 = ORIENTED_EDGE ( 'NONE', *, *, #207, .T. ) ;
#382 = APPLICATION_CONTEXT ( 'configuration controlled 3d designs of mechanical parts and assemblies' ) ;
#383 = PLANE ( 'NONE',  #202 ) ;
#384 = CARTESIAN_POINT ( 'NONE',  ( -8.660254037844344666, -7.999999999999998224, 2.500000000000000000 ) ) ;
#385 = ORIENTED_EDGE ( 'NONE', *, *, #571, .F. ) ;
#386 = VECTOR ( 'NONE', #270, 1000.000000000000000 ) ;
#387 = ADVANCED_FACE ( 'NONE', ( #90, #165 ), #333, .F. ) ;
#388 = LOCAL_TIME ( 9, 48, 5.000000000000000000, #249 ) ;
#389 = DIRECTION ( 'NONE',  ( -0.4999999999999997780, -0.8660254037844387076, 0.000000000000000000 ) ) ;
#390 = CARTESIAN_POINT ( 'NONE',  ( 8.660254037844389075, -4.999999999999998224, 2.500000000000000000 ) ) ;
#391 = ORIENTED_EDGE ( 'NONE', *, *, #669, .T. ) ;
#392 = DIRECTION ( 'NONE',  ( 0.000000000000000000, 0.000000000000000000, 1.000000000000000000 ) ) ;
#393 = FACE_OUTER_BOUND ( 'NONE', #550, .T. ) ;
#394 = DIRECTION ( 'NONE',  ( -0.4999999999999998335, -0.8660254037844387076, 0.000000000000000000 ) ) ;
#395 = AXIS2_PLACEMENT_3D ( 'NONE', #238, #133, #475 ) ;
#396 = DESIGN_CONTEXT ( 'detailed design', #419, 'design' ) ;
#397 = DIRECTION ( 'NONE',  ( -0.000000000000000000, -0.000000000000000000, -1.000000000000000000 ) ) ;
#398 = DIRECTION ( 'NONE',  ( -1.000000000000000000, 0.000000000000000000, 0.000000000000000000 ) ) ;
#399 = EDGE_CURVE ( 'NONE', #196, #177, #565, .T. ) ;
#400 = ORIENTED_EDGE ( 'NONE', *, *, #482, .T. ) ;
#401 = PERSON_AND_ORGANIZATION ( #335, #2 ) ;
#402 = DIRECTION ( 'NONE',  ( -0.4999999999999998335, -0.8660254037844387076, 0.000000000000000000 ) ) ;
#403 = ORIENTED_EDGE ( 'NONE', *, *, #554, .T. ) ;
#404 = APPROVAL_STATUS ( 'not_yet_approved' ) ;
#405 = DIRECTION ( 'NONE',  ( -0.000000000000000000, -0.000000000000000000, -1.000000000000000000 ) ) ;
#406 = ORIENTED_EDGE ( 'NONE', *, *, #509, .F. ) ;
#407 = DIRECTION ( 'NONE',  ( -0.000000000000000000, -0.000000000000000000, -1.000000000000000000 ) ) ;
#408 = CIRCLE ( 'NONE', #8, 4.999999999999997335 ) ;
#409 = VERTEX_POINT ( 'NONE', #505 ) ;
#410 = EDGE_CURVE ( 'NONE', #336, #325, #569, .T. ) ;
#411 = DIRECTION ( 'NONE',  ( -0.000000000000000000, -0.000000000000000000, 1.000000000000000000 ) ) ;
#412 = VECTOR ( 'NONE', #343, 1000.000000000000000 ) ;
#413 = VERTEX_POINT ( 'NONE', #306 ) ;
#414 = EDGE_LOOP ( 'NONE', ( #737, #22, #267, #71 ) ) ;
#415 = CARTESIAN_POINT ( 'NONE',  ( 3.500000000000000000, 4.286263797015736595E-16, 5.000000000000000000 ) ) ;
#416 = CYLINDRICAL_SURFACE ( 'NONE', #185, 3.000000000000000888 ) ;
#417 = EDGE_CURVE ( 'NONE', #508, #672, #596, .T. ) ;
#418 = ORIENTED_EDGE ( 'NONE', *, *, #690, .T. ) ;
#419 = APPLICATION_CONTEXT ( 'configuration controlled 3d designs of mechanical parts and assemblies' ) ;
#420 = APPROVAL_ROLE ( '' ) ;
#421 = CYLINDRICAL_SURFACE ( 'NONE', #668, 3.500000000000000000 ) ;
#422 = CALENDAR_DATE ( 2026, 16, 8 ) ;
#423 = AXIS2_PLACEMENT_3D ( 'NONE', #204, #676, #284 ) ;
#424 = DIRECTION ( 'NONE',  ( 0.000000000000000000, 0.000000000000000000, 1.000000000000000000 ) ) ;
#425 = CARTESIAN_POINT ( 'NONE',  ( 2.500000000000000000, 3.061616997868383141E-16, 2.500000000000000000 ) ) ;
#426 = PERSON_AND_ORGANIZATION ( #335, #2 ) ;
#427 = ADVANCED_FACE ( 'NONE', ( #298 ), #3, .F. ) ;
#428 = DIRECTION ( 'NONE',  ( 1.000000000000000000, 0.000000000000000000, 0.000000000000000000 ) ) ;
#429 = CARTESIAN_POINT ( 'NONE',  ( 8.660254037844389075, -4.999999999999998224, 5.000000000000000000 ) ) ;
#430 = CC_DESIGN_DATE_AND_TIME_ASSIGNMENT ( #533, #753, ( #159 ) ) ;
#431 = DIRECTION ( 'NONE',  ( -0.8660254037844388186, -0.4999999999999997780, 0.000000000000000000 ) ) ;
#432 = CARTESIAN_POINT ( 'NONE',  ( -8.660254037844318020, -9.999999999999998224, 0.000000000000000000 ) ) ;
#433 = ORIENTED_EDGE ( 'NONE', *, *, #13, .F. ) ;
#434 = LOCAL_TIME ( 9, 48, 5.000000000000000000, #219 ) ;
#435 = CARTESIAN_POINT ( 'NONE',  ( 0.000000000000000000, 0.000000000000000000, 2.500000000000000000 ) ) ;
#436 = CARTESIAN_POINT ( 'NONE',  ( 8.660254037844321573, -10.00000000000000000, 0.000000000000000000 ) ) ;
#437 = EDGE_LOOP ( 'NONE', ( #523, #206, #60, #76 ) ) ;
#438 = CARTESIAN_POINT ( 'NONE',  ( 2.347388175361421753E-15, 10.00000000000001066, 5.000000000000000000 ) ) ;
#439 = DIRECTION ( 'NONE',  ( 0.000000000000000000, 0.000000000000000000, 1.000000000000000000 ) ) ;
#440 = ORIENTED_EDGE ( 'NONE', *, *, #107, .T. ) ;
#441 = EDGE_CURVE ( 'NONE', #196, #637, #320, .T. ) ;
#442 = CIRCLE ( 'NONE', #105, 3.500000000000000000 ) ;
#443 = CARTESIAN_POINT ( 'NONE',  ( -8.660254037844344666, -7.999999999999998224, 2.500000000000000000 ) ) ;
#444 = CARTESIAN_POINT ( 'NONE',  ( 8.660254037844389075, -4.999999999999998224, 5.000000000000000000 ) ) ;
#445 = VERTEX_POINT ( 'NONE', #181 ) ;
#446 = CIRCLE ( 'NONE', #707, 3.500000000000000000 ) ;
#447 = CARTESIAN_POINT ( 'NONE',  ( -4.330127018922224735, 12.49999999999995026, 0.000000000000000000 ) ) ;
#448 = PLANE ( 'NONE',  #63 ) ;
#449 = ORIENTED_EDGE ( 'NONE', *, *, #68, .T. ) ;
#450 = ORIENTED_EDGE ( 'NONE', *, *, #467, .T. ) ;
#451 = EDGE_CURVE ( 'NONE', #463, #744, #119, .T. ) ;
#452 = LINE ( 'NONE', #559, #305 ) ;
#453 = CARTESIAN_POINT ( 'NONE',  ( 0.000000000000000000, 0.000000000000000000, 5.000000000000000000 ) ) ;
#454 = DIRECTION ( 'NONE',  ( -1.000000000000000000, 0.000000000000000000, 0.000000000000000000 ) ) ;
#455 = VERTEX_POINT ( 'NONE', #364 ) ;
#456 = CIRCLE ( 'NONE', #711, 4.999999999999999112 ) ;
#457 = CARTESIAN_POINT ( 'NONE',  ( 11.25833024919768555, -3.499999999999964473, 2.500000000000000000 ) ) ;
#458 = DIRECTION ( 'NONE',  ( 0.8660254037844388186, 0.4999999999999998335, 0.000000000000000000 ) ) ;
#459 = APPROVAL_DATE_TIME ( #464, #377 ) ;
#460 = DIRECTION ( 'NONE',  ( -0.000000000000000000, -0.000000000000000000, 1.000000000000000000 ) ) ;
#461 = EDGE_LOOP ( 'NONE', ( #528, #311, #687, #29, #608, #180, #730 ) ) ;
#462 = LOCAL_TIME ( 9, 48, 5.000000000000000000, #592 ) ;
#463 = VERTEX_POINT ( 'NONE', #362 ) ;
#464 = DATE_AND_TIME ( #584, #173 ) ;
#465 = DIRECTION ( 'NONE',  ( 0.000000000000000000, 0.000000000000000000, 1.000000000000000000 ) ) ;
#466 = VERTEX_POINT ( 'NONE', #121 ) ;
#467 = EDGE_CURVE ( 'NONE', #667, #466, #9, .T. ) ;
#468 = LINE ( 'NONE', #340, #602 ) ;
#469 = LINE ( 'NONE', #154, #245 ) ;
#470 = VECTOR ( 'NONE', #259, 1000.000000000000000 ) ;
#471 = ORIENTED_EDGE ( 'NONE', *, *, #361, .F. ) ;
#472 = DIRECTION ( 'NONE',  ( -0.4999999999999997780, -0.8660254037844387076, 0.000000000000000000 ) ) ;
#473 = ORIENTED_EDGE ( 'NONE', *, *, #682, .F. ) ;
#474 = CIRCLE ( 'NONE', #338, 3.000000000000000888 ) ;
#475 = DIRECTION ( 'NONE',  ( -1.000000000000000000, 0.000000000000000000, 0.000000000000000000 ) ) ;
#476 = AXIS2_PLACEMENT_3D ( 'NONE', #144, #192, #137 ) ;
#477 = EDGE_LOOP ( 'NONE', ( #400, #57 ) ) ;
#478 = CARTESIAN_POINT ( 'NONE',  ( -8.660254037844344666, -7.999999999999998224, 5.000000000000000000 ) ) ;
#479 = CARTESIAN_POINT ( 'NONE',  ( 11.25833024919768555, -3.499999999999964473, 2.500000000000000000 ) ) ;
#480 = CARTESIAN_POINT ( 'NONE',  ( -4.330127018922224735, 12.49999999999995026, 5.000000000000000000 ) ) ;
#481 = CARTESIAN_POINT ( 'NONE',  ( 2.347388175361421753E-15, 10.00000000000001066, 5.000000000000000000 ) ) ;
#482 = EDGE_CURVE ( 'NONE', #640, #688, #221, .T. ) ;
#483 = AXIS2_PLACEMENT_3D ( 'NONE', #299, #360, #538 ) ;
#484 = CARTESIAN_POINT ( 'NONE',  ( 0.000000000000000000, 0.000000000000000000, 5.000000000000000000 ) ) ;
#485 = DIRECTION ( 'NONE',  ( -1.000000000000000000, 0.000000000000000000, 0.000000000000000000 ) ) ;
#486 = VECTOR ( 'NONE', #67, 1000.000000000000000 ) ;
#487 = EDGE_CURVE ( 'NONE', #466, #672, #456, .T. ) ;
#488 = DATE_TIME_ROLE ( 'classification_date' ) ;
#489 = DIRECTION ( 'NONE',  ( 0.000000000000000000, 0.000000000000000000, 1.000000000000000000 ) ) ;
#490 = DIRECTION ( 'NONE',  ( 0.000000000000000000, 0.000000000000000000, 1.000000000000000000 ) ) ;
#491 = ORIENTED_EDGE ( 'NONE', *, *, #638, .T. ) ;
#492 = LINE ( 'NONE', #716, #470 ) ;
#493 = FACE_BOUND ( 'NONE', #170, .T. ) ;
#494 = ORIENTED_EDGE ( 'NONE', *, *, #467, .F. ) ;
#495 = CARTESIAN_POINT ( 'NONE',  ( 12.99038105676654808, -2.499999999999942268, 0.000000000000000000 ) ) ;
#496 = DIRECTION ( 'NONE',  ( -0.000000000000000000, -0.000000000000000000, -1.000000000000000000 ) ) ;
#497 = AXIS2_PLACEMENT_3D ( 'NONE', #302, #489, #713 ) ;
#498 = ORIENTED_EDGE ( 'NONE', *, *, #142, .F. ) ;
#499 = EDGE_CURVE ( 'NONE', #148, #667, #253, .T. ) ;
#500 = CARTESIAN_POINT ( 'NONE',  ( -3.500000000000000000, 0.000000000000000000, 5.000000000000000000 ) ) ;
#501 = FACE_OUTER_BOUND ( 'NONE', #539, .T. ) ;
#502 = ORIENTED_EDGE ( 'NONE', *, *, #6, .F. ) ;
#503 = AXIS2_PLACEMENT_3D ( 'NONE', #616, #199, #263 ) ;
#504 = DIRECTION ( 'NONE',  ( 1.000000000000000000, 0.000000000000000000, 0.000000000000000000 ) ) ;
#505 = CARTESIAN_POINT ( 'NONE',  ( -3.500000000000000000, 0.000000000000000000, 2.500000000000000000 ) ) ;
#506 = ORIENTED_EDGE ( 'NONE', *, *, #107, .F. ) ;
#507 = CARTESIAN_POINT ( 'NONE',  ( 0.000000000000000000, 0.000000000000000000, 5.000000000000000000 ) ) ;
#508 = VERTEX_POINT ( 'NONE', #369 ) ;
#509 = EDGE_CURVE ( 'NONE', #285, #280, #599, .T. ) ;
#510 = VECTOR ( 'NONE', #176, 1000.000000000000000 ) ;
#511 = DIRECTION ( 'NONE',  ( -0.000000000000000000, -0.000000000000000000, 1.000000000000000000 ) ) ;
#512 = CARTESIAN_POINT ( 'NONE',  ( 8.660254037844348218, -8.000000000000000000, 2.500000000000000000 ) ) ;
#513 = AXIS2_PLACEMENT_3D ( 'NONE', #194, #511, #675 ) ;
#514 = DIRECTION ( 'NONE',  ( -0.000000000000000000, -0.000000000000000000, -1.000000000000000000 ) ) ;
#515 = EDGE_CURVE ( 'NONE', #177, #519, #54, .T. ) ;
#516 = AXIS2_PLACEMENT_3D ( 'NONE', #200, #439, #666 ) ;
#517 = APPROVAL_STATUS ( 'not_yet_approved' ) ;
#518 = DIRECTION ( 'NONE',  ( 1.000000000000000000, 0.000000000000000000, 0.000000000000000000 ) ) ;
#519 = VERTEX_POINT ( 'NONE', #478 ) ;
#520 = DIRECTION ( 'NONE',  ( 1.000000000000000000, 0.000000000000000000, 0.000000000000000000 ) ) ;
#521 = DIRECTION ( 'NONE',  ( -1.000000000000000000, 0.000000000000000000, 0.000000000000000000 ) ) ;
#522 = ORIENTED_EDGE ( 'NONE', *, *, #441, .F. ) ;
#523 = ORIENTED_EDGE ( 'NONE', *, *, #545, .F. ) ;
#524 = AXIS2_PLACEMENT_3D ( 'NONE', #526, #460, #684 ) ;
#525 = CARTESIAN_POINT ( 'NONE',  ( 8.660254037844321573, -10.00000000000000000, 5.000000000000000000 ) ) ;
#526 = CARTESIAN_POINT ( 'NONE',  ( 2.347388175361421753E-15, 10.00000000000001066, 2.500000000000000000 ) ) ;
#527 = ADVANCED_FACE ( 'NONE', ( #7 ), #421, .T. ) ;
#528 = ORIENTED_EDGE ( 'NONE', *, *, #339, .T. ) ;
#529 = DIRECTION ( 'NONE',  ( -0.4999999999999997780, 0.8660254037844387076, 0.000000000000000000 ) ) ;
#530 = ORIENTED_EDGE ( 'NONE', *, *, #482, .F. ) ;
#531 = LINE ( 'NONE', #692, #77 ) ;
#532 = ORIENTED_EDGE ( 'NONE', *, *, #48, .F. ) ;
#533 = DATE_AND_TIME ( #56, #275 ) ;
#534 = ORIENTED_EDGE ( 'NONE', *, *, #535, .F. ) ;
#535 = EDGE_CURVE ( 'NONE', #519, #289, #603, .T. ) ;
#536 = SHAPE_DEFINITION_REPRESENTATION ( #101, #367 ) ;
#537 = CARTESIAN_POINT ( 'NONE',  ( 2.347388175361421753E-15, 10.00000000000001066, 0.000000000000000000 ) ) ;
#538 = DIRECTION ( 'NONE',  ( 1.000000000000000000, 0.000000000000000000, 0.000000000000000000 ) ) ;
#539 = EDGE_LOOP ( 'NONE', ( #748, #664, #42, #491 ) ) ;
#540 = DATE_AND_TIME ( #422, #462 ) ;
#541 = CARTESIAN_POINT ( 'NONE',  ( 2.347388175361421753E-15, 10.00000000000001066, 2.500000000000000000 ) ) ;
#542 = AXIS2_PLACEMENT_3D ( 'NONE', #203, #27, #564 ) ;
#543 = EDGE_CURVE ( 'NONE', #688, #644, #179, .T. ) ;
#544 = CYLINDRICAL_SURFACE ( 'NONE', #114, 5.000000000000000888 ) ;
#545 = EDGE_CURVE ( 'NONE', #336, #359, #408, .T. ) ;
#546 = CIRCLE ( 'NONE', #288, 4.999999999999999112 ) ;
#547 =( GEOMETRIC_REPRESENTATION_CONTEXT ( 3 ) GLOBAL_UNCERTAINTY_ASSIGNED_CONTEXT ( ( #691 ) ) GLOBAL_UNIT_ASSIGNED_CONTEXT ( ( #344, #222, #46 ) ) REPRESENTATION_CONTEXT ( 'NONE', 'WORKASPACE' ) );
#548 = DIRECTION ( 'NONE',  ( -0.4999999999999997224, 0.8660254037844387076, 0.000000000000000000 ) ) ;
#549 = DIRECTION ( 'NONE',  ( -1.000000000000000000, 0.000000000000000000, 0.000000000000000000 ) ) ;
#550 = EDGE_LOOP ( 'NONE', ( #80, #578, #626, #257 ) ) ;
#551 = CARTESIAN_POINT ( 'NONE',  ( -8.660254037844318020, -9.999999999999998224, 5.000000000000000000 ) ) ;
#552 = DIRECTION ( 'NONE',  ( 0.000000000000000000, 0.000000000000000000, 1.000000000000000000 ) ) ;
#553 = ORIENTED_EDGE ( 'NONE', *, *, #207, .F. ) ;
#554 = EDGE_CURVE ( 'NONE', #727, #325, #725, .T. ) ;
#555 = CARTESIAN_POINT ( 'NONE',  ( -8.660254037844318020, -9.999999999999998224, 5.000000000000000000 ) ) ;
#556 = LINE ( 'NONE', #70, #248 ) ;
#557 = ORIENTED_EDGE ( 'NONE', *, *, #254, .F. ) ;
#558 = APPROVAL_PERSON_ORGANIZATION ( #358, #281, #420 ) ;
#559 = CARTESIAN_POINT ( 'NONE',  ( -2.598076211353334219, 11.49999999999997335, 2.500000000000000000 ) ) ;
#560 = DIRECTION ( 'NONE',  ( 0.8660254037844387076, -0.4999999999999998890, 0.000000000000000000 ) ) ;
#561 = CIRCLE ( 'NONE', #649, 3.000000000000000888 ) ;
#562 = ORIENTED_EDGE ( 'NONE', *, *, #30, .F. ) ;
#563 = ORIENTED_EDGE ( 'NONE', *, *, #399, .T. ) ;
#564 = DIRECTION ( 'NONE',  ( 1.000000000000000000, 0.000000000000000000, 0.000000000000000000 ) ) ;
#565 = LINE ( 'NONE', #729, #386 ) ;
#566 = ORIENTED_EDGE ( 'NONE', *, *, #330, .F. ) ;
#567 = ADVANCED_FACE ( 'NONE', ( #143 ), #383, .F. ) ;
#568 = FACE_OUTER_BOUND ( 'NONE', #334, .T. ) ;
#569 = LINE ( 'NONE', #734, #705 ) ;
#570 = CYLINDRICAL_SURFACE ( 'NONE', #149, 4.999999999999999112 ) ;
#571 = EDGE_CURVE ( 'NONE', #463, #210, #78, .T. ) ;
#572 = CARTESIAN_POINT ( 'NONE',  ( -2.500000000000000000, 0.000000000000000000, 2.500000000000000000 ) ) ;
#573 = DIRECTION ( 'NONE',  ( -0.000000000000000000, -0.000000000000000000, -1.000000000000000000 ) ) ;
#574 = ORIENTED_EDGE ( 'NONE', *, *, #39, .T. ) ;
#575 = EDGE_CURVE ( 'NONE', #359, #100, #152, .T. ) ;
#576 = CARTESIAN_POINT ( 'NONE',  ( 11.66025403784438907, -4.999999999999998224, 2.500000000000000000 ) ) ;
#577 = LINE ( 'NONE', #116, #510 ) ;
#578 = ORIENTED_EDGE ( 'NONE', *, *, #543, .T. ) ;
#579 = PERSON_AND_ORGANIZATION_ROLE ( 'design_owner' ) ;
#580 = EDGE_LOOP ( 'NONE', ( #118, #348, #342, #201 ) ) ;
#581 = AXIS2_PLACEMENT_3D ( 'NONE', #239, #354, #59 ) ;
#582 = DIRECTION ( 'NONE',  ( 0.000000000000000000, 0.000000000000000000, 1.000000000000000000 ) ) ;
#583 = ORIENTED_EDGE ( 'NONE', *, *, #417, .T. ) ;
#584 = CALENDAR_DATE ( 2026, 16, 8 ) ;
#585 = LINE ( 'NONE', #479, #614 ) ;
#586 = EDGE_CURVE ( 'NONE', #166, #693, #366, .T. ) ;
#587 = ORIENTED_EDGE ( 'NONE', *, *, #643, .F. ) ;
#588 = AXIS2_PLACEMENT_3D ( 'NONE', #541, #127, #69 ) ;
#589 = DATE_AND_TIME ( #120, #434 ) ;
#590 = PLANE ( 'NONE',  #581 ) ;
#591 = ORIENTED_EDGE ( 'NONE', *, *, #575, .T. ) ;
#592 = COORDINATED_UNIVERSAL_TIME_OFFSET ( 8, 0, .AHEAD. ) ;
#593 = CARTESIAN_POINT ( 'NONE',  ( -8.660254037844344666, -7.999999999999998224, 5.000000000000000000 ) ) ;
#594 = DIRECTION ( 'NONE',  ( 0.000000000000000000, 0.000000000000000000, 1.000000000000000000 ) ) ;
#595 = EDGE_CURVE ( 'NONE', #744, #196, #665, .T. ) ;
#596 = LINE ( 'NONE', #480, #287 ) ;
#597 = LINE ( 'NONE', #384, #486 ) ;
#598 = VECTOR ( 'NONE', #82, 1000.000000000000000 ) ;
#599 = LINE ( 'NONE', #14, #708 ) ;
#600 = FACE_BOUND ( 'NONE', #205, .T. ) ;
#601 = ORIENTED_EDGE ( 'NONE', *, *, #254, .T. ) ;
#602 = VECTOR ( 'NONE', #472, 1000.000000000000227 ) ;
#603 = LINE ( 'NONE', #593, #346 ) ;
#604 = DIRECTION ( 'NONE',  ( 0.4999999999999998890, 0.8660254037844387076, 0.000000000000000000 ) ) ;
#605 = EDGE_LOOP ( 'NONE', ( #376, #385, #84, #440 ) ) ;
#606 = CARTESIAN_POINT ( 'NONE',  ( 3.500000000000000000, 4.286263797015736595E-16, 5.000000000000000000 ) ) ;
#607 = FACE_OUTER_BOUND ( 'NONE', #95, .T. ) ;
#608 = ORIENTED_EDGE ( 'NONE', *, *, #595, .T. ) ;
#609 = CARTESIAN_POINT ( 'NONE',  ( -8.660254037844389075, -5.000000000000000888, 2.500000000000000000 ) ) ;
#610 = DIRECTION ( 'NONE',  ( 1.000000000000000000, -1.001543065824780494E-16, 0.000000000000000000 ) ) ;
#611 = EDGE_LOOP ( 'NONE', ( #735, #227, #553, #271 ) ) ;
#612 = AXIS2_PLACEMENT_3D ( 'NONE', #444, #86, #328 ) ;
#613 = SECURITY_CLASSIFICATION ( '', '', #651 ) ;
#614 = VECTOR ( 'NONE', #648, 1000.000000000000000 ) ;
#615 = EDGE_CURVE ( 'NONE', #640, #409, #314, .T. ) ;
#616 = CARTESIAN_POINT ( 'NONE',  ( 8.660254037844389075, -4.999999999999998224, 2.500000000000000000 ) ) ;
#617 = CARTESIAN_POINT ( 'NONE',  ( -8.660254037844318020, -9.999999999999998224, 5.000000000000000000 ) ) ;
#618 = ORIENTED_EDGE ( 'NONE', *, *, #349, .T. ) ;
#619 = CARTESIAN_POINT ( 'NONE',  ( 2.598076211353352871, 11.49999999999995026, 2.500000000000000000 ) ) ;
#620 = DIRECTION ( 'NONE',  ( 1.000000000000000000, 0.000000000000000000, 0.000000000000000000 ) ) ;
#621 = CARTESIAN_POINT ( 'NONE',  ( -12.99038105676654453, -2.499999999999942268, 5.000000000000000000 ) ) ;
#622 = EDGE_CURVE ( 'NONE', #744, #113, #452, .T. ) ;
#623 = ORIENTED_EDGE ( 'NONE', *, *, #151, .F. ) ;
#624 = CARTESIAN_POINT ( 'NONE',  ( -2.598076211353334219, 11.49999999999997335, 2.500000000000000000 ) ) ;
#625 = CARTESIAN_POINT ( 'NONE',  ( -13.66025403784438552, -5.000000000000000888, 5.000000000000000000 ) ) ;
#626 = ORIENTED_EDGE ( 'NONE', *, *, #682, .T. ) ;
#627 = CARTESIAN_POINT ( 'NONE',  ( -2.500000000000000000, 0.000000000000000000, 5.000000000000000000 ) ) ;
#628 = ORIENTED_EDGE ( 'NONE', *, *, #126, .F. ) ;
#629 = VECTOR ( 'NONE', #402, 1000.000000000000000 ) ;
#630 = LINE ( 'NONE', #217, #412 ) ;
#631 = EDGE_CURVE ( 'NONE', #352, #413, #268, .T. ) ;
#632 = LINE ( 'NONE', #525, #97 ) ;
#633 = CYLINDRICAL_SURFACE ( 'NONE', #698, 2.500000000000000000 ) ;
#634 = ORIENTED_EDGE ( 'NONE', *, *, #73, .F. ) ;
#635 = VECTOR ( 'NONE', #389, 1000.000000000000227 ) ;
#636 = DIRECTION ( 'NONE',  ( -1.000000000000000000, 0.000000000000000000, 0.000000000000000000 ) ) ;
#637 = VERTEX_POINT ( 'NONE', #146 ) ;
#638 = EDGE_CURVE ( 'NONE', #359, #455, #23, .T. ) ;
#639 = AXIS2_PLACEMENT_3D ( 'NONE', #234, #582, #700 ) ;
#640 = VERTEX_POINT ( 'NONE', #500 ) ;
#641 = PERSON_AND_ORGANIZATION_ROLE ( 'classification_officer' ) ;
#642 = AXIS2_PLACEMENT_3D ( 'NONE', #429, #490, #549 ) ;
#643 = EDGE_CURVE ( 'NONE', #210, #113, #35, .T. ) ;
#644 = VERTEX_POINT ( 'NONE', #332 ) ;
#645 = CARTESIAN_POINT ( 'NONE',  ( 8.660254037844389075, -4.999999999999998224, 2.500000000000000000 ) ) ;
#646 = EDGE_LOOP ( 'NONE', ( #150, #300, #371, #601 ) ) ;
#647 = AXIS2_PLACEMENT_3D ( 'NONE', #652, #431, #706 ) ;
#648 = DIRECTION ( 'NONE',  ( -0.000000000000000000, -0.000000000000000000, 1.000000000000000000 ) ) ;
#649 = AXIS2_PLACEMENT_3D ( 'NONE', #390, #286, #518 ) ;
#650 = EDGE_CURVE ( 'NONE', #16, #727, #492, .T. ) ;
#651 = SECURITY_CLASSIFICATION_LEVEL ( 'unclassified' ) ;
#652 = CARTESIAN_POINT ( 'NONE',  ( 12.99038105676654808, -2.499999999999942268, 5.000000000000000000 ) ) ;
#653 = CYLINDRICAL_SURFACE ( 'NONE', #55, 2.500000000000000000 ) ;
#654 = PERSON_AND_ORGANIZATION_ROLE ( 'creator' ) ;
#655 = CARTESIAN_POINT ( 'NONE',  ( 8.660254037844389075, -4.999999999999998224, 5.000000000000000000 ) ) ;
#656 = AXIS2_PLACEMENT_3D ( 'NONE', #678, #397, #156 ) ;
#657 = DIRECTION ( 'NONE',  ( -0.000000000000000000, -0.000000000000000000, -1.000000000000000000 ) ) ;
#658 = PLANE ( 'NONE',  #476 ) ;
#659 = ORIENTED_EDGE ( 'NONE', *, *, #615, .T. ) ;
#660 = ADVANCED_FACE ( 'NONE', ( #568 ), #32, .F. ) ;
#661 = APPROVAL_PERSON_ORGANIZATION ( #695, #237, #739 ) ;
#662 = FACE_OUTER_BOUND ( 'NONE', #646, .T. ) ;
#663 = DIRECTION ( 'NONE',  ( 1.000000000000000000, 0.000000000000000000, -0.000000000000000000 ) ) ;
#664 = ORIENTED_EDGE ( 'NONE', *, *, #704, .F. ) ;
#665 = LINE ( 'NONE', #379, #635 ) ;
#666 = DIRECTION ( 'NONE',  ( 1.000000000000000000, 0.000000000000000000, -0.000000000000000000 ) ) ;
#667 = VERTEX_POINT ( 'NONE', #495 ) ;
#668 = AXIS2_PLACEMENT_3D ( 'NONE', #191, #657, #136 ) ;
#669 = EDGE_CURVE ( 'NONE', #409, #644, #442, .T. ) ;
#670 = CARTESIAN_POINT ( 'NONE',  ( -3.500000000000000000, 0.000000000000000000, 5.000000000000000000 ) ) ;
#671 = CYLINDRICAL_SURFACE ( 'NONE', #198, 3.500000000000000000 ) ;
#672 = VERTEX_POINT ( 'NONE', #447 ) ;
#673 = CLOSED_SHELL ( 'NONE', ( #175, #321, #92, #747, #282, #427, #18, #167, #292, #232, #387, #184, #674, #567, #660, #61, #372, #355, #272, #224, #527, #296, #197 ) ) ;
#674 = ADVANCED_FACE ( 'NONE', ( #662 ), #273, .F. ) ;
#675 = DIRECTION ( 'NONE',  ( 1.000000000000000000, 0.000000000000000000, 0.000000000000000000 ) ) ;
#676 = DIRECTION ( 'NONE',  ( 0.000000000000000000, 0.000000000000000000, 1.000000000000000000 ) ) ;
#677 = EDGE_LOOP ( 'NONE', ( #450, #53, #406, #449 ) ) ;
#678 = CARTESIAN_POINT ( 'NONE',  ( 0.000000000000000000, 0.000000000000000000, 2.500000000000000000 ) ) ;
#679 = CARTESIAN_POINT ( 'NONE',  ( 11.25833024919768555, -3.499999999999964473, 5.000000000000000000 ) ) ;
#680 = VECTOR ( 'NONE', #548, 1000.000000000000114 ) ;
#681 = DIRECTION ( 'NONE',  ( -0.4999999999999997780, 0.8660254037844387076, 0.000000000000000000 ) ) ;
#682 = EDGE_CURVE ( 'NONE', #644, #409, #696, .T. ) ;
#683 = MECHANICAL_CONTEXT ( 'NONE', #382, 'mechanical' ) ;
#684 = DIRECTION ( 'NONE',  ( 1.000000000000000000, 0.000000000000000000, 0.000000000000000000 ) ) ;
#685 = ORIENTED_EDGE ( 'NONE', *, *, #132, .T. ) ;
#686 = COORDINATED_UNIVERSAL_TIME_OFFSET ( 8, 0, .AHEAD. ) ;
#687 = ORIENTED_EDGE ( 'NONE', *, *, #712, .T. ) ;
#688 = VERTEX_POINT ( 'NONE', #606 ) ;
#689 = VECTOR ( 'NONE', #255, 1000.000000000000000 ) ;
#690 = EDGE_CURVE ( 'NONE', #445, #718, #474, .T. ) ;
#691 = UNCERTAINTY_MEASURE_WITH_UNIT (LENGTH_MEASURE( 1.000000000000000082E-05 ), #344, 'distance_accuracy_value', 'NONE');
#692 = CARTESIAN_POINT ( 'NONE',  ( 11.66025403784438907, -4.999999999999998224, 2.500000000000000000 ) ) ;
#693 = VERTEX_POINT ( 'NONE', #572 ) ;
#694 = CC_DESIGN_PERSON_AND_ORGANIZATION_ASSIGNMENT ( #161, #579, ( #750 ) ) ;
#695 = PERSON_AND_ORGANIZATION ( #335, #2 ) ;
#696 = CIRCLE ( 'NONE', #309, 3.500000000000000000 ) ;
#697 = VERTEX_POINT ( 'NONE', #627 ) ;
#698 = AXIS2_PLACEMENT_3D ( 'NONE', #453, #573, #209 ) ;
#699 = DIRECTION ( 'NONE',  ( 1.000000000000000000, -1.001543065824777536E-16, 0.000000000000000000 ) ) ;
#700 = DIRECTION ( 'NONE',  ( 1.000000000000000000, 0.000000000000000000, 0.000000000000000000 ) ) ;
#701 = EDGE_LOOP ( 'NONE', ( #135, #293, #331, #403 ) ) ;
#702 = DIRECTION ( 'NONE',  ( -0.000000000000000000, -0.000000000000000000, -1.000000000000000000 ) ) ;
#703 = CARTESIAN_POINT ( 'NONE',  ( 8.660254037844321573, -10.00000000000000000, 5.000000000000000000 ) ) ;
#704 = EDGE_CURVE ( 'NONE', #100, #148, #632, .T. ) ;
#705 = VECTOR ( 'NONE', #243, 1000.000000000000000 ) ;
#706 = DIRECTION ( 'NONE',  ( 0.4999999999999997224, -0.8660254037844387076, 0.000000000000000000 ) ) ;
#707 = AXIS2_PLACEMENT_3D ( 'NONE', #363, #594, #244 ) ;
#708 = VECTOR ( 'NONE', #250, 1000.000000000000114 ) ;
#709 = DIRECTION ( 'NONE',  ( 1.000000000000000000, 0.000000000000000000, 0.000000000000000000 ) ) ;
#710 = CARTESIAN_POINT ( 'NONE',  ( 12.99038105676654808, -2.499999999999942268, 5.000000000000000000 ) ) ;
#711 = AXIS2_PLACEMENT_3D ( 'NONE', #537, #66, #189 ) ;
#712 = EDGE_CURVE ( 'NONE', #413, #463, #102, .T. ) ;
#713 = DIRECTION ( 'NONE',  ( 1.000000000000000000, 0.000000000000000000, 0.000000000000000000 ) ) ;
#714 = PLANE ( 'NONE',  #43 ) ;
#715 = ORIENTED_EDGE ( 'NONE', *, *, #6, .T. ) ;
#716 = CARTESIAN_POINT ( 'NONE',  ( -12.99038105676654453, -2.499999999999942268, 5.000000000000000000 ) ) ;
#717 = PLANE ( 'NONE',  #738 ) ;
#718 = VERTEX_POINT ( 'NONE', #228 ) ;
#719 = CARTESIAN_POINT ( 'NONE',  ( 0.000000000000000000, 0.000000000000000000, 2.500000000000000000 ) ) ;
#720 = DIRECTION ( 'NONE',  ( -1.000000000000000000, 0.000000000000000000, 0.000000000000000000 ) ) ;
#721 = EDGE_LOOP ( 'NONE', ( #106, #329 ) ) ;
#722 = DIRECTION ( 'NONE',  ( 0.000000000000000000, 0.000000000000000000, 1.000000000000000000 ) ) ;
#723 = FACE_OUTER_BOUND ( 'NONE', #231, .T. ) ;
#724 = ORIENTED_EDGE ( 'NONE', *, *, #266, .T. ) ;
#725 = CIRCLE ( 'NONE', #542, 4.999999999999997335 ) ;
#726 = CC_DESIGN_PERSON_AND_ORGANIZATION_ASSIGNMENT ( #301, #115, ( #236 ) ) ;
#727 = VERTEX_POINT ( 'NONE', #174 ) ;
#728 = DIRECTION ( 'NONE',  ( 0.000000000000000000, 0.000000000000000000, 1.000000000000000000 ) ) ;
#729 = CARTESIAN_POINT ( 'NONE',  ( -11.25833024919766956, -3.499999999999945821, 2.500000000000000000 ) ) ;
#730 = ORIENTED_EDGE ( 'NONE', *, *, #48, .T. ) ;
#731 = CIRCLE ( 'NONE', #483, 2.500000000000000000 ) ;
#732 = AXIS2_PLACEMENT_3D ( 'NONE', #41, #407, #636 ) ;
#733 = CARTESIAN_POINT ( 'NONE',  ( 8.660254037844389075, -4.999999999999998224, 5.000000000000000000 ) ) ;
#734 = CARTESIAN_POINT ( 'NONE',  ( -13.66025403784438552, -5.000000000000000888, 5.000000000000000000 ) ) ;
#735 = ORIENTED_EDGE ( 'NONE', *, *, #499, .T. ) ;
#736 = DIRECTION ( 'NONE',  ( 1.000000000000000000, 0.000000000000000000, 0.000000000000000000 ) ) ;
#737 = ORIENTED_EDGE ( 'NONE', *, *, #752, .T. ) ;
#738 = AXIS2_PLACEMENT_3D ( 'NONE', #190, #28, #307 ) ;
#739 = APPROVAL_ROLE ( '' ) ;
#740 = FACE_OUTER_BOUND ( 'NONE', #701, .T. ) ;
#741 = COORDINATED_UNIVERSAL_TIME_OFFSET ( 8, 0, .AHEAD. ) ;
#742 = CYLINDRICAL_SURFACE ( 'NONE', #524, 2.999999999999999112 ) ;
#743 = ORIENTED_EDGE ( 'NONE', *, *, #303, .T. ) ;
#744 = VERTEX_POINT ( 'NONE', #624 ) ;
#745 = CC_DESIGN_SECURITY_CLASSIFICATION ( #613, ( #236 ) ) ;
#746 = CIRCLE ( 'NONE', #423, 2.500000000000000000 ) ;
#747 = ADVANCED_FACE ( 'NONE', ( #99 ), #233, .T. ) ;
#748 = ORIENTED_EDGE ( 'NONE', *, *, #151, .T. ) ;
#749 = LINE ( 'NONE', #229, #351 ) ;
#750 = PRODUCT ( '\X2\96f64ef6\X0\1', '\X2\96f64ef6\X0\1', '', ( #683 ) ) ;
#751 = ORIENTED_EDGE ( 'NONE', *, *, #752, .F. ) ;
#752 = EDGE_CURVE ( 'NONE', #113, #177, #468, .T. ) ;
#753 = DATE_TIME_ROLE ( 'creation_date' ) ;
ENDSEC;
END-ISO-10303-21;
